<svg width="253" height="253" viewBox="0 0 253 253" fill="none" xmlns="http://www.w3.org/2000/svg">
<g clip-path="url(#clip0_641_5)">
<g filter="url(#filter0_ddi_641_5)">
<path d="M231.443 119.721C229.999 115.261 229.668 112.395 227.402 108.103C225.579 104.65 224.356 102.06 221.712 98.0453C218.37 92.9702 215.803 89.0848 211.283 85.3241C205.777 80.7418 201.923 77.4926 195.365 73.1461C189.576 69.3092 180.712 66.1916 180.712 66.1916C180.712 66.1916 172.043 62.9249 166.214 62.3061C159.309 61.573 155.162 61.7989 148.488 63.7175C143.46 65.1631 140.475 66.1384 136.313 69.3092C132.011 72.5869 129.5 75 125.585 78.7984C122.448 81.8423 121.5 83.5 119.18 88.0529C117.628 91.0975 117.108 93.3666 118.008 96.473C118.516 98.2263 120.431 99.8151 122.134 100.472C125.885 101.92 127.046 101.276 131.589 102.082C131.589 102.082 139.004 103.101 143.589 104.441C148.498 105.875 151.077 107.223 155.748 109.307C161.075 111.684 164.268 112.734 169.106 115.995C174.222 119.442 176.986 121.74 180.887 126.52C183.425 129.631 185.734 131.953 187.837 135.375C190.519 139.741 191.313 141.701 192.959 146.553C195.039 152.689 195.451 156.661 194.507 163.07C194.281 164.602 193.707 166.955 193.707 166.955C193.707 166.955 210.643 154.918 222.5 149C227.402 146.553 231.443 146.553 232.831 140.802C233.59 137.653 232.838 132.507 232.838 132.507C232.838 132.507 233.013 124.569 231.443 119.721Z" fill="#FFB703"/>
</g>
<g filter="url(#filter1_ddi_641_5)">
<path d="M19.4739 133.017C20.9178 137.476 21.2486 140.343 23.5145 144.634C25.3382 148.088 26.5611 150.678 29.2047 154.692C32.5464 159.767 33.7664 161.827 39.6332 167.413C45.5 173 48.9941 175.245 55.5516 179.591C60.2864 182.73 70.2048 186.546 70.2048 186.546C70.2048 186.546 78.8738 189.813 84.7026 190.431C91.6081 191.165 95.7545 190.939 102.429 189.02C107.457 187.574 109.879 187.265 114.604 183.428C119.328 179.591 121.848 178.077 125.332 173.939C128.147 170.595 129.424 168.329 131.737 164.685C133.568 161.8 133.808 159.371 132.908 156.265C132.4 154.511 130.486 152.922 128.783 152.265C125.031 150.818 123.871 151.462 119.328 150.656C119.328 150.656 111.912 149.636 107.328 148.297C102.419 146.863 99.6706 146.084 95 144C89.6723 141.623 86.649 140.003 81.8108 136.743C76.6946 133.296 73.9304 130.998 70.0301 126.218C67.4912 123.106 65.1823 120.784 63.0799 117.363C60.3974 112.997 59.6036 111.037 57.9579 106.184C55.8774 100.049 55.4656 96.0768 56.4099 89.6676C56.6357 88.1352 57.21 85.7829 57.21 85.7829L28.3208 104.805C28.3208 104.805 25.2228 106.67 23.3758 108.061C19.4739 111 18.837 115.103 18.079 120.23C17.3443 125.199 17.9039 128.168 19.4739 133.017Z" fill="#6A994E"/>
</g>
<g filter="url(#filter2_ddi_641_5)">
<path d="M119.38 21.6773C114.831 22.8065 112.134 23.7259 107.763 25.7178C103.657 27.5893 101.72 28.7644 97.7051 31.408C92.63 34.7498 91.5 36 84.9839 41.8365C79.6476 46.6163 77.1523 51.1974 72.8059 57.7549C69.6676 62.4897 65.8513 72.408 65.8513 72.408C65.8513 72.408 62.5846 81.077 61.9658 86.9058C61.2327 93.8113 61.4586 97.9577 63.3772 104.632C64.8228 109.66 66.5 112.5 68.9689 116.807C71.6588 121.499 74.3207 124.051 78.4581 127.535C81.802 130.35 83.6802 131.38 87.7127 133.94C91.7452 136.5 93.0264 136.011 96.1327 135.112C97.8861 134.604 99.4749 132.689 100.132 130.986C101.579 127.234 100.936 126.074 101.742 121.531C101.742 121.531 102.761 114.115 104.1 109.531C105.534 104.622 106.882 102.043 108.966 97.3723C111.344 92.0446 112.394 88.8522 115.654 84.014C119.102 78.8979 121.399 76.1337 126.179 72.2334C129.291 69.6945 131.613 67.3856 135.035 65.2832C139.401 62.6006 141.36 61.8068 146.213 60.1612C152.348 58.0806 156.321 57.6688 162.73 58.6132C164.262 58.839 166.615 59.4132 166.615 59.4132C166.615 59.4132 155.021 41.806 147.592 30.5241C146.321 28.593 145.984 27.2008 144.336 25.5791C140.848 22.1467 137.35 20.2823 132.167 20.2823C127.5 20.2823 125 20.2823 119.38 21.6773Z" fill="#D8101F"/>
</g>
<g filter="url(#filter3_ddi_641_5)">
<path d="M131.515 230.992C135.974 229.548 138.841 229.217 143.132 226.951C146.586 225.128 149.176 223.905 153.19 221.261C158.265 217.92 162.151 215.352 165.912 210.833C170.494 205.326 173.743 201.472 178.089 194.914C181.228 190.18 185.044 180.261 185.044 180.261C185.044 180.261 188.311 171.592 188.93 165.763C189.663 158.858 189.437 154.712 187.518 148.038C186.073 143.009 185.044 141.5 181.926 135.863C179.309 131.13 176.575 128.618 172.437 125.135C169.093 122.319 166.827 121.043 163.183 118.729C160.298 116.898 157.869 116.658 154.763 117.558C153.009 118.066 151.421 119.981 150.763 121.684C149.316 125.435 149.96 126.596 149.154 131.138C149.154 131.138 148.134 138.554 146.795 143.138C145.361 148.048 145 149.5 143.132 155.5C141.398 161.07 139.26 164.162 136 169C132.553 174.116 129.496 176.536 124.716 180.436C121.604 182.975 119.282 185.284 115.861 187.386C111.495 190.069 109.535 190.863 104.682 192.508C98.5469 194.589 94.5748 195.001 88.1655 194.056C86.6332 193.83 84.2808 193.256 84.2808 193.256L103.303 222.145C103.303 222.145 105.179 225.235 106.559 227.09C110.5 232.387 118.728 232.387 118.728 232.387C118.728 232.387 126.666 232.562 131.515 230.992Z" fill="#2A9D8F"/>
</g>
<g clip-path="url(#clip1_641_5)">
<path d="M147.866 167.422C146.684 167.928 145.897 169.25 145.644 171.106L145.475 172.569L141.762 172.681C137.797 172.794 137.037 173.019 135.631 174.509C134.056 176.169 134 176.563 134 186.631C134 195.631 134.028 195.884 134.647 197.094C134.984 197.769 135.744 198.725 136.334 199.175L137.431 200.047L144.744 200.131C152.619 200.216 152.956 200.159 152.788 198.809C152.647 197.516 151.859 197.375 145.025 197.375C141.256 197.375 138.528 197.263 138.191 197.094C136.981 196.447 136.812 195.491 136.812 189.5V183.875H143.703H150.594V185.084C150.594 186.997 151.634 188.009 152.844 187.25C153.069 187.109 153.322 186.378 153.406 185.506L153.547 184.016L160.353 183.931L167.188 183.875V185.703C167.188 187.334 167.272 187.559 167.891 187.981C168.537 188.403 168.65 188.403 169.297 187.981L170 187.531V182.441C170 176.928 169.803 176.028 168.369 174.509C166.962 173.019 166.231 172.794 162.069 172.681L158.188 172.569V171.106C158.188 169.306 157.428 167.956 156.078 167.394C154.784 166.859 149.131 166.859 147.866 167.422ZM154.925 169.981C155.234 170.094 155.375 170.516 155.375 171.388V172.625H152H148.625V171.416C148.625 170.741 148.709 170.094 148.822 170.009C149.047 169.756 154.334 169.756 154.925 169.981ZM166.259 176.338C166.906 177.013 167.047 177.406 167.131 179.094L167.244 181.063H152H136.756L136.869 179.094C136.981 177.013 137.628 175.888 138.894 175.634C139.203 175.55 145.334 175.522 152.478 175.55L165.5 175.578L166.259 176.338Z" fill="black"/>
<path d="M158.328 188.347C153.519 190.569 153.659 197.713 158.525 199.738C159.791 200.272 162.238 200.3 163.391 199.794C164.206 199.428 164.263 199.456 166.147 201.228C168.144 203.084 168.763 203.338 169.522 202.494C170.309 201.622 170.084 201.059 168.2 199.119C166.456 197.263 166.428 197.206 166.794 196.391C167.722 194.309 167.019 191.019 165.331 189.444C163.588 187.813 160.522 187.334 158.328 188.347ZM163.391 191.609C164.263 192.481 164.375 192.791 164.375 194C164.375 195.209 164.263 195.519 163.391 196.391C162.519 197.263 162.209 197.375 161 197.375C159.791 197.375 159.481 197.263 158.609 196.391C157.738 195.519 157.625 195.209 157.625 194C157.625 192.791 157.738 192.481 158.609 191.609C159.481 190.738 159.791 190.625 161 190.625C162.209 190.625 162.519 190.738 163.391 191.609Z" fill="black"/>
</g>
<path d="M5 87C5 87.5523 5.44772 88 6 88C6.55228 88 7 87.5523 7 87H5ZM7 87L7 -3H5L5 87H7Z" fill="#00477D" fill-opacity="0.82"/>
<path d="M7 84C7 84.5523 7.44772 85 8 85C8.55228 85 9 84.5523 9 84H7ZM9 84L9 -6H7L7 84H9Z" fill="#00477D" fill-opacity="0.82"/>
<path d="M9 81C9 81.5523 9.44772 82 10 82C10.5523 82 11 81.5523 11 81H9ZM11 81L11 -9H9L9 81H11Z" fill="#00477D" fill-opacity="0.82"/>
<path d="M11 79C11 79.5523 11.4477 80 12 80C12.5523 80 13 79.5523 13 79H11ZM13 79L13 -11H11L11 79H13Z" fill="#00477D" fill-opacity="0.82"/>
<path d="M13 76C13 76.5523 13.4477 77 14 77C14.5523 77 15 76.5523 15 76H13ZM15 76L15 -27H13L13 76H15Z" fill="#00477D" fill-opacity="0.82"/>
<path d="M15 74C15 74.5523 15.4477 75 16 75C16.5523 75 17 74.5523 17 74H15ZM17 74L17 -33H15L15 74H17Z" fill="#00477D" fill-opacity="0.82"/>
<path d="M17 72C17 72.5523 17.4477 73 18 73C18.5523 73 19 72.5523 19 72H17ZM19 72L19 -39H17L17 72H19Z" fill="#00477D" fill-opacity="0.82"/>
<path d="M19 70C19 70.5523 19.4477 71 20 71C20.5523 71 21 70.5523 21 70H19ZM21 70L21 -45H19L19 70H21Z" fill="#00477D" fill-opacity="0.82"/>
<path d="M21 68C21 68.5523 21.4477 69 22 69C22.5523 69 23 68.5523 23 68H21ZM23 68L23 -51H21L21 68H23Z" fill="#00477D" fill-opacity="0.82"/>
<path d="M41 87C41 87.5523 40.5523 88 40 88C39.4477 88 39 87.5523 39 87H41ZM39 87L39 -3H41L41 87H39Z" fill="#00477D" fill-opacity="0.82"/>
<path d="M39 84C39 84.5523 38.5523 85 38 85C37.4477 85 37 84.5523 37 84H39ZM37 84L37 -6H39L39 84H37Z" fill="#00477D" fill-opacity="0.82"/>
<path d="M37 81C37 81.5523 36.5523 82 36 82C35.4477 82 35 81.5523 35 81H37ZM35 81L35 -9H37L37 81H35Z" fill="#00477D" fill-opacity="0.82"/>
<path d="M35 79C35 79.5523 34.5523 80 34 80C33.4477 80 33 79.5523 33 79H35ZM33 79L33 -11H35L35 79H33Z" fill="#00477D" fill-opacity="0.82"/>
<path d="M33 76C33 76.5523 32.5523 77 32 77C31.4477 77 31 76.5523 31 76H33ZM31 76L31 -27H33L33 76H31Z" fill="#00477D" fill-opacity="0.82"/>
<path d="M31 74C31 74.5523 30.5523 75 30 75C29.4477 75 29 74.5523 29 74H31ZM29 74L29 -33H31L31 74H29Z" fill="#00477D" fill-opacity="0.82"/>
<path d="M29 72C29 72.5523 28.5523 73 28 73C27.4477 73 27 72.5523 27 72H29ZM27 72L27 -39H29L29 72H27Z" fill="#00477D" fill-opacity="0.82"/>
<path d="M27 70C27 70.5523 26.5523 71 26 71C25.4477 71 25 70.5523 25 70H27ZM25 70L25 -45H27L27 70H25Z" fill="#00477D" fill-opacity="0.82"/>
<path d="M25 68C25 68.5523 24.5523 69 24 69C23.4477 69 23 68.5523 23 68H25ZM23 68L23 -51H25L25 68H23Z" fill="#00477D" fill-opacity="0.82"/>
<path d="M53.5938 127.594C52.4062 128.344 51.9375 129.125 51.9375 130.437C51.9375 133 54.4062 134.719 56.7188 133.75C58.1562 133.156 58.8125 132.156 58.8125 130.531C58.8125 127.812 55.875 126.156 53.5938 127.594ZM56.6562 128.594C58.1562 129.375 58.0312 131.875 56.4375 132.594C55.3438 133.094 54.9375 133.031 54 132.281C53.4062 131.812 53.1875 131.344 53.1875 130.562C53.1875 128.687 54.9688 127.687 56.6562 128.594Z" fill="black"/>
<path d="M65.375 130.594C65.375 130.844 65.5938 131.062 65.8438 131.062C66.0938 131.062 66.3125 130.844 66.3125 130.594C66.3125 130.344 66.0938 130.125 65.8438 130.125C65.5938 130.125 65.375 130.344 65.375 130.594Z" fill="black"/>
<path d="M62.1875 132.625C61.9687 132.969 61.625 133.25 61.4062 133.25C60.7812 133.25 60.9375 133.969 61.75 134.719C62.5625 135.5 63.1875 135.656 63.1875 135.094C63.1875 134.906 63.5 134.5 63.9062 134.156L64.5937 133.563L63.9062 133.375C63.5 133.281 63.1875 133 63.1875 132.75C63.1875 132.031 62.5937 131.938 62.1875 132.625Z" fill="black"/>
<path d="M51.625 135.125C51.1562 135.312 50.125 136.562 49.0312 138.187C46.6563 141.844 46.625 142.656 48.8437 145.625C49.75 146.812 50.7812 148.125 51.1562 148.562L51.8437 149.344L51.4375 156.219C51.2187 160 51.125 163.687 51.2187 164.406L51.375 165.719L49.7188 165.812C48.4688 165.875 48.0313 166.031 48.0313 166.375C48.0313 166.781 50.3125 166.844 66.4062 166.937L84.75 167V160.812C84.75 156.406 84.6562 154.531 84.375 154.25C84.125 154 82.4062 153.875 78.6562 153.875C72.1875 153.875 72.25 153.844 72.25 157.25C72.25 159.469 71.875 160.219 71.5 158.719C71.3437 158.094 70.6562 157.437 69.5312 156.844C69.4687 156.812 69.1562 154.687 68.8125 152.125C68 146.094 68.0312 146.156 66.8437 145.437C66.0625 144.937 65.2812 144.812 63.2812 144.812H60.6875V141.062V137.312L59.6562 136.156L58.5937 135.031L55.5 134.937C53.8125 134.875 52.0625 134.969 51.625 135.125ZM58.625 136.719C59.4062 137.344 59.4375 137.437 59.4375 141.094V144.812H56.2812H53.1562L53.2812 142.219C53.3437 140.812 53.5 139.344 53.6562 138.937C54.0937 137.656 53 138.187 51.5 140C50.7187 140.969 50.0625 141.844 50.0625 141.969C50.0625 142.094 50.5312 142.937 51.125 143.875C52.1875 145.531 52.1875 145.594 51.5625 146C51.0312 146.406 50.9062 146.375 50.4375 145.719C49 143.781 48.1875 142.5 48.1875 142.187C48.1875 141.781 50.7812 137.437 51.5312 136.594C51.9375 136.156 52.5625 136.062 54.9062 136.062C57.3437 136.062 57.9062 136.156 58.625 136.719ZM51.9375 142.031C51.9375 142.375 51.8125 142.594 51.625 142.469C51.4687 142.375 51.4062 142.094 51.5312 141.844C51.75 141.187 51.9375 141.25 51.9375 142.031ZM66.4062 146.531C66.9687 147.062 67.0937 147.687 67.5625 151.687C67.75 153.312 67.9687 155.031 68.0625 155.469C68.2187 156.219 68.0937 156.312 67.0937 156.5C66.4375 156.625 65.875 156.656 65.7812 156.594C65.7187 156.5 65.4062 155 65.125 153.219L64.5625 149.969H63.6562C63.125 150 61.625 150.094 60.2812 150.219L57.8125 150.469L58.0312 149.219C58.2187 148.062 58.1875 147.937 57.5937 147.937C57.2187 147.937 56.9375 148.094 56.9375 148.25C56.9375 148.687 55.0937 161 54.875 162.094C54.7187 162.844 54.5625 162.937 53.4375 162.937H52.1562L52.3437 160.5C52.4687 159.187 52.625 156.187 52.75 153.844C52.9375 149.75 53 149.562 53.6875 149.219C54.5625 148.844 54.9375 147.625 54.4375 146.719C54.0937 146.062 54.125 146.062 60.0312 146.062C64.875 146.062 66.0312 146.156 66.4062 146.531ZM53.4375 147.406C53.5937 148.094 52.6875 148.437 52.0625 147.906C51.625 147.531 51.625 147.469 52.125 147.094C52.8125 146.594 53.3125 146.719 53.4375 147.406ZM63.6562 151.75C63.75 152.156 64.0625 154.062 64.375 155.969L64.9687 159.5H63.4687C61.2812 159.5 61 159.937 61 163.125V165.75H59.4375C58.0937 165.75 57.875 165.656 57.875 165.156C57.875 164.812 57.4375 164.219 56.9062 163.781L55.9375 163.031L56.7812 157.437C57.25 154.375 57.6562 151.812 57.6875 151.75C57.7812 151.687 61.6562 151.187 62.9375 151.094C63.2812 151.094 63.5625 151.344 63.6562 151.75ZM83.75 160.5L83.8125 165.75H78.6562H73.5V160.437V155.125L78.5937 155.187L83.6562 155.281L83.75 160.5ZM69.4687 158.156C70.8125 158.969 70.4062 159.344 68.1562 159.344C66.2187 159.344 66.1562 159.312 66.0625 158.469C65.9687 157.656 66.0312 157.625 67.25 157.625C67.9687 157.625 68.9687 157.875 69.4687 158.156ZM72.25 163.25V165.75H67.0937H61.9375V163.469C61.9375 162.187 62.0312 161.062 62.1562 160.969C62.25 160.844 64.5937 160.75 67.3125 160.75H72.25V163.25ZM56.0937 164.625C57.125 165.406 56.6875 165.75 54.5937 165.75C53.4687 165.75 52.5625 165.625 52.5625 165.469C52.5625 165.312 52.4687 164.969 52.375 164.687C52.2187 164.281 52.4687 164.187 53.8437 164.187C54.7812 164.187 55.7812 164.406 56.0937 164.625Z" fill="black"/>
<path d="M90.6875 40.6875C90.2094 41.1656 90.125 41.6156 90.125 43.4438C90.125 45.3844 90.2094 45.7219 90.7719 46.2563C91.4187 46.875 91.5875 46.875 100.278 46.875H109.166L109.756 46.2281C110.291 45.6656 110.375 45.2438 110.375 43.4719C110.375 41.6156 110.291 41.2781 109.7 40.7156C109.137 40.1813 108.8 40.0969 107.112 40.1813C106.044 40.2375 105.172 40.3781 105.172 40.5469C105.172 40.6875 106.128 40.8844 107.281 40.9688L109.391 41.1094V43.5V45.8906H100.25H91.1094V43.5V41.1094L97.7188 40.9688C106.494 40.7719 106.494 40.2938 97.7188 40.1813C91.5594 40.125 91.2219 40.1531 90.6875 40.6875Z" fill="black"/>
<path d="M93.2188 41.9532C93.2188 42.3188 93.6687 42.375 96.5375 42.3188C100.841 42.2063 100.784 41.7 96.4531 41.5875C93.6687 41.5313 93.2188 41.5875 93.2188 41.9532Z" fill="black"/>
<path d="M112.906 42.7969C112.175 43.6969 113.272 45.0751 114.256 44.4563C115.213 43.8376 114.875 42.3751 113.75 42.3751C113.469 42.3751 113.103 42.5719 112.906 42.7969ZM114.031 43.5001C114.031 43.6407 113.919 43.7813 113.75 43.7813C113.609 43.7813 113.469 43.6407 113.469 43.5001C113.469 43.3313 113.609 43.2188 113.75 43.2188C113.919 43.2188 114.031 43.3313 114.031 43.5001Z" fill="black"/>
<path d="M115.719 42.7969C115.719 43.1625 116.028 43.2188 117.463 43.1625C118.531 43.1063 119.234 42.9375 119.319 42.7125C119.403 42.4594 118.925 42.375 117.575 42.375C116.084 42.375 115.719 42.4594 115.719 42.7969Z" fill="black"/>
<path d="M93.2188 43.5C93.2188 43.6688 94.0062 43.7812 95.0469 43.7812C96.0875 43.7812 96.875 43.6688 96.875 43.5C96.875 43.3313 96.0875 43.2188 95.0469 43.2188C94.0062 43.2188 93.2188 43.3313 93.2188 43.5Z" fill="black"/>
<path d="M115.719 44.2032C115.719 44.5688 116.169 44.625 119.037 44.5688C123.341 44.4563 123.284 43.95 118.953 43.8375C116.169 43.7813 115.719 43.8375 115.719 44.2032Z" fill="black"/>
<path d="M115.719 46.4532C115.719 46.8188 115.944 46.9032 116.788 46.8188C117.35 46.7626 117.828 46.5938 117.828 46.4532C117.828 46.2844 117.35 46.1438 116.788 46.0876C115.944 46.0032 115.719 46.0876 115.719 46.4532Z" fill="black"/>
<path d="M112.906 47.2969C112.175 48.1969 113.272 49.5751 114.256 48.9563C115.213 48.3376 114.875 46.8751 113.75 46.8751C113.469 46.8751 113.103 47.0719 112.906 47.2969ZM114.031 48.0001C114.031 48.1407 113.919 48.2813 113.75 48.2813C113.609 48.2813 113.469 48.1407 113.469 48.0001C113.469 47.8313 113.609 47.7188 113.75 47.7188C113.919 47.7188 114.031 47.8313 114.031 48.0001Z" fill="black"/>
<path d="M90.575 48.3375C89.9281 49.2656 89.9844 51.5156 90.6875 52.2188C91.1938 52.725 91.6156 52.7812 94.9906 52.7812C97.0156 52.7812 98.8438 52.6688 99.0125 52.5563C100.25 51.7406 100.25 48.7594 99.0125 47.9437C98.8438 47.8313 96.9594 47.7188 94.85 47.7188C91.1938 47.7188 90.9688 47.7469 90.575 48.3375ZM98.675 48.7313C99.2656 49.2938 99.2656 51.2063 98.675 51.7688C98.3375 52.1344 97.5781 52.2188 95.1594 52.2188C93.4438 52.2188 91.8125 52.0781 91.5031 51.9375C90.7719 51.5156 90.7156 49.0125 91.475 48.5906C91.7281 48.4219 93.3594 48.2812 95.1031 48.2812C97.5781 48.2812 98.3375 48.3656 98.675 48.7313Z" fill="black"/>
<path d="M91.7282 49.2938C91.3625 49.6594 91.8688 49.9688 92.825 49.9688C93.5 49.9688 93.7813 49.8281 93.7813 49.5469C93.7813 49.2656 93.5 49.125 92.8532 49.125C92.3188 49.125 91.8125 49.2094 91.7282 49.2938Z" fill="black"/>
<path d="M91.7282 50.7C91.25 51.1781 92.0375 51.375 94.3719 51.375C96.2844 51.375 96.9032 51.2906 96.8188 51.0094C96.6782 50.6437 92.0938 50.3625 91.7282 50.7Z" fill="black"/>
<path d="M101.487 47.9437C100.953 48.2812 100.531 49.3219 100.531 50.25C100.531 51.1781 100.953 52.2188 101.487 52.5563C101.656 52.6688 103.484 52.7812 105.537 52.7812C109.981 52.7812 110.375 52.5844 110.375 50.25C110.375 47.9156 109.981 47.7188 105.537 47.7188C103.484 47.7188 101.656 47.8313 101.487 47.9437ZM108.997 48.5625C109.419 48.7875 109.531 49.1531 109.531 50.25C109.531 52.0781 109.222 52.2188 105.453 52.2188C101.769 52.2188 101.375 52.05 101.375 50.3906C101.375 48.4781 101.741 48.2812 105.341 48.2812C107.056 48.2812 108.688 48.4219 108.997 48.5625Z" fill="black"/>
<path d="M102.219 49.5469C102.219 49.9126 102.444 49.9969 103.288 49.9126C103.85 49.8563 104.328 49.6876 104.328 49.5469C104.328 49.3782 103.85 49.2376 103.288 49.1813C102.444 49.0969 102.219 49.1813 102.219 49.5469Z" fill="black"/>
<path d="M102.219 50.9531C102.219 51.2906 102.697 51.375 104.75 51.375C106.803 51.375 107.281 51.2906 107.281 50.9531C107.281 50.6156 106.803 50.5312 104.75 50.5312C102.697 50.5312 102.219 50.6156 102.219 50.9531Z" fill="black"/>
<path d="M115.719 48C115.719 48.1688 116.759 48.2812 118.25 48.2812C119.741 48.2812 120.781 48.1688 120.781 48C120.781 47.8313 119.741 47.7188 118.25 47.7188C116.759 47.7188 115.719 47.8313 115.719 48Z" fill="black"/>
<path d="M115.719 49.5469C115.719 49.9125 116.028 49.9688 117.463 49.9125C118.531 49.8563 119.234 49.6875 119.319 49.4625C119.403 49.2094 118.925 49.125 117.575 49.125C116.084 49.125 115.719 49.2094 115.719 49.5469Z" fill="black"/>
<path d="M90.6875 54.1875C90.1813 54.6938 90.125 55.1157 90.125 58.4063C90.125 61.9782 90.1531 62.1188 90.8281 62.7938C91.5312 63.4969 91.6156 63.525 95.1875 63.4125C99.9688 63.3 99.8 63.4688 99.9125 58.6875C100.025 55.1157 99.9969 55.0313 99.2938 54.3282C98.6188 53.6532 98.4781 53.625 94.9062 53.625C91.6156 53.625 91.1938 53.6813 90.6875 54.1875ZM98.7875 54.8063C99.2656 55.2844 99.2656 61.8094 98.7875 62.2875C98.3094 62.7657 91.7844 62.7657 91.3063 62.2875C90.9406 61.9219 90.8 55.0032 91.1656 54.6657C91.5031 54.3 98.4219 54.4407 98.7875 54.8063Z" fill="black"/>
<path d="M96.8188 57.1407C95.3 58.575 94.7094 58.6875 93.7813 57.7032C93.1063 57 91.9813 56.775 91.6719 57.2813C91.5875 57.4219 91.6719 57.5625 91.925 57.5625C92.15 57.5625 92.6844 57.8719 93.1344 58.2375C94.6813 59.5313 95.2719 59.475 97.0156 57.8438C98.45 56.4657 98.8719 55.875 98.3656 55.875C98.225 55.875 97.55 56.4657 96.8188 57.1407Z" fill="black"/>
<path d="M91.7281 60.5438C91.25 61.05 92.1219 61.2188 95.075 61.2188C97.7469 61.2188 98.2813 61.1344 98.2813 60.7969C98.2813 60.4594 97.7469 60.375 95.1031 60.375C93.3313 60.375 91.8125 60.4594 91.7281 60.5438Z" fill="black"/>
<path d="M101.206 54.3282C100.503 55.0313 100.475 55.1157 100.588 58.6875C100.7 63.4688 100.531 63.3 105.313 63.4125C108.884 63.525 108.969 63.4969 109.672 62.7938C110.319 62.1469 110.375 61.8938 110.375 59.3907C110.375 57.1969 110.291 56.7188 109.953 56.7188C109.616 56.7188 109.531 57.1969 109.531 59.3344C109.531 60.9938 109.419 62.0625 109.194 62.2875C108.716 62.7657 102.191 62.7657 101.713 62.2875C101.234 61.8094 101.234 55.2844 101.713 54.8063C101.938 54.5813 103.231 54.4688 105.65 54.4688C109.25 54.4688 109.278 54.4688 109.531 55.1719C109.672 55.5657 109.925 55.875 110.094 55.875C110.6 55.875 110.375 54.8625 109.728 54.2438C109.138 53.6813 108.772 53.625 105.481 53.625C102.022 53.625 101.881 53.6532 101.206 54.3282Z" fill="black"/>
<path d="M111.837 54.075C111.247 54.4688 111.219 54.6937 111.219 58.35C111.219 60.4594 111.331 62.3438 111.444 62.5125C111.781 63.0469 112.822 63.4688 113.75 63.4688C114.678 63.4688 115.719 63.0469 116.056 62.5125C116.169 62.3438 116.281 60.5156 116.281 58.4625C116.281 55.1156 116.225 54.6937 115.719 54.1875C115.016 53.4844 112.766 53.4281 111.837 54.075ZM115.438 55.0031C115.578 55.3125 115.719 56.9437 115.719 58.6594C115.719 62.2031 115.522 62.625 113.75 62.625C111.978 62.625 111.781 62.2031 111.781 58.6594C111.781 54.7781 111.922 54.4688 113.75 54.4688C114.847 54.4688 115.212 54.5812 115.438 55.0031Z" fill="black"/>
<path d="M112.822 55.2001C112.709 55.3126 112.625 56.5219 112.625 57.9001C112.625 59.7844 112.709 60.4032 112.991 60.3188C113.216 60.2344 113.356 59.4188 113.412 57.8438C113.497 55.6782 113.272 54.7501 112.822 55.2001Z" fill="black"/>
<path d="M114.2 55.2281C114.116 55.3125 114.031 55.8188 114.031 56.3531C114.031 57 114.172 57.2812 114.453 57.2812C114.734 57.2812 114.875 57 114.875 56.325C114.875 55.3688 114.566 54.8625 114.2 55.2281Z" fill="black"/>
<path d="M117.688 54.1876C117.153 54.7219 117.125 55.1157 117.125 63.6938V72.6657L117.772 73.2563C118.447 73.9032 119.375 74.1001 119.375 73.5938C119.375 73.4251 119.066 73.1719 118.672 73.0313L117.969 72.7501L118.025 63.6938L118.109 54.6094H120.5H122.891V63.7501V72.8907L121.569 72.9751C120.612 73.0313 120.219 73.1719 120.219 73.4813C120.219 74.1844 122.525 73.9876 123.256 73.2282C123.875 72.5813 123.875 72.4126 123.875 63.7219V54.8344L123.228 54.2438C122.666 53.7094 122.244 53.6251 120.416 53.6251C118.616 53.6251 118.166 53.7094 117.688 54.1876Z" fill="black"/>
<path d="M103.063 56.4094C102.359 57.7313 104.075 58.7438 104.863 57.4782C105.088 57.1407 105.088 56.8594 104.863 56.4938C104.413 55.7907 103.428 55.7344 103.063 56.4094ZM104.328 57C104.413 57.1407 104.3 57.2813 104.075 57.2813C103.822 57.2813 103.625 57.1407 103.625 57C103.625 56.8313 103.738 56.7188 103.878 56.7188C104.047 56.7188 104.244 56.8313 104.328 57Z" fill="black"/>
<path d="M120.219 58.5469C120.219 59.5875 120.331 60.375 120.5 60.375C120.669 60.375 120.781 59.5875 120.781 58.5469C120.781 57.5063 120.669 56.7188 120.5 56.7188C120.331 56.7188 120.219 57.5063 120.219 58.5469Z" fill="black"/>
<path d="M121.681 59.9532C121.794 64.2844 122.3 64.3407 122.413 60.0094C122.469 57.1688 122.413 56.7188 122.047 56.7188C121.681 56.7188 121.625 57.1688 121.681 59.9532Z" fill="black"/>
<path d="M105.313 58.2657C104.778 58.8001 104.469 59.3344 104.581 59.4469C104.666 59.5594 105.228 59.1938 105.763 58.6313C106.325 58.0969 106.663 57.5626 106.522 57.4782C106.353 57.3657 105.819 57.7313 105.313 58.2657Z" fill="black"/>
<path d="M106.213 59.3063C105.313 60.2063 106.438 61.5563 107.563 60.9375C108.519 60.4313 108.097 58.9688 107 58.9688C106.747 58.9688 106.409 59.1094 106.213 59.3063ZM107.281 60.1219C107.281 60.2625 107.169 60.375 107 60.375C106.859 60.375 106.719 60.1782 106.719 59.925C106.719 59.7 106.859 59.5875 107 59.6719C107.169 59.7563 107.281 59.9532 107.281 60.1219Z" fill="black"/>
<path d="M90.8282 64.7063C90.1532 65.3813 90.125 65.522 90.125 69.0376C90.125 73.9313 90.0688 73.8751 95.0188 73.8751C98.4782 73.8751 98.6188 73.847 99.2938 73.172C99.9969 72.4688 100.025 72.3845 99.9125 68.8126C99.8 64.0313 99.9688 64.2001 95.1875 64.0876C91.6157 63.9751 91.5313 64.0032 90.8282 64.7063ZM98.7875 65.2126C99.2938 65.7188 99.2375 72.3001 98.7313 72.722C98.4782 72.947 97.1563 73.0313 94.7375 72.9751L91.1094 72.8907L91.025 69.2626C90.9688 66.8438 91.0532 65.522 91.2782 65.2688C91.7 64.7626 98.2813 64.7063 98.7875 65.2126Z" fill="black"/>
<path d="M94.9062 67.5469C94.9062 67.8281 95.2156 67.9688 95.8906 67.9688C96.5656 67.9688 96.875 67.8281 96.875 67.5469C96.875 67.2656 96.5656 67.125 95.8906 67.125C95.2156 67.125 94.9062 67.2656 94.9062 67.5469Z" fill="black"/>
<path d="M91.9813 68.4188C91.7 69.1782 91.7844 69.6282 92.3469 69.9376C92.6563 70.0782 93.0781 70.1345 93.3313 70.0501C93.9219 69.8251 94.175 68.8688 93.7813 68.3907C93.3313 67.8282 92.2063 67.8563 91.9813 68.4188ZM93.2188 69.122C93.2188 69.2626 93.1063 69.3751 92.9375 69.3751C92.7969 69.3751 92.6563 69.1782 92.6563 68.9251C92.6563 68.7001 92.7969 68.5876 92.9375 68.672C93.1063 68.7563 93.2188 68.9532 93.2188 69.122Z" fill="black"/>
<path d="M94.9062 68.9531C94.9062 69.2906 95.2719 69.375 96.5938 69.375C97.9156 69.375 98.2812 69.2906 98.2812 68.9531C98.2812 68.6156 97.9156 68.5312 96.5938 68.5312C95.2719 68.5312 94.9062 68.6156 94.9062 68.9531Z" fill="black"/>
<path d="M94.9062 70.5C94.9062 70.6688 95.6937 70.7812 96.7344 70.7812C97.775 70.7812 98.5625 70.6688 98.5625 70.5C98.5625 70.3313 97.775 70.2188 96.7344 70.2188C95.6937 70.2188 94.9062 70.3313 94.9062 70.5Z" fill="black"/>
<path d="M101.712 64.3126C100.784 64.7063 100.531 65.6907 100.531 69.2626C100.531 72.3282 100.559 72.5251 101.234 73.172C101.881 73.847 102.05 73.8751 105.537 73.8751C110.431 73.8751 110.375 73.9313 110.375 68.9813C110.375 65.5782 110.347 65.3813 109.672 64.7345C109.025 64.0595 108.828 64.0313 105.678 64.0595C103.85 64.0595 102.078 64.172 101.712 64.3126ZM109.222 65.2688C109.447 65.522 109.531 66.8438 109.475 69.2626L109.391 72.8907L105.762 72.9751C103.344 73.0313 102.022 72.947 101.769 72.722C101.262 72.3001 101.206 65.7188 101.712 65.2126C102.219 64.7063 108.8 64.7626 109.222 65.2688Z" fill="black"/>
<path d="M105.144 66.6188C105.003 66.8438 104.666 67.0969 104.384 67.2094C104.131 67.3219 103.822 67.6032 103.709 67.8563C103.4 68.6438 104.019 69.2344 105.341 69.375C107.056 69.5719 106.888 70.05 105.116 70.1625C103.653 70.2469 102.95 70.7813 104.3 70.7813C104.666 70.7813 105.031 70.9782 105.144 71.2032C105.341 71.7375 105.875 71.7657 105.875 71.2313C105.875 71.0063 106.156 70.7813 106.522 70.725C106.944 70.6688 107.169 70.4157 107.225 69.9657C107.366 69.0938 106.634 68.5313 105.397 68.5313C104.891 68.5313 104.469 68.3907 104.469 68.25C104.469 68.0813 105.116 67.9688 105.875 67.9688C106.944 67.9688 107.281 67.8563 107.281 67.5469C107.281 67.2938 107.028 67.125 106.691 67.125C106.353 67.125 105.931 66.9282 105.734 66.6469C105.425 66.2532 105.369 66.2532 105.144 66.6188Z" fill="black"/>
<path d="M112.203 64.3687C111.894 64.5375 111.556 64.8187 111.444 64.9875C111.331 65.1562 111.219 66.9844 111.219 69.0094C111.219 73.4812 111.416 73.875 113.75 73.875C116.084 73.875 116.281 73.4812 116.281 69.0094C116.281 66.9844 116.169 65.1562 116.056 64.9875C115.466 64.0875 113.3 63.75 112.203 64.3687ZM115.438 65.4094C115.578 65.7188 115.719 67.3219 115.719 68.9531C115.719 72.7219 115.578 73.0312 113.75 73.0312C111.922 73.0312 111.781 72.7219 111.781 68.8406C111.781 65.2406 111.978 64.875 113.891 64.875C114.847 64.875 115.212 65.0156 115.438 65.4094Z" fill="black"/>
<path d="M112.625 68.25C112.625 70.3031 112.709 70.7812 113.047 70.7812C113.384 70.7812 113.469 70.3031 113.469 68.25C113.469 66.1969 113.384 65.7188 113.047 65.7188C112.709 65.7188 112.625 66.1969 112.625 68.25Z" fill="black"/>
<path d="M114.088 66.7594C114.144 67.35 114.313 67.8281 114.453 67.8281C114.622 67.8281 114.763 67.35 114.819 66.7594C114.903 65.9438 114.819 65.7188 114.453 65.7188C114.088 65.7188 114.003 65.9438 114.088 66.7594Z" fill="black"/>
<path d="M178.203 82.3344C177.034 85.325 175.591 89.8625 175.694 90.4812C175.831 91.3406 177.378 92.1656 178.959 92.2344C179.578 92.2344 180.266 92.4406 180.506 92.6812C180.816 92.9906 179.956 93.0937 176.381 93.0937H171.844L171.913 104.506L172.016 115.953L177.275 116.056C180.128 116.091 182.5 116.228 182.5 116.331C182.5 116.434 182.259 116.984 181.95 117.534C181.228 118.944 181.503 119.494 182.809 119.287C183.566 119.184 183.944 119.287 184.081 119.7C184.425 120.628 185.388 120.319 186.075 119.047C186.659 118.016 186.9 117.844 188 117.844C189.1 117.844 189.341 118.016 189.925 119.047C190.613 120.353 191.128 120.525 191.816 119.7C192.091 119.356 192.606 119.219 193.259 119.322C194.497 119.494 194.738 118.909 194.05 117.534C193.741 116.984 193.5 116.434 193.5 116.331C193.5 116.228 195.872 116.091 198.759 116.056L203.984 115.953L204.088 104.506L204.156 93.0937H199.481C195.906 93.0937 194.841 92.9906 194.978 92.6469C195.047 92.4062 195.734 92.2344 196.628 92.2C198.553 92.2 200.169 91.4094 200.306 90.4812C200.409 89.6562 198.175 82.9531 197.556 82.1625C197.006 81.5094 195.116 81.8531 193.534 82.8844C190.888 84.6719 184.562 84.775 182.672 83.0906C181.159 81.75 178.616 81.3375 178.203 82.3344ZM181.469 83.8469C181.469 84.225 179.131 90.7219 178.925 90.9625C178.822 91.0312 178.272 90.9281 177.722 90.6875L176.725 90.275L177.894 86.975C178.547 85.1187 179.166 83.4687 179.234 83.2281C179.338 82.9187 179.647 82.8844 180.438 83.1594C180.988 83.3656 181.469 83.675 181.469 83.8469ZM198.072 86.8031L199.275 90.3094L198.244 90.6531C197.659 90.8594 197.109 90.9969 197.075 90.9281C196.869 90.7562 194.531 84.1562 194.531 83.8125C194.531 83.4344 196.353 82.7812 196.628 83.0906C196.731 83.1937 197.384 84.8781 198.072 86.8031ZM185.353 85.4281C185.525 85.5312 185.181 85.9094 184.597 86.2531C181.709 88.0062 185.388 90.825 188.344 89.1406C188.825 88.8656 189.341 88.6594 189.478 88.625C189.959 88.625 193.5 92.1312 193.5 92.6125C193.5 93.3344 193.191 93.1969 191.712 91.8906C190.406 90.6875 189.719 90.5844 189.719 91.5469C189.719 91.7875 190.2 92.4062 190.75 92.8531C191.678 93.6437 192.159 94.8125 191.541 94.8125C191.403 94.8125 190.716 94.2281 189.994 93.5406C188.962 92.5437 188.584 92.3719 188.275 92.6812C187.966 92.9906 188.172 93.4031 189.203 94.4687C190.337 95.6375 190.441 95.8437 189.925 96.05C189.513 96.2219 188.928 95.8781 188 94.9844C187.072 94.0906 186.488 93.7469 186.075 93.9187C185.559 94.125 185.628 94.2969 186.556 95.2594C187.794 96.5312 187.897 96.875 187.141 96.875C186.831 96.875 185.216 95.4656 183.531 93.7469L180.472 90.6187L181.538 87.7312L182.569 84.8094L183.841 85.05C184.528 85.1875 185.216 85.3594 185.353 85.4281ZM194.462 87.6625C195.013 89.2437 195.425 90.6187 195.322 90.7562C194.944 91.4094 193.844 90.8937 192.297 89.3125C190.441 87.4219 189.341 87.1469 187.45 88.1094C186.453 88.5906 184.906 88.4875 184.906 87.9031C184.906 87.2844 187.897 85.7375 189.891 85.325C193.466 84.6031 193.294 84.5 194.462 87.6625ZM182.5 94.6406C182.878 95.0875 182.569 95.1562 180.025 95.1562H177.138L176.622 96.2562C176.141 97.3219 175.728 97.6656 174.525 98.0437C173.975 98.2156 173.906 98.8344 173.906 104.437V110.659L175.109 111.175C175.934 111.484 176.484 112.034 176.794 112.859L177.309 114.062H179.716C181.022 114.062 182.225 114.2 182.328 114.406C182.466 114.612 180.85 114.75 177.722 114.75H172.875V104.678C172.875 99.1094 172.978 94.4687 173.116 94.3656C173.219 94.2281 175.316 94.125 177.688 94.125C181.159 94.125 182.156 94.2281 182.5 94.6406ZM203.056 104.506L203.125 114.75H198.312C195.15 114.75 193.534 114.612 193.672 114.406C193.775 114.2 194.944 114.062 196.216 114.062C198.656 114.062 199.172 113.822 199.413 112.516C199.481 112.137 200.1 111.553 200.822 111.209L202.094 110.625V104.437C202.094 98.8344 202.025 98.2156 201.509 98.0437C200.272 97.6656 199.859 97.3219 199.378 96.2562L198.863 95.1562H196.009C193.363 95.1562 192.778 94.9844 193.397 94.3312C193.534 94.2281 195.734 94.1594 198.278 94.1937L202.953 94.2969L203.056 104.506ZM185.319 97.3906C186.35 98.25 187.794 98.525 188.172 97.9062C188.275 97.7 188.825 97.5625 189.375 97.5625C189.925 97.5625 190.578 97.3219 190.888 97.0469C191.266 96.6687 192.228 96.5312 194.703 96.5312C197.866 96.5312 198.003 96.5656 198.381 97.3906C198.588 97.8719 199.206 98.4219 199.756 98.6625L200.719 99.1094V104.472V109.834L199.859 110.212C199.378 110.453 198.691 111.072 198.381 111.656C197.866 112.584 197.625 112.687 196.009 112.687H194.188V111.278C194.188 106.809 188.894 103.956 184.838 106.225C183.084 107.222 181.812 109.353 181.812 111.244V112.687H179.991C178.341 112.687 178.1 112.584 177.756 111.828C177.516 111.347 176.897 110.659 176.312 110.35L175.281 109.766V104.437V99.1094L176.244 98.6625C176.794 98.4219 177.412 97.8719 177.619 97.3906C177.997 96.5656 178.134 96.5312 181.159 96.5312C184.012 96.5312 184.391 96.6 185.319 97.3906ZM189.822 106.981C191.3 107.6 192.675 109.25 192.95 110.762C193.259 112.481 192.194 114.853 190.681 115.781C189.341 116.606 187.003 116.675 185.594 115.953C182.706 114.475 182.122 110.384 184.459 108.15C186.144 106.534 187.863 106.156 189.822 106.981ZM185.25 117.706C185.25 118.359 184.906 118.462 184.081 118.084C183.428 117.775 183.359 117.569 183.634 117.122C183.909 116.641 184.116 116.606 184.631 116.916C184.975 117.156 185.25 117.5 185.25 117.706ZM192.366 117.809C192.125 117.878 191.747 118.084 191.541 118.256C191.231 118.497 191.025 118.428 190.888 118.05C190.75 117.672 190.922 117.294 191.3 117.019C191.85 116.606 191.988 116.641 192.331 117.122C192.675 117.534 192.675 117.706 192.366 117.809Z" fill="black"/>
<path d="M178.134 98.9375C176.863 100.519 177.069 101.481 178.822 102.169C179.888 102.581 180.128 102.822 179.784 103.028C179.234 103.372 178.375 103.166 178.375 102.684C178.375 102.513 178.134 102.375 177.859 102.375C177.034 102.375 177.275 103.509 178.306 104.472L179.269 105.4L180.231 104.438C181.538 103.097 181.4 101.653 179.888 101.172C178.684 100.794 178.306 100.209 179.166 100.038C179.475 99.9688 179.853 100.175 179.956 100.45C180.231 101.206 181.125 101.138 181.125 100.381C181.091 99.7625 179.647 97.9063 179.166 97.9406C179.028 97.9406 178.547 98.3875 178.134 98.9375Z" fill="black"/>
<path d="M182.637 100.691C182.156 101.481 183.187 101.722 186.487 101.619C189.409 101.516 189.891 101.447 189.994 100.897C190.097 100.381 189.753 100.312 186.487 100.312C184.253 100.312 182.809 100.45 182.637 100.691Z" fill="black"/>
<path d="M182.672 103.441C182.122 104.3 183.359 104.437 190.784 104.369C197.35 104.266 198.484 104.197 198.484 103.75C198.484 103.303 197.35 103.234 190.681 103.131C185.284 103.062 182.809 103.166 182.672 103.441Z" fill="black"/>
<path d="M185.628 108.769C183.669 110.384 183.909 113.478 186.075 114.784C186.659 115.128 187.519 115.438 188 115.438C189.272 115.438 190.922 114.303 191.403 113.066C192.434 110.625 190.647 107.875 188 107.875C187.072 107.875 186.35 108.15 185.628 108.769ZM189.719 109.938C191.197 111.416 190.097 114.062 188 114.062C186.694 114.062 185.594 112.962 185.594 111.656C185.594 111.072 185.903 110.316 186.281 109.938C186.659 109.559 187.416 109.25 188 109.25C188.584 109.25 189.341 109.559 189.719 109.938Z" fill="black"/>
<g clip-path="url(#clip2_641_5)">
<path d="M17.1 18.4503C16.7 18.8503 16.125 19.8503 15.8 20.7003L15.225 22.2252L13.55 22.3752C11.275 22.5753 10.3 23.0503 9.84996 24.1753C9.49996 25.0002 9.49996 25.2502 9.89996 26.9502L10.325 28.8003L8.82496 30.2252C7.22496 31.6753 6.82496 32.5252 7.12496 33.6752C7.19996 34.0752 7.97496 35.0002 8.82496 35.7752L10.325 37.2002L9.89996 39.0502C9.49996 40.7502 9.49996 41.0002 9.84996 41.8252C10.3 42.9502 11.275 43.4252 13.55 43.6252L15.225 43.7752L15.8 45.3002C16.125 46.1502 16.7 47.1502 17.1 47.5502C17.75 48.2252 17.975 48.3002 19 48.2002C19.775 48.1252 20.55 47.8002 21.325 47.3002C21.95 46.8502 22.7 46.5002 23 46.5002C23.3 46.5002 24.05 46.8502 24.675 47.3002C25.45 47.8002 26.225 48.1252 27 48.2002C28.025 48.3002 28.25 48.2252 28.9 47.5502C29.3 47.1502 29.875 46.1502 30.2 45.3002L30.775 43.7752L32.45 43.6252C34.725 43.4252 35.7 42.9502 36.15 41.8252C36.5 41.0002 36.5 40.7502 36.1 39.0502L35.675 37.2002L37.175 35.7752C39.575 33.5752 39.575 32.4252 37.175 30.2252L35.675 28.8003L36.1 26.9502C36.5 25.2502 36.5 25.0002 36.15 24.1753C35.7 23.0503 34.725 22.5753 32.45 22.3752L30.775 22.2252L30.2 20.7003C29.875 19.8503 29.3 18.8503 28.9 18.4503C28.25 17.7753 28.025 17.7003 27 17.8003C26.225 17.8753 25.45 18.2003 24.675 18.7003C24.05 19.1503 23.3 19.5002 23 19.5002C22.7 19.5002 21.95 19.1503 21.325 18.7003C20.55 18.2003 19.775 17.8753 19 17.8003C17.975 17.7003 17.75 17.7753 17.1 18.4503ZM20.45 21.3003C21.425 22.0002 21.85 22.1252 23 22.1252C24.15 22.1252 24.575 22.0002 25.575 21.3003C26.225 20.8253 26.925 20.5002 27.1 20.5753C27.275 20.6503 27.525 21.1252 27.7 21.6503C28.45 24.1002 29.625 25.0002 32.1 25.0002C32.85 25.0002 33.525 25.1002 33.625 25.2252C33.7 25.3752 33.575 26.1502 33.35 26.9502C32.725 29.2002 32.975 29.9502 34.825 31.6252L36.375 33.0502L35.75 33.5502C33.05 35.7002 32.675 36.5752 33.35 39.0502C33.575 39.8502 33.7 40.6252 33.625 40.7752C33.525 40.9002 32.85 41.0002 32.1 41.0002C29.625 41.0002 28.45 41.9002 27.7 44.3502C27.525 44.8752 27.275 45.3502 27.1 45.4252C26.925 45.5002 26.225 45.1752 25.575 44.7002C23.875 43.5252 22.125 43.5252 20.425 44.7002C19.775 45.1752 19.075 45.5002 18.9 45.4252C18.725 45.3502 18.475 44.8752 18.3 44.3502C17.55 41.9002 16.375 41.0002 13.9 41.0002C13.15 41.0002 12.475 40.9002 12.375 40.7752C12.3 40.6252 12.425 39.8502 12.65 39.0502C13.275 36.8002 13.025 36.0502 11.2 34.4002L9.67496 33.0002L11.2 31.6002C13.025 29.9502 13.275 29.2002 12.65 26.9502C12.425 26.1502 12.3 25.3752 12.375 25.2252C12.475 25.1002 13.175 25.0002 13.95 25.0002C15.95 25.0002 16.975 24.4253 17.775 22.8502C18.125 22.1252 18.5 21.3253 18.575 21.0253C18.75 20.3003 19.075 20.3502 20.45 21.3003Z" fill="#DCAB31"/>
<path d="M24.4999 31.3752L21.3499 34.5002L19.9999 33.1252C18.6249 31.7252 17.6999 31.4002 17.0499 32.0502C16.2999 32.8002 16.7249 33.6252 18.8499 35.7002C19.9999 36.8252 21.1499 37.7502 21.3999 37.7502C21.6499 37.7502 23.4749 36.1252 25.5499 34.0502C28.4499 31.1502 29.2499 30.2252 29.2499 29.7002C29.2499 29.0752 28.4749 28.2502 27.8999 28.2502C27.7749 28.2502 26.2499 29.6502 24.4999 31.3752Z" fill="#DCAB31"/>
</g>
</g>
<defs>
<filter id="filter0_ddi_641_5" x="113.567" y="55.9197" width="123.603" height="119.035" filterUnits="userSpaceOnUse" color-interpolation-filters="sRGB">
<feFlood flood-opacity="0" result="BackgroundImageFix"/>
<feColorMatrix in="SourceAlpha" type="matrix" values="0 0 0 0 0 0 0 0 0 0 0 0 0 0 0 0 0 0 127 0" result="hardAlpha"/>
<feOffset dy="4"/>
<feGaussianBlur stdDeviation="2"/>
<feComposite in2="hardAlpha" operator="out"/>
<feColorMatrix type="matrix" values="0 0 0 0 0 0 0 0 0 0 0 0 0 0 0 0 0 0 0.25 0"/>
<feBlend mode="normal" in2="BackgroundImageFix" result="effect1_dropShadow_641_5"/>
<feColorMatrix in="SourceAlpha" type="matrix" values="0 0 0 0 0 0 0 0 0 0 0 0 0 0 0 0 0 0 127 0" result="hardAlpha"/>
<feOffset dy="-2"/>
<feGaussianBlur stdDeviation="2"/>
<feComposite in2="hardAlpha" operator="out"/>
<feColorMatrix type="matrix" values="0 0 0 0 0 0 0 0 0 0 0 0 0 0 0 0 0 0 0.25 0"/>
<feBlend mode="normal" in2="effect1_dropShadow_641_5" result="effect2_dropShadow_641_5"/>
<feBlend mode="normal" in="SourceGraphic" in2="effect2_dropShadow_641_5" result="shape"/>
<feColorMatrix in="SourceAlpha" type="matrix" values="0 0 0 0 0 0 0 0 0 0 0 0 0 0 0 0 0 0 127 0" result="hardAlpha"/>
<feOffset dy="4"/>
<feGaussianBlur stdDeviation="2"/>
<feComposite in2="hardAlpha" operator="arithmetic" k2="-1" k3="1"/>
<feColorMatrix type="matrix" values="0 0 0 0 0 0 0 0 0 0 0 0 0 0 0 0 0 0 0.25 0"/>
<feBlend mode="normal" in2="shape" result="effect3_innerShadow_641_5"/>
</filter>
<filter id="filter1_ddi_641_5" x="10.1594" y="85.7828" width="127.257" height="116.635" filterUnits="userSpaceOnUse" color-interpolation-filters="sRGB">
<feFlood flood-opacity="0" result="BackgroundImageFix"/>
<feColorMatrix in="SourceAlpha" type="matrix" values="0 0 0 0 0 0 0 0 0 0 0 0 0 0 0 0 0 0 127 0" result="hardAlpha"/>
<feOffset dy="4"/>
<feGaussianBlur stdDeviation="2"/>
<feComposite in2="hardAlpha" operator="out"/>
<feColorMatrix type="matrix" values="0 0 0 0 0 0 0 0 0 0 0 0 0 0 0 0 0 0 0.25 0"/>
<feBlend mode="normal" in2="BackgroundImageFix" result="effect1_dropShadow_641_5"/>
<feColorMatrix in="SourceAlpha" type="matrix" values="0 0 0 0 0 0 0 0 0 0 0 0 0 0 0 0 0 0 127 0" result="hardAlpha"/>
<feOffset dx="-4" dy="8"/>
<feGaussianBlur stdDeviation="1.8"/>
<feComposite in2="hardAlpha" operator="out"/>
<feColorMatrix type="matrix" values="0 0 0 0 0 0 0 0 0 0 0 0 0 0 0 0 0 0 0.25 0"/>
<feBlend mode="normal" in2="effect1_dropShadow_641_5" result="effect2_dropShadow_641_5"/>
<feBlend mode="normal" in="SourceGraphic" in2="effect2_dropShadow_641_5" result="shape"/>
<feColorMatrix in="SourceAlpha" type="matrix" values="0 0 0 0 0 0 0 0 0 0 0 0 0 0 0 0 0 0 127 0" result="hardAlpha"/>
<feOffset dy="4"/>
<feGaussianBlur stdDeviation="2"/>
<feComposite in2="hardAlpha" operator="arithmetic" k2="-1" k3="1"/>
<feColorMatrix type="matrix" values="0 0 0 0 0 0 0 0 0 0 0 0 0 0 0 0 0 0 0.25 0"/>
<feBlend mode="normal" in2="shape" result="effect3_innerShadow_641_5"/>
</filter>
<filter id="filter2_ddi_641_5" x="57.5795" y="10.2823" width="113.035" height="133.554" filterUnits="userSpaceOnUse" color-interpolation-filters="sRGB">
<feFlood flood-opacity="0" result="BackgroundImageFix"/>
<feColorMatrix in="SourceAlpha" type="matrix" values="0 0 0 0 0 0 0 0 0 0 0 0 0 0 0 0 0 0 127 0" result="hardAlpha"/>
<feOffset dy="4"/>
<feGaussianBlur stdDeviation="2"/>
<feComposite in2="hardAlpha" operator="out"/>
<feColorMatrix type="matrix" values="0 0 0 0 0 0 0 0 0 0 0 0 0 0 0 0 0 0 0.25 0"/>
<feBlend mode="normal" in2="BackgroundImageFix" result="effect1_dropShadow_641_5"/>
<feColorMatrix in="SourceAlpha" type="matrix" values="0 0 0 0 0 0 0 0 0 0 0 0 0 0 0 0 0 0 127 0" result="hardAlpha"/>
<feOffset dy="-6"/>
<feGaussianBlur stdDeviation="2"/>
<feComposite in2="hardAlpha" operator="out"/>
<feColorMatrix type="matrix" values="0 0 0 0 0 0 0 0 0 0 0 0 0 0 0 0 0 0 0.25 0"/>
<feBlend mode="normal" in2="effect1_dropShadow_641_5" result="effect2_dropShadow_641_5"/>
<feBlend mode="normal" in="SourceGraphic" in2="effect2_dropShadow_641_5" result="shape"/>
<feColorMatrix in="SourceAlpha" type="matrix" values="0 0 0 0 0 0 0 0 0 0 0 0 0 0 0 0 0 0 127 0" result="hardAlpha"/>
<feOffset dy="4"/>
<feGaussianBlur stdDeviation="2"/>
<feComposite in2="hardAlpha" operator="arithmetic" k2="-1" k3="1"/>
<feColorMatrix type="matrix" values="0 0 0 0 0 0 0 0 0 0 0 0 0 0 0 0 0 0 0.25 0"/>
<feBlend mode="normal" in2="shape" result="effect3_innerShadow_641_5"/>
</filter>
<filter id="filter3_ddi_641_5" x="80.2808" y="117.05" width="113.035" height="127.343" filterUnits="userSpaceOnUse" color-interpolation-filters="sRGB">
<feFlood flood-opacity="0" result="BackgroundImageFix"/>
<feColorMatrix in="SourceAlpha" type="matrix" values="0 0 0 0 0 0 0 0 0 0 0 0 0 0 0 0 0 0 127 0" result="hardAlpha"/>
<feOffset dy="4"/>
<feGaussianBlur stdDeviation="2"/>
<feComposite in2="hardAlpha" operator="out"/>
<feColorMatrix type="matrix" values="0 0 0 0 0 0 0 0 0 0 0 0 0 0 0 0 0 0 0.25 0"/>
<feBlend mode="normal" in2="BackgroundImageFix" result="effect1_dropShadow_641_5"/>
<feColorMatrix in="SourceAlpha" type="matrix" values="0 0 0 0 0 0 0 0 0 0 0 0 0 0 0 0 0 0 127 0" result="hardAlpha"/>
<feOffset dy="8"/>
<feGaussianBlur stdDeviation="2"/>
<feComposite in2="hardAlpha" operator="out"/>
<feColorMatrix type="matrix" values="0 0 0 0 0 0 0 0 0 0 0 0 0 0 0 0 0 0 0.25 0"/>
<feBlend mode="normal" in2="effect1_dropShadow_641_5" result="effect2_dropShadow_641_5"/>
<feBlend mode="normal" in="SourceGraphic" in2="effect2_dropShadow_641_5" result="shape"/>
<feColorMatrix in="SourceAlpha" type="matrix" values="0 0 0 0 0 0 0 0 0 0 0 0 0 0 0 0 0 0 127 0" result="hardAlpha"/>
<feOffset dy="4"/>
<feGaussianBlur stdDeviation="2"/>
<feComposite in2="hardAlpha" operator="arithmetic" k2="-1" k3="1"/>
<feColorMatrix type="matrix" values="0 0 0 0 0 0 0 0 0 0 0 0 0 0 0 0 0 0 0.25 0"/>
<feBlend mode="normal" in2="shape" result="effect3_innerShadow_641_5"/>
</filter>
<clipPath id="clip0_641_5">
<rect width="253" height="253" fill="white"/>
</clipPath>
<clipPath id="clip1_641_5">
<rect width="36" height="36" fill="white" transform="translate(134 167)"/>
</clipPath>
<clipPath id="clip2_641_5">
<rect width="32" height="32" fill="white" transform="translate(6.99994 17.0002)"/>
</clipPath>
</defs>
</svg>
