<svg width="1920" height="1080" viewBox="0 0 1920 1080" fill="none" xmlns="http://www.w3.org/2000/svg">
<g clip-path="url(#clip0_692_189)">
<rect width="1920" height="1080" fill="#F9F9F9"/>
<circle cx="1539.5" cy="382.5" r="17.5" fill="#EFEFEF"/>
<circle cx="1574.5" cy="337.5" r="17.5" fill="#EFEFEF"/>
<circle cx="1609.5" cy="292.5" r="17.5" fill="#EFEFEF"/>
<circle cx="1644.5" cy="247.5" r="17.5" fill="#EFEFEF"/>
<circle cx="1679.5" cy="202.5" r="17.5" fill="#EFEFEF"/>
<circle cx="1714.5" cy="157.5" r="17.5" fill="#EFEFEF"/>
<circle cx="1749.5" cy="112.5" r="17.5" fill="#EFEFEF"/>
<circle cx="1504.5" cy="435.5" r="17.5" fill="#EFEFEF"/>
<circle cx="1469.5" cy="488.5" r="17.5" fill="#EFEFEF"/>
<circle cx="1434.5" cy="541.5" r="17.5" fill="#EFEFEF"/>
<circle cx="1399.5" cy="594.5" r="17.5" fill="#EFEFEF"/>
<circle cx="1364.5" cy="647.5" r="17.5" fill="#EFEFEF"/>
<circle cx="1329.5" cy="700.5" r="17.5" fill="#EFEFEF"/>
<circle cx="1294.5" cy="753.5" r="17.5" fill="#EFEFEF"/>
<circle cx="1259.5" cy="806.5" r="17.5" fill="#EFEFEF"/>
<circle cx="1224.5" cy="859.5" r="17.5" fill="#EFEFEF"/>
<circle cx="1189.5" cy="912.5" r="17.5" fill="#EFEFEF"/>
<circle cx="1154.5" cy="965.5" r="17.5" fill="#EFEFEF"/>
<circle cx="1189.5" cy="1032.5" r="17.5" fill="#EFEFEF"/>
<circle cx="1609.5" cy="394.5" r="17.5" fill="#EFEFEF"/>
<circle cx="1644.5" cy="349.5" r="17.5" fill="#EFEFEF"/>
<circle cx="1679.5" cy="304.5" r="17.5" fill="#EFEFEF"/>
<circle cx="1714.5" cy="259.5" r="17.5" fill="#EFEFEF"/>
<circle cx="1749.5" cy="214.5" r="17.5" fill="#EFEFEF"/>
<circle cx="1784.5" cy="169.5" r="17.5" fill="#EFEFEF"/>
<circle cx="1819.5" cy="124.5" r="17.5" fill="#EFEFEF"/>
<circle cx="1574.5" cy="447.5" r="17.5" fill="#EFEFEF"/>
<circle cx="1539.5" cy="500.5" r="17.5" fill="#EFEFEF"/>
<circle cx="1504.5" cy="553.5" r="17.5" fill="#EFEFEF"/>
<circle cx="1469.5" cy="606.5" r="17.5" fill="#EFEFEF"/>
<circle cx="1434.5" cy="659.5" r="17.5" fill="#EFEFEF"/>
<circle cx="1399.5" cy="712.5" r="17.5" fill="#EFEFEF"/>
<circle cx="1364.5" cy="765.5" r="17.5" fill="#EFEFEF"/>
<circle cx="1329.5" cy="818.5" r="17.5" fill="#EFEFEF"/>
<circle cx="1294.5" cy="871.5" r="17.5" fill="#EFEFEF"/>
<circle cx="1259.5" cy="924.5" r="17.5" fill="#EFEFEF"/>
<circle cx="1224.5" cy="977.5" r="17.5" fill="#EFEFEF"/>
<circle cx="1259.5" cy="1044.5" r="17.5" fill="#EFEFEF"/>
<circle cx="1679.5" cy="406.5" r="17.5" fill="#EFEFEF"/>
<circle cx="1714.5" cy="361.5" r="17.5" fill="#EFEFEF"/>
<circle cx="1749.5" cy="316.5" r="17.5" fill="#EFEFEF"/>
<circle cx="1784.5" cy="271.5" r="17.5" fill="#EFEFEF"/>
<circle cx="1819.5" cy="226.5" r="17.5" fill="#EFEFEF"/>
<circle cx="1854.5" cy="181.5" r="17.5" fill="#EFEFEF"/>
<circle cx="1889.5" cy="136.5" r="17.5" fill="#EFEFEF"/>
<circle cx="1644.5" cy="459.5" r="17.5" fill="#EFEFEF"/>
<circle cx="1609.5" cy="512.5" r="17.5" fill="#EFEFEF"/>
<circle cx="1574.5" cy="565.5" r="17.5" fill="#EFEFEF"/>
<circle cx="1539.5" cy="618.5" r="17.5" fill="#EFEFEF"/>
<circle cx="1504.5" cy="671.5" r="17.5" fill="#EFEFEF"/>
<circle cx="1469.5" cy="724.5" r="17.5" fill="#EFEFEF"/>
<circle cx="1434.5" cy="777.5" r="17.5" fill="#EFEFEF"/>
<circle cx="1399.5" cy="830.5" r="17.5" fill="#EFEFEF"/>
<circle cx="1364.5" cy="883.5" r="17.5" fill="#EFEFEF"/>
<circle cx="1329.5" cy="936.5" r="17.5" fill="#EFEFEF"/>
<circle cx="1294.5" cy="989.5" r="17.5" fill="#EFEFEF"/>
<circle cx="1329.5" cy="1056.5" r="17.5" fill="#EFEFEF"/>
<circle cx="1749.5" cy="418.5" r="17.5" fill="#EFEFEF"/>
<circle cx="1784.5" cy="373.5" r="17.5" fill="#EFEFEF"/>
<circle cx="1819.5" cy="328.5" r="17.5" fill="#EFEFEF"/>
<circle cx="1854.5" cy="283.5" r="17.5" fill="#EFEFEF"/>
<circle cx="1889.5" cy="238.5" r="17.5" fill="#EFEFEF"/>
<circle cx="1924.5" cy="193.5" r="17.5" fill="#EFEFEF"/>
<circle cx="1714.5" cy="471.5" r="17.5" fill="#EFEFEF"/>
<circle cx="1679.5" cy="524.5" r="17.5" fill="#EFEFEF"/>
<circle cx="1644.5" cy="577.5" r="17.5" fill="#EFEFEF"/>
<circle cx="1609.5" cy="630.5" r="17.5" fill="#EFEFEF"/>
<circle cx="1574.5" cy="683.5" r="17.5" fill="#EFEFEF"/>
<circle cx="1539.5" cy="736.5" r="17.5" fill="#EFEFEF"/>
<circle cx="1504.5" cy="789.5" r="17.5" fill="#EFEFEF"/>
<circle cx="1469.5" cy="842.5" r="17.5" fill="#EFEFEF"/>
<circle cx="1434.5" cy="895.5" r="17.5" fill="#EFEFEF"/>
<circle cx="1399.5" cy="948.5" r="17.5" fill="#EFEFEF"/>
<circle cx="1364.5" cy="1001.5" r="17.5" fill="#EFEFEF"/>
<circle cx="1399.5" cy="1068.5" r="17.5" fill="#EFEFEF"/>
<circle cx="1819.5" cy="430.5" r="17.5" fill="#EFEFEF"/>
<circle cx="1854.5" cy="385.5" r="17.5" fill="#EFEFEF"/>
<circle cx="1889.5" cy="340.5" r="17.5" fill="#EFEFEF"/>
<circle cx="1924.5" cy="295.5" r="17.5" fill="#EFEFEF"/>
<circle cx="1784.5" cy="483.5" r="17.5" fill="#EFEFEF"/>
<circle cx="1749.5" cy="536.5" r="17.5" fill="#EFEFEF"/>
<circle cx="1714.5" cy="589.5" r="17.5" fill="#EFEFEF"/>
<circle cx="1679.5" cy="642.5" r="17.5" fill="#EFEFEF"/>
<circle cx="1644.5" cy="695.5" r="17.5" fill="#EFEFEF"/>
<circle cx="1609.5" cy="748.5" r="17.5" fill="#EFEFEF"/>
<circle cx="1574.5" cy="801.5" r="17.5" fill="#EFEFEF"/>
<circle cx="1539.5" cy="854.5" r="17.5" fill="#EFEFEF"/>
<circle cx="1504.5" cy="907.5" r="17.5" fill="#EFEFEF"/>
<circle cx="1469.5" cy="960.5" r="17.5" fill="#EFEFEF"/>
<circle cx="1434.5" cy="1013.5" r="17.5" fill="#EFEFEF"/>
<circle cx="1469.5" cy="1080.5" r="17.5" fill="#EFEFEF"/>
<circle cx="1889.5" cy="442.5" r="17.5" fill="#EFEFEF"/>
<circle cx="1924.5" cy="397.5" r="17.5" fill="#EFEFEF"/>
<circle cx="1854.5" cy="495.5" r="17.5" fill="#EFEFEF"/>
<circle cx="1819.5" cy="548.5" r="17.5" fill="#EFEFEF"/>
<circle cx="1784.5" cy="601.5" r="17.5" fill="#EFEFEF"/>
<circle cx="1749.5" cy="654.5" r="17.5" fill="#EFEFEF"/>
<circle cx="1714.5" cy="707.5" r="17.5" fill="#EFEFEF"/>
<circle cx="1679.5" cy="760.5" r="17.5" fill="#EFEFEF"/>
<circle cx="1644.5" cy="813.5" r="17.5" fill="#EFEFEF"/>
<circle cx="1609.5" cy="866.5" r="17.5" fill="#EFEFEF"/>
<circle cx="1574.5" cy="919.5" r="17.5" fill="#EFEFEF"/>
<circle cx="1539.5" cy="972.5" r="17.5" fill="#EFEFEF"/>
<circle cx="1504.5" cy="1025.5" r="17.5" fill="#EFEFEF"/>
<circle cx="1539.5" cy="1092.5" r="17.5" fill="#EFEFEF"/>
<circle cx="1924.5" cy="507.5" r="17.5" fill="#EFEFEF"/>
<circle cx="1889.5" cy="560.5" r="17.5" fill="#EFEFEF"/>
<circle cx="1854.5" cy="613.5" r="17.5" fill="#EFEFEF"/>
<circle cx="1819.5" cy="666.5" r="17.5" fill="#EFEFEF"/>
<circle cx="1784.5" cy="719.5" r="17.5" fill="#EFEFEF"/>
<circle cx="1749.5" cy="772.5" r="17.5" fill="#EFEFEF"/>
<circle cx="1714.5" cy="825.5" r="17.5" fill="#EFEFEF"/>
<circle cx="1679.5" cy="878.5" r="17.5" fill="#EFEFEF"/>
<circle cx="1644.5" cy="931.5" r="17.5" fill="#EFEFEF"/>
<circle cx="1609.5" cy="984.5" r="17.5" fill="#EFEFEF"/>
<circle cx="1574.5" cy="1037.5" r="17.5" fill="#EFEFEF"/>
<circle cx="1924.5" cy="625.5" r="17.5" fill="#EFEFEF"/>
<circle cx="1889.5" cy="678.5" r="17.5" fill="#EFEFEF"/>
<circle cx="1854.5" cy="731.5" r="17.5" fill="#EFEFEF"/>
<circle cx="1819.5" cy="784.5" r="17.5" fill="#EFEFEF"/>
<circle cx="1784.5" cy="837.5" r="17.5" fill="#EFEFEF"/>
<circle cx="1749.5" cy="890.5" r="17.5" fill="#EFEFEF"/>
<circle cx="1714.5" cy="943.5" r="17.5" fill="#EFEFEF"/>
<circle cx="1679.5" cy="996.5" r="17.5" fill="#EFEFEF"/>
<circle cx="1644.5" cy="1049.5" r="17.5" fill="#EFEFEF"/>
<circle cx="1924.5" cy="743.5" r="17.5" fill="#EFEFEF"/>
<circle cx="1889.5" cy="796.5" r="17.5" fill="#EFEFEF"/>
<circle cx="1854.5" cy="849.5" r="17.5" fill="#EFEFEF"/>
<circle cx="1819.5" cy="902.5" r="17.5" fill="#EFEFEF"/>
<circle cx="1784.5" cy="955.5" r="17.5" fill="#EFEFEF"/>
<circle cx="1749.5" cy="1008.5" r="17.5" fill="#EFEFEF"/>
<circle cx="1714.5" cy="1061.5" r="17.5" fill="#EFEFEF"/>
<circle cx="1924.5" cy="861.5" r="17.5" fill="#EFEFEF"/>
<circle cx="1889.5" cy="914.5" r="17.5" fill="#EFEFEF"/>
<circle cx="1854.5" cy="967.5" r="17.5" fill="#EFEFEF"/>
<circle cx="1819.5" cy="1020.5" r="17.5" fill="#EFEFEF"/>
<circle cx="1784.5" cy="1073.5" r="17.5" fill="#EFEFEF"/>
<circle cx="1924.5" cy="979.5" r="17.5" fill="#EFEFEF"/>
<circle cx="1889.5" cy="1032.5" r="17.5" fill="#EFEFEF"/>
<circle cx="1854.5" cy="1085.5" r="17.5" fill="#EFEFEF"/>
<path d="M365.533 427.632C288.73 298.634 272.446 188.527 142.795 186.592C49.0772 185.193 -196.41 280.161 -266.418 348.403C-358.715 438.372 -338.887 459.897 -289.928 522.377C-244.2 580.733 -145.912 630.601 -99.3693 647.349C-23.2626 674.736 18.8143 697.687 95.3296 718.804C158.895 736.347 197.393 751.698 257.394 751.3C307.299 750.969 337.202 748.209 373.634 727.306C420.644 700.334 437.661 670.268 442.594 616.65C448.848 548.682 408.679 500.1 365.533 427.632Z" fill="#E6E6FA"/>
<path d="M365.533 427.632C288.73 298.634 272.446 188.527 142.795 186.592C49.0772 185.193 -196.41 280.161 -266.418 348.403C-358.715 438.372 -338.887 459.897 -289.928 522.377C-244.2 580.733 -145.912 630.601 -99.3693 647.349C-23.2626 674.736 18.8143 697.687 95.3296 718.804C158.895 736.347 197.393 751.698 257.394 751.3C307.299 750.969 337.202 748.209 373.634 727.306C420.644 700.334 437.661 670.268 442.594 616.65C448.848 548.682 408.679 500.1 365.533 427.632Z" fill="#EFEFEF"/>
</g>
<defs>
<clipPath id="clip0_692_189">
<rect width="1920" height="1080" fill="white"/>
</clipPath>
</defs>
</svg>
