<svg width="423" height="157" viewBox="0 0 423 157" fill="none" xmlns="http://www.w3.org/2000/svg">
<g clip-path="url(#clip0_692_96)">
<g filter="url(#filter0_ddi_692_96)">
<path d="M165.228 65.0446C164.458 62.6664 164.281 61.1376 163.073 58.8491C162.1 57.0073 161.448 55.6262 160.039 53.4852C158.256 50.7787 156.887 48.7066 154.477 46.701C151.54 44.2573 149.485 42.5245 145.988 40.2066C142.901 38.1604 138.173 36.4977 138.173 36.4977C138.173 36.4977 133.55 34.7556 130.442 34.4256C126.759 34.0347 124.548 34.1552 120.988 35.1784C118.307 35.9493 116.715 36.4694 114.496 38.1604C112.201 39.9084 110.862 41.1952 108.774 43.2209C107.101 44.8442 106.596 45.7283 105.358 48.1563C104.531 49.78 104.254 50.9901 104.734 52.6467C105.004 53.5817 106.026 54.429 106.934 54.7795C108.934 55.5514 109.553 55.2081 111.976 55.6378C111.976 55.6378 115.931 56.1816 118.376 56.8958C120.994 57.6605 122.369 58.3794 124.86 59.4908C127.701 60.7586 129.404 61.3189 131.984 63.0575C134.712 64.896 136.186 66.1213 138.266 68.6704C139.62 70.3297 140.852 71.5682 141.973 73.3929C143.404 75.7212 143.827 76.7664 144.704 79.3543C145.814 82.6262 146.034 84.7446 145.53 88.1626C145.41 88.9798 145.103 90.2343 145.103 90.2343C145.103 90.2343 154.136 83.815 160.459 80.6591C163.073 79.3543 165.228 79.3543 165.968 76.2869C166.373 74.6077 165.972 71.8636 165.972 71.8636C165.972 71.8636 166.065 67.6304 165.228 65.0446Z" fill="#FFB703"/>
</g>
<g filter="url(#filter1_ddi_692_96)">
<path d="M52.1857 72.1355C52.9558 74.5136 53.1322 76.0425 54.3406 78.3309C55.3131 80.1728 55.9653 81.5539 57.3751 83.6949C59.1573 86.4014 59.8079 87.4998 62.9366 90.479C66.0653 93.4582 67.9287 94.6556 71.4258 96.9735C73.9509 98.6471 79.2403 100.682 79.2403 100.682C79.2403 100.682 83.8635 102.424 86.972 102.754C90.6547 103.145 92.8659 103.025 96.4251 102.002C99.1068 101.231 100.399 101.066 102.918 99.0197C105.438 96.9735 106.782 96.1656 108.639 93.9592C110.141 92.1759 110.822 90.9671 112.055 89.0238C113.032 87.4852 113.16 86.19 112.68 84.5334C112.409 83.5984 111.388 82.7511 110.48 82.4006C108.479 81.6287 107.86 81.972 105.438 81.5422C105.438 81.5422 101.483 80.9984 99.0379 80.2843C96.4198 79.5196 94.9543 79.1041 92.4635 77.9928C89.6223 76.725 88.01 75.8612 85.4298 74.1226C82.7014 72.2841 81.2272 71.0588 79.1472 68.5097C77.7932 66.8503 76.5619 65.6119 75.4407 63.7872C74.0101 61.4589 73.5867 60.4137 72.7091 57.8258C71.5996 54.5539 71.38 52.4355 71.8836 49.0175C72.004 48.2003 72.3102 46.9458 72.3102 46.9458L56.9038 57.0904C56.9038 57.0904 55.2516 58.0851 54.2666 58.8269C52.1857 60.394 51.8461 62.5822 51.4418 65.3165C51.0501 67.9665 51.3485 69.5497 52.1857 72.1355Z" fill="#6A994E"/>
</g>
<g filter="url(#filter2_ddi_692_96)">
<path d="M105.469 12.762C103.043 13.3641 101.605 13.8544 99.2734 14.9165C97.0831 15.9144 96.0502 16.541 93.9089 17.9506C91.2022 19.7325 90.5995 20.3992 87.1242 23.5114C84.2782 26.0602 82.9474 28.503 80.6293 31.9997C78.9555 34.5245 76.9203 39.8134 76.9203 39.8134C76.9203 39.8134 75.1781 44.4362 74.8482 47.5444C74.4573 51.2268 74.5779 53.4378 75.6013 56.9968C76.3724 59.6783 77.267 61.1927 78.5839 63.4893C80.0186 65.9915 81.4384 67.3526 83.6452 69.2102C85.4288 70.7116 86.4305 71.2608 88.5813 72.626C90.7321 73.9912 91.4154 73.7307 93.0722 73.2509C94.0073 72.9801 94.8547 71.959 95.2051 71.0509C95.9771 69.0505 95.6337 68.4315 96.0635 66.0091C96.0635 66.0091 96.6072 62.0547 97.3213 59.6101C98.086 56.9922 98.805 55.6171 99.9165 53.1265C101.184 50.2855 101.745 48.5832 103.483 46.0033C105.322 43.2751 106.547 41.8012 109.097 39.7214C110.756 38.3676 111.995 37.1364 113.82 36.0154C116.148 34.5849 117.193 34.1617 119.782 33.2842C123.054 32.1749 125.172 31.9553 128.591 32.459C129.408 32.5795 130.663 32.8857 130.663 32.8857C130.663 32.8857 124.479 23.4964 120.516 17.4802C119.838 16.4504 119.659 15.708 118.78 14.8432C116.919 13.0127 115.054 12.0185 112.289 12.0184C109.8 12.0183 108.467 12.0183 105.469 12.762Z" fill="#D8101F"/>
</g>
<g filter="url(#filter3_ddi_692_96)">
<path d="M111.917 124.39C114.295 123.62 115.823 123.443 118.111 122.235C119.953 121.262 121.333 120.61 123.474 119.2C126.18 117.417 128.252 116.048 130.257 113.637C132.7 110.7 134.433 108.644 136.75 105.147C138.424 102.621 140.459 97.3313 140.459 97.3313C140.459 97.3313 142.201 92.7076 142.531 89.5987C142.922 85.9157 142.802 83.7042 141.779 80.1446C141.008 77.4627 140.46 76.6578 138.798 73.6512C137.402 71.1269 135.944 69.7873 133.739 67.9296C131.956 66.4281 130.747 65.7473 128.804 64.5135C127.266 63.5368 125.971 63.4088 124.315 63.8889C123.38 64.1599 122.533 65.1812 122.183 66.0895C121.411 68.0904 121.754 68.7094 121.324 71.1323C121.324 71.1323 120.78 75.0874 120.066 77.5326C119.302 80.151 119.109 80.9256 118.113 84.1258C117.188 87.0968 116.048 88.7458 114.31 91.3263C112.472 94.0551 110.842 95.3456 108.293 97.426C106.634 98.7802 105.396 100.012 103.572 101.133C101.244 102.564 100.199 102.987 97.6114 103.865C94.3402 104.975 92.2223 105.195 88.8051 104.691C87.9881 104.571 86.7338 104.265 86.7338 104.265L96.8754 119.672C96.8754 119.672 97.8756 121.32 98.6114 122.31C100.712 125.135 105.099 125.134 105.099 125.134C105.099 125.134 109.332 125.228 111.917 124.39Z" fill="#2A9D8F"/>
</g>
<g clip-path="url(#clip1_692_96)">
<path d="M120.374 90.2226C119.751 90.4898 119.335 91.1874 119.201 92.1671L119.112 92.939L117.153 92.9983C115.06 93.0577 114.659 93.1765 113.917 93.9632C113.086 94.839 113.056 95.0468 113.056 100.361C113.056 105.111 113.071 105.244 113.398 105.883C113.576 106.239 113.976 106.744 114.288 106.981L114.867 107.441L118.726 107.486C122.883 107.53 123.061 107.501 122.972 106.788C122.898 106.105 122.482 106.031 118.875 106.031C116.886 106.031 115.446 105.972 115.268 105.883C114.63 105.541 114.541 105.037 114.541 101.875V98.9062H118.177H121.814V99.5444C121.814 100.554 122.363 101.088 123.001 100.687C123.12 100.613 123.254 100.227 123.298 99.7671L123.373 98.9804L126.965 98.9358L130.572 98.9062V99.871C130.572 100.732 130.616 100.851 130.943 101.073C131.284 101.296 131.344 101.296 131.685 101.073L132.056 100.836V98.1491C132.056 95.2398 131.952 94.7648 131.195 93.9632C130.453 93.1765 130.067 93.0577 127.87 92.9983L125.822 92.939V92.1671C125.822 91.2171 125.421 90.5046 124.708 90.2077C124.026 89.9257 121.042 89.9257 120.374 90.2226ZM124.1 91.5733C124.263 91.6327 124.337 91.8554 124.337 92.3155V92.9687H122.556H120.775V92.3304C120.775 91.9741 120.819 91.6327 120.879 91.5882C120.998 91.4546 123.788 91.4546 124.1 91.5733ZM130.082 94.928C130.423 95.2843 130.498 95.4921 130.542 96.3827L130.601 97.4218H122.556H114.511L114.57 96.3827C114.63 95.2843 114.971 94.6905 115.639 94.5569C115.802 94.5124 119.038 94.4976 122.808 94.5124L129.681 94.5273L130.082 94.928Z" fill="black"/>
<path d="M125.896 101.266C123.358 102.439 123.432 106.209 126 107.278C126.668 107.56 127.959 107.575 128.568 107.308C128.998 107.115 129.028 107.13 130.023 108.065C131.076 109.044 131.403 109.178 131.804 108.733C132.219 108.273 132.101 107.976 131.106 106.952C130.186 105.972 130.171 105.942 130.364 105.512C130.854 104.413 130.483 102.677 129.592 101.845C128.672 100.984 127.054 100.732 125.896 101.266ZM128.568 102.988C129.028 103.448 129.087 103.612 129.087 104.25C129.087 104.888 129.028 105.052 128.568 105.512C128.108 105.972 127.944 106.031 127.306 106.031C126.668 106.031 126.505 105.972 126.044 105.512C125.584 105.052 125.525 104.888 125.525 104.25C125.525 103.612 125.584 103.448 126.044 102.988C126.505 102.528 126.668 102.469 127.306 102.469C127.944 102.469 128.108 102.528 128.568 102.988Z" fill="black"/>
</g>
<path fill-rule="evenodd" clip-rule="evenodd" d="M45 48.5948C44.4477 48.5948 44 48.1471 44 47.5948L44 -0.401794H46L46 47.5948C46 48.1471 45.5523 48.5948 45 48.5948Z" fill="#00477D" fill-opacity="0.82"/>
<path fill-rule="evenodd" clip-rule="evenodd" d="M46.0667 46.995C45.5144 46.995 45.0667 46.5473 45.0667 45.995L45.0667 -2.00165H47.0667L47.0667 45.995C47.0667 46.5473 46.6189 46.995 46.0667 46.995Z" fill="#00477D" fill-opacity="0.82"/>
<path fill-rule="evenodd" clip-rule="evenodd" d="M47.1333 45.395C46.581 45.395 46.1333 44.9473 46.1333 44.395L46.1333 -3.60162H48.1333L48.1333 44.395C48.1333 44.9473 47.6856 45.395 47.1333 45.395Z" fill="#00477D" fill-opacity="0.82"/>
<path fill-rule="evenodd" clip-rule="evenodd" d="M48.1997 44.3285C47.6474 44.3285 47.1997 43.8808 47.1997 43.3285L47.1997 -4.66815H49.1997L49.1997 43.3285C49.1997 43.8808 48.752 44.3285 48.1997 44.3285Z" fill="#00477D" fill-opacity="0.82"/>
<path fill-rule="evenodd" clip-rule="evenodd" d="M49.2664 42.7286C48.7141 42.7286 48.2664 42.2809 48.2664 41.7286L48.2664 -13.2009H50.2664L50.2664 41.7286C50.2664 42.2809 49.8186 42.7286 49.2664 42.7286Z" fill="#00477D" fill-opacity="0.82"/>
<path fill-rule="evenodd" clip-rule="evenodd" d="M50.333 41.662C49.7807 41.662 49.333 41.2143 49.333 40.662L49.333 -16.4007H51.333L51.333 40.662C51.333 41.2143 50.8853 41.662 50.333 41.662Z" fill="#00477D" fill-opacity="0.82"/>
<path fill-rule="evenodd" clip-rule="evenodd" d="M51.3997 40.5955C50.8474 40.5955 50.3997 40.1477 50.3997 39.5955L50.3997 -19.6004H52.3997L52.3997 39.5955C52.3997 40.1477 51.9519 40.5955 51.3997 40.5955Z" fill="#00477D" fill-opacity="0.82"/>
<path fill-rule="evenodd" clip-rule="evenodd" d="M52.4661 39.5288C51.9138 39.5288 51.4661 39.0811 51.4661 38.5288L51.4661 -22.8002H53.4661L53.4661 38.5288C53.4661 39.0811 53.0183 39.5288 52.4661 39.5288Z" fill="#00477D" fill-opacity="0.82"/>
<path fill-rule="evenodd" clip-rule="evenodd" d="M53.5327 38.4623C52.9804 38.4623 52.5327 38.0146 52.5327 37.4623L52.5327 -26H54.5327L54.5327 37.4623C54.5327 38.0146 54.085 38.4623 53.5327 38.4623Z" fill="#00477D" fill-opacity="0.82"/>
<path fill-rule="evenodd" clip-rule="evenodd" d="M63.1321 48.5948C63.6844 48.5948 64.1321 48.1471 64.1321 47.5948L64.1321 -0.401794H62.1321L62.1321 47.5948C62.1321 48.1471 62.5798 48.5948 63.1321 48.5948Z" fill="#00477D" fill-opacity="0.82"/>
<path fill-rule="evenodd" clip-rule="evenodd" d="M62.0654 46.995C62.6177 46.995 63.0654 46.5473 63.0654 45.995L63.0654 -2.00165H61.0654L61.0654 45.995C61.0654 46.5473 61.5131 46.995 62.0654 46.995Z" fill="#00477D" fill-opacity="0.82"/>
<path fill-rule="evenodd" clip-rule="evenodd" d="M60.9988 45.395C61.5511 45.395 61.9988 44.9473 61.9988 44.395L61.9988 -3.60162H59.9988L59.9988 44.395C59.9988 44.9473 60.4465 45.395 60.9988 45.395Z" fill="#00477D" fill-opacity="0.82"/>
<path fill-rule="evenodd" clip-rule="evenodd" d="M59.9324 44.3285C60.4847 44.3285 60.9324 43.8808 60.9324 43.3285L60.9324 -4.66815H58.9324L58.9324 43.3285C58.9324 43.8808 59.3801 44.3285 59.9324 44.3285Z" fill="#00477D" fill-opacity="0.82"/>
<path fill-rule="evenodd" clip-rule="evenodd" d="M58.8657 42.7286C59.418 42.7286 59.8657 42.2809 59.8657 41.7286L59.8657 -13.2009H57.8657L57.8657 41.7286C57.8657 42.2809 58.3134 42.7286 58.8657 42.7286Z" fill="#00477D" fill-opacity="0.82"/>
<path fill-rule="evenodd" clip-rule="evenodd" d="M57.7991 41.662C58.3514 41.662 58.7991 41.2143 58.7991 40.662L58.7991 -16.4007H56.7991L56.7991 40.662C56.7991 41.2143 57.2468 41.662 57.7991 41.662Z" fill="#00477D" fill-opacity="0.82"/>
<path fill-rule="evenodd" clip-rule="evenodd" d="M56.7324 40.5955C57.2847 40.5955 57.7324 40.1477 57.7324 39.5955L57.7324 -19.6004H55.7324L55.7324 39.5955C55.7324 40.1477 56.1801 40.5955 56.7324 40.5955Z" fill="#00477D" fill-opacity="0.82"/>
<path fill-rule="evenodd" clip-rule="evenodd" d="M55.666 39.5288C56.2183 39.5288 56.666 39.0811 56.666 38.5288L56.666 -22.8002H54.666L54.666 38.5288C54.666 39.0811 55.1137 39.5288 55.666 39.5288Z" fill="#00477D" fill-opacity="0.82"/>
<path fill-rule="evenodd" clip-rule="evenodd" d="M54.5994 38.4623C55.1517 38.4623 55.5994 38.0146 55.5994 37.4623L55.5994 -26H53.5994L53.5994 37.4623C53.5994 38.0146 54.0471 38.4623 54.5994 38.4623Z" fill="#00477D" fill-opacity="0.82"/>
<g clip-path="url(#clip2_692_96)">
<path d="M70.0429 69.3117C69.4194 69.7055 69.1733 70.1156 69.1733 70.8047C69.1733 72.15 70.4694 73.0523 71.6835 72.5437C72.4382 72.232 72.7827 71.707 72.7827 70.8539C72.7827 69.4265 71.2405 68.557 70.0429 69.3117ZM71.6507 69.8367C72.4382 70.2469 72.3726 71.5594 71.5358 71.9367C70.9616 72.1992 70.7483 72.1664 70.2562 71.7726C69.9444 71.5265 69.8296 71.2805 69.8296 70.8703C69.8296 69.8859 70.7647 69.3609 71.6507 69.8367Z" fill="black"/>
<path d="M76.228 70.8867C76.228 71.018 76.3429 71.1328 76.4741 71.1328C76.6054 71.1328 76.7202 71.018 76.7202 70.8867C76.7202 70.7555 76.6054 70.6406 76.4741 70.6406C76.3429 70.6406 76.228 70.7555 76.228 70.8867Z" fill="black"/>
<path d="M74.5546 71.9532C74.4397 72.1336 74.2592 72.2813 74.1444 72.2813C73.8163 72.2813 73.8983 72.6586 74.3249 73.0524C74.7514 73.4625 75.0796 73.5446 75.0796 73.2493C75.0796 73.1508 75.2436 72.9375 75.4569 72.7571L75.8178 72.4453L75.4569 72.3469C75.2436 72.2977 75.0796 72.15 75.0796 72.0188C75.0796 71.6414 74.7678 71.5922 74.5546 71.9532Z" fill="black"/>
<path d="M69.0092 73.2656C68.7631 73.3641 68.2217 74.0203 67.6475 74.8734C66.4006 76.793 66.3842 77.2195 67.549 78.7781C68.0248 79.4016 68.5662 80.0906 68.7631 80.3203L69.124 80.7305L68.9108 84.3398C68.7959 86.325 68.7467 88.2609 68.7959 88.6383L68.878 89.3273L68.0084 89.3766C67.3522 89.4094 67.1225 89.4914 67.1225 89.6719C67.1225 89.8852 68.3201 89.918 76.7694 89.9672L86.3998 90V86.7516C86.3998 84.4383 86.3506 83.4539 86.203 83.3062C86.0717 83.175 85.1694 83.1094 83.2006 83.1094C79.8045 83.1094 79.8373 83.093 79.8373 84.8812C79.8373 86.0461 79.6405 86.4398 79.4436 85.6523C79.3615 85.3242 79.0006 84.9797 78.41 84.668C78.3772 84.6516 78.2131 83.5359 78.0326 82.1906C77.6061 79.0242 77.6225 79.057 76.999 78.6797C76.5889 78.4172 76.1787 78.3516 75.1287 78.3516H73.767V76.3828V74.4141L73.2256 73.807L72.6678 73.2164L71.0436 73.1672C70.1576 73.1344 69.2389 73.1836 69.0092 73.2656ZM72.6842 74.1023C73.0944 74.4305 73.1108 74.4797 73.1108 76.3992V78.3516H71.4537H69.8131L69.8787 76.9898C69.9115 76.2516 69.9936 75.4805 70.0756 75.2672C70.3053 74.5945 69.7311 74.8734 68.9436 75.825C68.5334 76.3336 68.1889 76.793 68.1889 76.8586C68.1889 76.9242 68.435 77.3672 68.7467 77.8594C69.3045 78.7289 69.3045 78.7617 68.9764 78.975C68.6975 79.1883 68.6319 79.1719 68.3858 78.8273C67.6311 77.8102 67.2045 77.1375 67.2045 76.9734C67.2045 76.7602 68.5662 74.4797 68.96 74.0367C69.1733 73.807 69.5014 73.7578 70.7319 73.7578C72.0115 73.7578 72.3069 73.807 72.6842 74.1023ZM69.1733 76.8914C69.1733 77.0719 69.1076 77.1867 69.0092 77.1211C68.9272 77.0719 68.8944 76.9242 68.96 76.793C69.0748 76.4484 69.1733 76.4812 69.1733 76.8914ZM76.7694 79.2539C77.0647 79.5328 77.1303 79.8609 77.3764 81.9609C77.4748 82.8141 77.5897 83.7164 77.6389 83.9461C77.7209 84.3398 77.6553 84.3891 77.1303 84.4875C76.7858 84.5531 76.4905 84.5695 76.4412 84.5367C76.4084 84.4875 76.2444 83.7 76.0967 82.7648L75.8014 81.0586H75.3256C75.0467 81.075 74.2592 81.1242 73.5537 81.1898L72.2576 81.3211L72.3725 80.6648C72.4709 80.0578 72.4545 79.9922 72.1428 79.9922C71.9459 79.9922 71.7983 80.0742 71.7983 80.1562C71.7983 80.3859 70.8303 86.85 70.7155 87.4242C70.6334 87.818 70.5514 87.8672 69.9608 87.8672H69.2881L69.3865 86.5875C69.4522 85.8984 69.5342 84.3234 69.5998 83.093C69.6983 80.9437 69.7311 80.8453 70.092 80.6648C70.5514 80.468 70.7483 79.8281 70.4858 79.3523C70.3053 79.0078 70.3217 79.0078 73.4225 79.0078C75.9655 79.0078 76.5725 79.057 76.7694 79.2539ZM69.9608 79.7133C70.0428 80.0742 69.567 80.2547 69.2389 79.9758C69.0092 79.7789 69.0092 79.7461 69.2717 79.5492C69.6326 79.2867 69.8951 79.3523 69.9608 79.7133ZM75.3256 81.9937C75.3748 82.207 75.5389 83.2078 75.703 84.2086L76.0147 86.0625H75.2272C74.0787 86.0625 73.9311 86.2922 73.9311 87.9656V89.3437H73.1108C72.4053 89.3437 72.2905 89.2945 72.2905 89.032C72.2905 88.8516 72.0608 88.5398 71.7819 88.3102L71.2733 87.9164L71.7162 84.9797C71.9623 83.3719 72.1756 82.0266 72.192 81.9937C72.2412 81.9609 74.2756 81.6984 74.9483 81.6492C75.1287 81.6492 75.2764 81.7805 75.3256 81.9937ZM85.8748 86.5875L85.9076 89.3437H83.2006H80.4936V86.5547V83.7656L83.1678 83.7984L85.8256 83.8477L85.8748 86.5875ZM78.3772 85.357C79.0826 85.7836 78.8694 85.9805 77.6881 85.9805C76.6709 85.9805 76.6381 85.9641 76.5889 85.5211C76.5397 85.0945 76.5725 85.0781 77.2123 85.0781C77.5897 85.0781 78.1147 85.2094 78.3772 85.357ZM79.8373 88.0312V89.3437H77.1303H74.4233V88.1461C74.4233 87.4734 74.4725 86.8828 74.5381 86.8336C74.5873 86.768 75.8178 86.7187 77.2451 86.7187H79.8373V88.0312ZM71.3553 88.7531C71.8967 89.1633 71.667 89.3437 70.5678 89.3437C69.9772 89.3437 69.5014 89.2781 69.5014 89.1961C69.5014 89.1141 69.4522 88.9336 69.403 88.7859C69.3209 88.5727 69.4522 88.5234 70.174 88.5234C70.6662 88.5234 71.1912 88.6383 71.3553 88.7531Z" fill="black"/>
</g>
<g clip-path="url(#clip3_692_96)">
<path d="M89.9468 22.8906C89.6944 23.143 89.6499 23.3805 89.6499 24.3453C89.6499 25.3695 89.6944 25.5477 89.9913 25.8297C90.3327 26.1562 90.4218 26.1562 95.0085 26.1562H99.6991L100.011 25.8148C100.293 25.518 100.337 25.2953 100.337 24.3602C100.337 23.3805 100.293 23.2023 99.9812 22.9055C99.6843 22.6234 99.5062 22.5789 98.6155 22.6234C98.0515 22.6531 97.5913 22.7273 97.5913 22.8164C97.5913 22.8906 98.096 22.9945 98.7046 23.0391L99.8179 23.1133V24.375V25.6367H94.9937H90.1694V24.375V23.1133L93.6577 23.0391C98.289 22.9352 98.289 22.6828 93.6577 22.6234C90.4069 22.5938 90.2288 22.6086 89.9468 22.8906Z" fill="black"/>
<path d="M91.2827 23.5586C91.2827 23.7516 91.5202 23.7813 93.0343 23.7516C95.3054 23.6922 95.2757 23.425 92.9897 23.3657C91.5202 23.336 91.2827 23.3657 91.2827 23.5586Z" fill="black"/>
<path d="M101.674 24.0039C101.288 24.4789 101.866 25.2062 102.386 24.8797C102.891 24.5531 102.713 23.7812 102.119 23.7812C101.97 23.7812 101.777 23.8851 101.674 24.0039ZM102.267 24.375C102.267 24.4492 102.208 24.5234 102.119 24.5234C102.045 24.5234 101.97 24.4492 101.97 24.375C101.97 24.2859 102.045 24.2266 102.119 24.2266C102.208 24.2266 102.267 24.2859 102.267 24.375Z" fill="black"/>
<path d="M103.158 24.0039C103.158 24.1969 103.321 24.2266 104.078 24.1969C104.642 24.1672 105.013 24.0782 105.058 23.9594C105.102 23.8258 104.85 23.7813 104.137 23.7813C103.351 23.7813 103.158 23.8258 103.158 24.0039Z" fill="black"/>
<path d="M91.2827 24.375C91.2827 24.4641 91.6983 24.5234 92.2476 24.5234C92.7968 24.5234 93.2124 24.4641 93.2124 24.375C93.2124 24.2859 92.7968 24.2266 92.2476 24.2266C91.6983 24.2266 91.2827 24.2859 91.2827 24.375Z" fill="black"/>
<path d="M103.158 24.7461C103.158 24.9391 103.395 24.9688 104.909 24.9391C107.18 24.8797 107.151 24.6125 104.865 24.5532C103.395 24.5235 103.158 24.5532 103.158 24.7461Z" fill="black"/>
<path d="M103.158 25.9336C103.158 26.1266 103.276 26.1711 103.722 26.1266C104.019 26.0969 104.271 26.0078 104.271 25.9336C104.271 25.8446 104.019 25.7703 103.722 25.7406C103.276 25.6961 103.158 25.7406 103.158 25.9336Z" fill="black"/>
<path d="M101.674 26.3789C101.288 26.8539 101.866 27.5812 102.386 27.2547C102.891 26.9281 102.713 26.1562 102.119 26.1562C101.97 26.1562 101.777 26.2601 101.674 26.3789ZM102.267 26.75C102.267 26.8242 102.208 26.8984 102.119 26.8984C102.045 26.8984 101.97 26.8242 101.97 26.75C101.97 26.6609 102.045 26.6016 102.119 26.6016C102.208 26.6016 102.267 26.6609 102.267 26.75Z" fill="black"/>
<path d="M89.8875 26.9281C89.5461 27.418 89.5757 28.6055 89.9468 28.9766C90.214 29.2438 90.4367 29.2734 92.2179 29.2734C93.2867 29.2734 94.2515 29.2141 94.3406 29.1547C94.9937 28.7242 94.9937 27.1508 94.3406 26.7203C94.2515 26.6609 93.257 26.6016 92.1437 26.6016C90.214 26.6016 90.0953 26.6164 89.8875 26.9281ZM94.1625 27.1359C94.4742 27.4328 94.4742 28.4422 94.1625 28.7391C93.9843 28.932 93.5836 28.9766 92.307 28.9766C91.4015 28.9766 90.5406 28.9023 90.3773 28.8281C89.9914 28.6055 89.9617 27.2844 90.3625 27.0617C90.4961 26.9727 91.357 26.8984 92.2773 26.8984C93.5836 26.8984 93.9843 26.943 94.1625 27.1359Z" fill="black"/>
<path d="M90.496 27.4328C90.3031 27.6258 90.5702 27.7891 91.0749 27.7891C91.4312 27.7891 91.5796 27.7148 91.5796 27.5664C91.5796 27.418 91.4312 27.3438 91.0898 27.3438C90.8077 27.3438 90.5406 27.3883 90.496 27.4328Z" fill="black"/>
<path d="M90.4961 28.175C90.2437 28.4273 90.6593 28.5312 91.8914 28.5312C92.9008 28.5312 93.2273 28.4867 93.1828 28.3383C93.1086 28.1453 90.689 27.9969 90.4961 28.175Z" fill="black"/>
<path d="M95.6468 26.7203C95.3647 26.8984 95.1421 27.4477 95.1421 27.9375C95.1421 28.4273 95.3647 28.9766 95.6468 29.1547C95.7358 29.2141 96.7007 29.2734 97.7843 29.2734C100.13 29.2734 100.337 29.1695 100.337 27.9375C100.337 26.7055 100.13 26.6016 97.7843 26.6016C96.7007 26.6016 95.7358 26.6609 95.6468 26.7203ZM99.6101 27.0469C99.8327 27.1656 99.8921 27.3586 99.8921 27.9375C99.8921 28.9023 99.7288 28.9766 97.7397 28.9766C95.7952 28.9766 95.5874 28.8875 95.5874 28.0117C95.5874 27.0023 95.7804 26.8984 97.6804 26.8984C98.5858 26.8984 99.4468 26.9727 99.6101 27.0469Z" fill="black"/>
<path d="M96.0327 27.5664C96.0327 27.7594 96.1515 27.8039 96.5968 27.7594C96.8937 27.7297 97.146 27.6406 97.146 27.5664C97.146 27.4774 96.8937 27.4031 96.5968 27.3735C96.1515 27.3289 96.0327 27.3735 96.0327 27.5664Z" fill="black"/>
<path d="M96.0327 28.3086C96.0327 28.4867 96.2851 28.5312 97.3687 28.5312C98.4522 28.5312 98.7046 28.4867 98.7046 28.3086C98.7046 28.1305 98.4522 28.0859 97.3687 28.0859C96.2851 28.0859 96.0327 28.1305 96.0327 28.3086Z" fill="black"/>
<path d="M103.158 26.75C103.158 26.8391 103.707 26.8984 104.494 26.8984C105.28 26.8984 105.83 26.8391 105.83 26.75C105.83 26.6609 105.28 26.6016 104.494 26.6016C103.707 26.6016 103.158 26.6609 103.158 26.75Z" fill="black"/>
<path d="M103.158 27.5664C103.158 27.7594 103.321 27.7891 104.078 27.7594C104.642 27.7297 105.013 27.6407 105.058 27.5219C105.102 27.3883 104.85 27.3438 104.137 27.3438C103.351 27.3438 103.158 27.3883 103.158 27.5664Z" fill="black"/>
<path d="M89.9468 30.0156C89.6796 30.2828 89.6499 30.5054 89.6499 32.2421C89.6499 34.1273 89.6647 34.2015 90.021 34.5578C90.3921 34.9289 90.4366 34.9437 92.3218 34.8843C94.8452 34.825 94.7562 34.914 94.8155 32.3906C94.8749 30.5054 94.8601 30.4609 94.489 30.0898C94.1327 29.7335 94.0585 29.7187 92.1733 29.7187C90.4366 29.7187 90.214 29.7484 89.9468 30.0156ZM94.2218 30.3421C94.4741 30.5945 94.4741 34.0382 94.2218 34.2906C93.9694 34.5429 90.5257 34.5429 90.2733 34.2906C90.0804 34.0976 90.0062 30.446 90.1991 30.2679C90.3772 30.075 94.0288 30.1492 94.2218 30.3421Z" fill="black"/>
<path d="M93.1828 31.5743C92.3812 32.3313 92.0695 32.3907 91.5797 31.8711C91.2234 31.5 90.6297 31.3813 90.4664 31.6485C90.4219 31.7227 90.4664 31.7969 90.6 31.7969C90.7187 31.7969 91.0008 31.9602 91.2383 32.1532C92.0547 32.836 92.3664 32.8063 93.2867 31.9453C94.0437 31.218 94.2664 30.9063 93.9992 30.9063C93.925 30.9063 93.5687 31.218 93.1828 31.5743Z" fill="black"/>
<path d="M90.4962 33.3703C90.2438 33.6375 90.704 33.7266 92.2626 33.7266C93.6727 33.7266 93.9548 33.682 93.9548 33.5039C93.9548 33.3258 93.6727 33.2812 92.2774 33.2812C91.3423 33.2812 90.5407 33.3258 90.4962 33.3703Z" fill="black"/>
<path d="M95.4984 30.0898C95.1273 30.4609 95.1125 30.5054 95.1718 32.3906C95.2312 34.914 95.1421 34.825 97.6656 34.8843C99.5507 34.9437 99.5953 34.9289 99.9664 34.5578C100.308 34.2164 100.337 34.0828 100.337 32.7617C100.337 31.6039 100.293 31.3515 100.115 31.3515C99.9367 31.3515 99.8921 31.6039 99.8921 32.732C99.8921 33.6078 99.8328 34.1718 99.714 34.2906C99.4617 34.5429 96.0179 34.5429 95.7656 34.2906C95.5132 34.0382 95.5132 30.5945 95.7656 30.3421C95.8843 30.2234 96.5671 30.164 97.8437 30.164C99.7437 30.164 99.7585 30.164 99.8921 30.5351C99.9664 30.7429 100.1 30.9062 100.189 30.9062C100.456 30.9062 100.337 30.3718 99.996 30.0453C99.6843 29.7484 99.4914 29.7187 97.7546 29.7187C95.9289 29.7187 95.8546 29.7335 95.4984 30.0898Z" fill="black"/>
<path d="M101.109 29.9563C100.798 30.1641 100.783 30.2828 100.783 32.2125C100.783 33.3258 100.842 34.3203 100.901 34.4094C101.08 34.6914 101.629 34.9141 102.119 34.9141C102.608 34.9141 103.158 34.6914 103.336 34.4094C103.395 34.3203 103.455 33.3555 103.455 32.2719C103.455 30.5055 103.425 30.2828 103.158 30.0156C102.787 29.6445 101.599 29.6148 101.109 29.9563ZM103.009 30.4461C103.083 30.6094 103.158 31.4703 103.158 32.3758C103.158 34.2461 103.054 34.4688 102.119 34.4688C101.183 34.4688 101.08 34.2461 101.08 32.3758C101.08 30.3273 101.154 30.1641 102.119 30.1641C102.698 30.1641 102.891 30.2234 103.009 30.4461Z" fill="black"/>
<path d="M101.629 30.55C101.569 30.6094 101.525 31.2476 101.525 31.975C101.525 32.9695 101.569 33.2961 101.718 33.2515C101.837 33.207 101.911 32.7765 101.941 31.9453C101.985 30.8023 101.866 30.3125 101.629 30.55Z" fill="black"/>
<path d="M102.356 30.5648C102.312 30.6094 102.267 30.8766 102.267 31.1586C102.267 31.5 102.341 31.6484 102.49 31.6484C102.638 31.6484 102.712 31.5 102.712 31.1438C102.712 30.6391 102.549 30.3719 102.356 30.5648Z" fill="black"/>
<path d="M104.197 30.0156C103.915 30.2976 103.9 30.5055 103.9 35.0328V39.768L104.241 40.0797C104.598 40.4211 105.087 40.525 105.087 40.2578C105.087 40.1687 104.924 40.0351 104.716 39.9609L104.345 39.8125L104.375 35.0328L104.419 30.2383H105.681H106.943V35.0625V39.8867L106.245 39.9312C105.741 39.9609 105.533 40.0351 105.533 40.1984C105.533 40.5695 106.75 40.4656 107.136 40.0648C107.462 39.7234 107.462 39.6344 107.462 35.0476V30.357L107.121 30.0453C106.824 29.7633 106.601 29.7187 105.637 29.7187C104.687 29.7187 104.449 29.7633 104.197 30.0156Z" fill="black"/>
<path d="M96.478 31.1883C96.1069 31.886 97.0124 32.4204 97.428 31.7524C97.5467 31.5743 97.5467 31.4258 97.428 31.2329C97.1905 30.8618 96.671 30.8321 96.478 31.1883ZM97.146 31.5C97.1905 31.5743 97.1311 31.6485 97.0124 31.6485C96.8788 31.6485 96.7749 31.5743 96.7749 31.5C96.7749 31.411 96.8342 31.3516 96.9085 31.3516C96.9975 31.3516 97.1014 31.411 97.146 31.5Z" fill="black"/>
<path d="M105.533 32.3164C105.533 32.8656 105.592 33.2812 105.681 33.2812C105.77 33.2812 105.83 32.8656 105.83 32.3164C105.83 31.7672 105.77 31.3516 105.681 31.3516C105.592 31.3516 105.533 31.7672 105.533 32.3164Z" fill="black"/>
<path d="M106.305 33.0586C106.364 35.3445 106.631 35.3742 106.691 33.0883C106.72 31.5891 106.691 31.3516 106.498 31.3516C106.305 31.3516 106.275 31.5891 106.305 33.0586Z" fill="black"/>
<path d="M97.6656 32.168C97.3836 32.45 97.2203 32.732 97.2797 32.7914C97.3242 32.8508 97.6211 32.6578 97.9031 32.3609C98.2 32.0789 98.3781 31.7969 98.3039 31.7523C98.2149 31.693 97.9328 31.8859 97.6656 32.168Z" fill="black"/>
<path d="M98.1406 32.7171C97.6656 33.1921 98.2594 33.9046 98.8531 33.5781C99.3578 33.3109 99.1352 32.539 98.5563 32.539C98.4227 32.539 98.2445 32.6132 98.1406 32.7171ZM98.7047 33.1476C98.7047 33.2218 98.6453 33.2812 98.5563 33.2812C98.482 33.2812 98.4078 33.1773 98.4078 33.0437C98.4078 32.9249 98.482 32.8656 98.5563 32.9101C98.6453 32.9546 98.7047 33.0585 98.7047 33.1476Z" fill="black"/>
<path d="M90.021 35.5672C89.6648 35.9234 89.6499 35.9976 89.6499 37.8531C89.6499 40.4359 89.6202 40.4062 92.2327 40.4062C94.0585 40.4062 94.1327 40.3914 94.489 40.0351C94.8601 39.664 94.8749 39.6195 94.8155 37.7344C94.7562 35.2109 94.8452 35.3 92.3218 35.2406C90.4366 35.1812 90.3921 35.1961 90.021 35.5672ZM94.2218 35.8344C94.489 36.1015 94.4593 39.575 94.1921 39.7976C94.0585 39.9164 93.3609 39.9609 92.0843 39.9312L90.1694 39.8867L90.1249 37.9719C90.0952 36.6953 90.1398 35.9976 90.2585 35.864C90.4812 35.5969 93.9546 35.5672 94.2218 35.8344Z" fill="black"/>
<path d="M92.1733 37.0664C92.1733 37.2148 92.3366 37.2891 92.6929 37.2891C93.0491 37.2891 93.2124 37.2148 93.2124 37.0664C93.2124 36.918 93.0491 36.8438 92.6929 36.8438C92.3366 36.8438 92.1733 36.918 92.1733 37.0664Z" fill="black"/>
<path d="M90.6296 37.5266C90.4812 37.9274 90.5257 38.1649 90.8226 38.3281C90.9859 38.4024 91.2086 38.4321 91.3421 38.3875C91.6539 38.2688 91.7875 37.7641 91.5796 37.5117C91.3421 37.2149 90.7484 37.2297 90.6296 37.5266ZM91.2828 37.8977C91.2828 37.9719 91.2234 38.0313 91.1343 38.0313C91.0601 38.0313 90.9859 37.9274 90.9859 37.7938C90.9859 37.675 91.0601 37.6156 91.1343 37.6602C91.2234 37.7047 91.2828 37.8086 91.2828 37.8977Z" fill="black"/>
<path d="M92.1733 37.8086C92.1733 37.9867 92.3663 38.0312 93.064 38.0312C93.7616 38.0312 93.9546 37.9867 93.9546 37.8086C93.9546 37.6305 93.7616 37.5859 93.064 37.5859C92.3663 37.5859 92.1733 37.6305 92.1733 37.8086Z" fill="black"/>
<path d="M92.1733 38.625C92.1733 38.7141 92.589 38.7734 93.1382 38.7734C93.6874 38.7734 94.103 38.7141 94.103 38.625C94.103 38.5359 93.6874 38.4766 93.1382 38.4766C92.589 38.4766 92.1733 38.5359 92.1733 38.625Z" fill="black"/>
<path d="M95.7655 35.3594C95.2757 35.5672 95.1421 36.0867 95.1421 37.9719C95.1421 39.5898 95.1569 39.6937 95.5132 40.0351C95.8546 40.3914 95.9437 40.4062 97.7843 40.4062C100.367 40.4062 100.337 40.4359 100.337 37.8234C100.337 36.0273 100.323 35.9234 99.9663 35.582C99.6249 35.2258 99.521 35.2109 97.8585 35.2258C96.8937 35.2258 95.9585 35.2851 95.7655 35.3594ZM99.7288 35.864C99.8476 35.9976 99.8921 36.6953 99.8624 37.9719L99.8179 39.8867L97.903 39.9312C96.6265 39.9609 95.9288 39.9164 95.7952 39.7976C95.528 39.575 95.4983 36.1015 95.7655 35.8344C96.0327 35.5672 99.5062 35.5969 99.7288 35.864Z" fill="black"/>
<path d="M97.5765 36.5766C97.5023 36.6953 97.3241 36.8289 97.1757 36.8883C97.0421 36.9477 96.8788 37.0961 96.8195 37.2297C96.6562 37.6453 96.9827 37.9571 97.6804 38.0313C98.5859 38.1352 98.4968 38.3875 97.5616 38.4469C96.7898 38.4914 96.4187 38.7735 97.1312 38.7735C97.3241 38.7735 97.5171 38.8774 97.5765 38.9961C97.6804 39.2781 97.9624 39.293 97.9624 39.011C97.9624 38.8922 98.1109 38.7735 98.3038 38.7438C98.5265 38.7141 98.6452 38.5805 98.6749 38.343C98.7491 37.8828 98.3632 37.586 97.7101 37.586C97.4429 37.586 97.2202 37.5117 97.2202 37.4375C97.2202 37.3485 97.5616 37.2891 97.9624 37.2891C98.5265 37.2891 98.7046 37.2297 98.7046 37.0664C98.7046 36.9328 98.571 36.8438 98.3929 36.8438C98.2148 36.8438 97.9921 36.7399 97.8882 36.5914C97.7249 36.3836 97.6952 36.3836 97.5765 36.5766Z" fill="black"/>
<path d="M101.302 35.3891C101.139 35.4781 100.961 35.6266 100.901 35.7156C100.842 35.8047 100.783 36.7695 100.783 37.8383C100.783 40.1984 100.887 40.4062 102.119 40.4062C103.351 40.4062 103.455 40.1984 103.455 37.8383C103.455 36.7695 103.395 35.8047 103.336 35.7156C103.024 35.2406 101.881 35.0625 101.302 35.3891ZM103.009 35.9383C103.083 36.1016 103.158 36.9477 103.158 37.8086C103.158 39.7977 103.083 39.9609 102.119 39.9609C101.154 39.9609 101.08 39.7977 101.08 37.7492C101.08 35.8492 101.183 35.6562 102.193 35.6562C102.698 35.6562 102.891 35.7305 103.009 35.9383Z" fill="black"/>
<path d="M101.525 37.4375C101.525 38.5211 101.569 38.7734 101.748 38.7734C101.926 38.7734 101.97 38.5211 101.97 37.4375C101.97 36.3539 101.926 36.1016 101.748 36.1016C101.569 36.1016 101.525 36.3539 101.525 37.4375Z" fill="black"/>
<path d="M102.297 36.6508C102.327 36.9625 102.416 37.2148 102.49 37.2148C102.579 37.2148 102.653 36.9625 102.683 36.6508C102.727 36.2203 102.683 36.1016 102.49 36.1016C102.297 36.1016 102.252 36.2203 102.297 36.6508Z" fill="black"/>
</g>
<path d="M136.712 44.8187C136.075 46.4499 135.287 48.9249 135.344 49.2624C135.419 49.7312 136.262 50.1812 137.125 50.2187C137.462 50.2187 137.837 50.3312 137.969 50.4624C138.137 50.6312 137.669 50.6874 135.719 50.6874H133.244L133.281 56.9124L133.337 63.1562L136.206 63.2124C137.762 63.2312 139.056 63.3062 139.056 63.3624C139.056 63.4187 138.925 63.7187 138.756 64.0187C138.362 64.7874 138.512 65.0874 139.225 64.9749C139.637 64.9187 139.844 64.9749 139.919 65.1999C140.106 65.7062 140.631 65.5374 141.006 64.8437C141.325 64.2812 141.456 64.1874 142.056 64.1874C142.656 64.1874 142.787 64.2812 143.106 64.8437C143.481 65.5562 143.762 65.6499 144.137 65.1999C144.287 65.0124 144.569 64.9374 144.925 64.9937C145.6 65.0874 145.731 64.7687 145.356 64.0187C145.187 63.7187 145.056 63.4187 145.056 63.3624C145.056 63.3062 146.35 63.2312 147.925 63.2124L150.775 63.1562L150.831 56.9124L150.869 50.6874H148.319C146.369 50.6874 145.787 50.6312 145.862 50.4437C145.9 50.3124 146.275 50.2187 146.762 50.1999C147.812 50.1999 148.694 49.7687 148.769 49.2624C148.825 48.8124 147.606 45.1562 147.269 44.7249C146.969 44.3687 145.937 44.5562 145.075 45.1187C143.631 46.0937 140.181 46.1499 139.15 45.2312C138.325 44.4999 136.937 44.2749 136.712 44.8187ZM138.494 45.6437C138.494 45.8499 137.219 49.3937 137.106 49.5249C137.05 49.5624 136.75 49.5062 136.45 49.3749L135.906 49.1499L136.544 47.3499C136.9 46.3374 137.237 45.4374 137.275 45.3062C137.331 45.1374 137.5 45.1187 137.931 45.2687C138.231 45.3812 138.494 45.5499 138.494 45.6437ZM147.55 47.2562L148.206 49.1687L147.644 49.3562C147.325 49.4687 147.025 49.5437 147.006 49.5062C146.894 49.4124 145.619 45.8124 145.619 45.6249C145.619 45.4187 146.612 45.0624 146.762 45.2312C146.819 45.2874 147.175 46.2062 147.55 47.2562ZM140.612 46.5062C140.706 46.5624 140.519 46.7687 140.2 46.9562C138.625 47.9124 140.631 49.4499 142.244 48.5312C142.506 48.3812 142.787 48.2687 142.862 48.2499C143.125 48.2499 145.056 50.1624 145.056 50.4249C145.056 50.8187 144.887 50.7437 144.081 50.0312C143.369 49.3749 142.994 49.3187 142.994 49.8437C142.994 49.9749 143.256 50.3124 143.556 50.5562C144.062 50.9874 144.325 51.6249 143.987 51.6249C143.912 51.6249 143.537 51.3062 143.144 50.9312C142.581 50.3874 142.375 50.2937 142.206 50.4624C142.037 50.6312 142.15 50.8562 142.712 51.4374C143.331 52.0749 143.387 52.1874 143.106 52.2999C142.881 52.3937 142.562 52.2062 142.056 51.7187C141.55 51.2312 141.231 51.0437 141.006 51.1374C140.725 51.2499 140.762 51.3437 141.269 51.8687C141.944 52.5624 142 52.7499 141.587 52.7499C141.419 52.7499 140.537 51.9812 139.619 51.0437L137.95 49.3374L138.531 47.7624L139.094 46.1687L139.787 46.2999C140.162 46.3749 140.537 46.4687 140.612 46.5062ZM145.581 47.7249C145.881 48.5874 146.106 49.3374 146.05 49.4124C145.844 49.7687 145.244 49.4874 144.4 48.6249C143.387 47.5937 142.787 47.4437 141.756 47.9687C141.212 48.2312 140.369 48.1749 140.369 47.8562C140.369 47.5187 142 46.6749 143.087 46.4499C145.037 46.0562 144.944 45.9999 145.581 47.7249ZM139.056 51.5312C139.262 51.7749 139.094 51.8124 137.706 51.8124H136.131L135.85 52.4124C135.587 52.9937 135.362 53.1812 134.706 53.3874C134.406 53.4812 134.369 53.8187 134.369 56.8749V60.2687L135.025 60.5499C135.475 60.7187 135.775 61.0187 135.944 61.4687L136.225 62.1249H137.537C138.25 62.1249 138.906 62.1999 138.962 62.3124C139.037 62.4249 138.156 62.4999 136.45 62.4999H133.806V57.0062C133.806 53.9687 133.862 51.4374 133.937 51.3812C133.994 51.3062 135.137 51.2499 136.431 51.2499C138.325 51.2499 138.869 51.3062 139.056 51.5312ZM150.269 56.9124L150.306 62.4999H147.681C145.956 62.4999 145.075 62.4249 145.15 62.3124C145.206 62.1999 145.844 62.1249 146.537 62.1249C147.869 62.1249 148.15 61.9937 148.281 61.2812C148.319 61.0749 148.656 60.7562 149.05 60.5687L149.744 60.2499V56.8749C149.744 53.8187 149.706 53.4812 149.425 53.3874C148.75 53.1812 148.525 52.9937 148.262 52.4124L147.981 51.8124H146.425C144.981 51.8124 144.662 51.7187 145 51.3624C145.075 51.3062 146.275 51.2687 147.662 51.2874L150.212 51.3437L150.269 56.9124ZM140.594 53.0312C141.156 53.4999 141.944 53.6499 142.15 53.3124C142.206 53.1999 142.506 53.1249 142.806 53.1249C143.106 53.1249 143.462 52.9937 143.631 52.8437C143.837 52.6374 144.362 52.5624 145.712 52.5624C147.437 52.5624 147.512 52.5812 147.719 53.0312C147.831 53.2937 148.169 53.5937 148.469 53.7249L148.994 53.9687V56.8937V59.8187L148.525 60.0249C148.262 60.1562 147.887 60.4937 147.719 60.8124C147.437 61.3187 147.306 61.3749 146.425 61.3749H145.431V60.6062C145.431 58.1687 142.544 56.6124 140.331 57.8499C139.375 58.3937 138.681 59.5562 138.681 60.5874V61.3749H137.687C136.787 61.3749 136.656 61.3187 136.469 60.9062C136.337 60.6437 136 60.2687 135.681 60.0999L135.119 59.7812V56.8749V53.9687L135.644 53.7249C135.944 53.5937 136.281 53.2937 136.394 53.0312C136.6 52.5812 136.675 52.5624 138.325 52.5624C139.881 52.5624 140.087 52.5999 140.594 53.0312ZM143.05 58.2624C143.856 58.5999 144.606 59.4999 144.756 60.3249C144.925 61.2624 144.344 62.5562 143.519 63.0624C142.787 63.5124 141.512 63.5499 140.744 63.1562C139.169 62.3499 138.85 60.1187 140.125 58.8999C141.044 58.0187 141.981 57.8124 143.05 58.2624ZM140.556 64.1124C140.556 64.4687 140.369 64.5249 139.919 64.3187C139.562 64.1499 139.525 64.0374 139.675 63.7937C139.825 63.5312 139.937 63.5124 140.219 63.6812C140.406 63.8124 140.556 63.9999 140.556 64.1124ZM144.437 64.1687C144.306 64.2062 144.1 64.3187 143.987 64.4124C143.819 64.5437 143.706 64.5062 143.631 64.2999C143.556 64.0937 143.65 63.8874 143.856 63.7374C144.156 63.5124 144.231 63.5312 144.419 63.7937C144.606 64.0187 144.606 64.1124 144.437 64.1687Z" fill="black"/>
<path d="M136.675 53.8749C135.981 54.7374 136.094 55.2624 137.05 55.6374C137.631 55.8624 137.762 55.9937 137.575 56.1062C137.275 56.2937 136.806 56.1812 136.806 55.9187C136.806 55.8249 136.675 55.7499 136.525 55.7499C136.075 55.7499 136.206 56.3687 136.769 56.8937L137.294 57.3999L137.819 56.8749C138.531 56.1437 138.456 55.3562 137.631 55.0937C136.975 54.8874 136.769 54.5687 137.237 54.4749C137.406 54.4374 137.612 54.5499 137.669 54.6999C137.819 55.1124 138.306 55.0749 138.306 54.6624C138.287 54.3249 137.5 53.3124 137.237 53.3312C137.162 53.3312 136.9 53.5749 136.675 53.8749Z" fill="black"/>
<path d="M139.131 54.8312C138.869 55.2624 139.431 55.3937 141.231 55.3374C142.825 55.2812 143.087 55.2437 143.144 54.9437C143.2 54.6624 143.012 54.6249 141.231 54.6249C140.012 54.6249 139.225 54.6999 139.131 54.8312Z" fill="black"/>
<path d="M139.15 56.3312C138.85 56.8 139.525 56.875 143.575 56.8375C147.156 56.7812 147.775 56.7437 147.775 56.5C147.775 56.2562 147.156 56.2187 143.519 56.1625C140.575 56.125 139.225 56.1812 139.15 56.3312Z" fill="black"/>
<path d="M140.762 59.2375C139.694 60.1187 139.825 61.8062 141.006 62.5187C141.325 62.7062 141.794 62.875 142.056 62.875C142.75 62.875 143.65 62.2562 143.912 61.5812C144.475 60.25 143.5 58.75 142.056 58.75C141.55 58.75 141.156 58.9 140.762 59.2375ZM142.994 59.875C143.8 60.6813 143.2 62.125 142.056 62.125C141.344 62.125 140.744 61.525 140.744 60.8125C140.744 60.4937 140.912 60.0813 141.119 59.875C141.325 59.6687 141.737 59.5 142.056 59.5C142.375 59.5 142.787 59.6687 142.994 59.875Z" fill="black"/>
<g clip-path="url(#clip4_692_96)">
<path d="M50.4218 10.7703C50.2093 10.9828 49.9039 11.514 49.7312 11.9656L49.4257 12.7757L48.5359 12.8554C47.3273 12.9617 46.8093 13.214 46.5703 13.8117C46.3843 14.2499 46.3843 14.3828 46.5968 15.2859L46.8226 16.2687L46.0257 17.0257C45.1757 17.796 44.9632 18.2476 45.1226 18.8585C45.1624 19.071 45.5742 19.5624 46.0257 19.9742L46.8226 20.7312L46.5968 21.714C46.3843 22.6171 46.3843 22.7499 46.5703 23.1882C46.8093 23.7859 47.3273 24.0382 48.5359 24.1445L49.4257 24.2242L49.7312 25.0343C49.9039 25.4859 50.2093 26.0171 50.4218 26.2296C50.7671 26.5882 50.8867 26.6281 51.4312 26.5749C51.8429 26.5351 52.2546 26.3624 52.6664 26.0968C52.9984 25.8578 53.3968 25.6718 53.5562 25.6718C53.7156 25.6718 54.114 25.8578 54.446 26.0968C54.8578 26.3624 55.2695 26.5351 55.6812 26.5749C56.2257 26.6281 56.3453 26.5882 56.6906 26.2296C56.9031 26.0171 57.2085 25.4859 57.3812 25.0343L57.6867 24.2242L58.5765 24.1445C59.7851 24.0382 60.3031 23.7859 60.5421 23.1882C60.7281 22.7499 60.7281 22.6171 60.5156 21.714L60.2898 20.7312L61.0867 19.9742C62.3617 18.8054 62.3617 18.1945 61.0867 17.0257L60.2898 16.2687L60.5156 15.2859C60.7281 14.3828 60.7281 14.2499 60.5421 13.8117C60.3031 13.214 59.7851 12.9617 58.5765 12.8554L57.6867 12.7757L57.3812 11.9656C57.2085 11.514 56.9031 10.9828 56.6906 10.7703C56.3453 10.4117 56.2257 10.3718 55.6812 10.4249C55.2695 10.4648 54.8578 10.6374 54.446 10.9031C54.114 11.1421 53.7156 11.3281 53.5562 11.3281C53.3968 11.3281 52.9984 11.1421 52.6664 10.9031C52.2546 10.6374 51.8429 10.4648 51.4312 10.4249C50.8867 10.3718 50.7671 10.4117 50.4218 10.7703ZM52.2015 12.2843C52.7195 12.6562 52.9453 12.7226 53.5562 12.7226C54.1671 12.7226 54.3929 12.6562 54.9242 12.2843C55.2695 12.032 55.6414 11.8593 55.7343 11.8992C55.8273 11.939 55.9601 12.1914 56.0531 12.4703C56.4515 13.7718 57.0757 14.2499 58.3906 14.2499C58.789 14.2499 59.1476 14.3031 59.2007 14.3695C59.2406 14.4492 59.1742 14.8609 59.0546 15.2859C58.7226 16.4812 58.8554 16.8796 59.8382 17.7695L60.6617 18.5265L60.3296 18.7921C58.8953 19.9343 58.696 20.3992 59.0546 21.714C59.1742 22.139 59.2406 22.5507 59.2007 22.6304C59.1476 22.6968 58.789 22.7499 58.3906 22.7499C57.0757 22.7499 56.4515 23.2281 56.0531 24.5296C55.9601 24.8085 55.8273 25.0609 55.7343 25.1007C55.6414 25.1406 55.2695 24.9679 54.9242 24.7156C54.021 24.0914 53.0914 24.0914 52.1882 24.7156C51.8429 24.9679 51.471 25.1406 51.3781 25.1007C51.2851 25.0609 51.1523 24.8085 51.0593 24.5296C50.6609 23.2281 50.0367 22.7499 48.7218 22.7499C48.3234 22.7499 47.9648 22.6968 47.9117 22.6304C47.8718 22.5507 47.9382 22.139 48.0578 21.714C48.3898 20.5187 48.257 20.1203 47.2874 19.2437L46.4773 18.4999L47.2874 17.7562C48.257 16.8796 48.3898 16.4812 48.0578 15.2859C47.9382 14.8609 47.8718 14.4492 47.9117 14.3695C47.9648 14.3031 48.3367 14.2499 48.7484 14.2499C49.8109 14.2499 50.3554 13.9445 50.7804 13.1078C50.9664 12.7226 51.1656 12.2976 51.2054 12.1382C51.2984 11.7531 51.471 11.7796 52.2015 12.2843Z" fill="#DCAB31"/>
<path d="M54.353 17.6367L52.6795 19.2969L51.9624 18.5664C51.2319 17.8227 50.7405 17.65 50.3952 17.9953C49.9967 18.3937 50.2225 18.832 51.3514 19.9344C51.9624 20.532 52.5733 21.0234 52.7061 21.0234C52.8389 21.0234 53.8085 20.1602 54.9108 19.0578C56.4514 17.5172 56.8764 17.0258 56.8764 16.7469C56.8764 16.4148 56.4647 15.9766 56.1592 15.9766C56.0928 15.9766 55.2827 16.7203 54.353 17.6367Z" fill="#DCAB31"/>
</g>
<g filter="url(#filter4_d_692_96)">
<path d="M288.488 80H281.384L284.328 66.176L276.744 80H272.392L270.952 65.696L267.88 80H265L269.32 59.68H277.48L278.472 71.136L284.616 59.68H292.84L288.488 80ZM294.944 67.424C296.032 66.8907 297.141 66.5067 298.272 66.272C299.424 66.016 300.704 65.888 302.112 65.888C303.477 65.888 304.608 65.9947 305.504 66.208C306.4 66.4213 307.115 66.7307 307.648 67.136C308.181 67.5413 308.555 68.0213 308.768 68.576C308.981 69.1307 309.088 69.76 309.088 70.464C309.088 70.8693 309.056 71.3067 308.992 71.776C308.949 72.2453 308.896 72.64 308.832 72.96L307.328 80H302.176L301.6 77.952H301.408C300.725 78.6987 299.925 79.2747 299.008 79.68C298.112 80.064 297.216 80.256 296.32 80.256C295.808 80.256 295.307 80.1813 294.816 80.032C294.325 79.8827 293.888 79.6587 293.504 79.36C293.12 79.04 292.811 78.6453 292.576 78.176C292.341 77.6853 292.224 77.0987 292.224 76.416C292.224 75.3067 292.523 74.432 293.12 73.792C293.739 73.1307 294.539 72.64 295.52 72.32C296.523 71.9787 297.643 71.7653 298.88 71.68C300.139 71.5947 301.397 71.552 302.656 71.552C302.699 71.3387 302.752 71.04 302.816 70.656C302.88 70.2507 302.912 69.8987 302.912 69.6C302.912 69.216 302.805 68.864 302.592 68.544C302.4 68.2027 301.984 68.032 301.344 68.032C300.597 68.032 300.043 68.256 299.68 68.704C299.339 69.1307 299.115 69.6533 299.008 70.272H294.336L294.944 67.424ZM302.304 73.056H301.728C301.109 73.056 300.576 73.1413 300.128 73.312C299.701 73.4613 299.349 73.664 299.072 73.92C298.816 74.176 298.624 74.464 298.496 74.784C298.368 75.104 298.304 75.424 298.304 75.744C298.304 76.256 298.432 76.64 298.688 76.896C298.965 77.152 299.285 77.28 299.648 77.28C300.096 77.28 300.533 77.12 300.96 76.8C301.408 76.48 301.685 76.0533 301.792 75.52L302.304 73.056ZM311.908 66.24C312.698 66.0693 313.391 65.8773 313.988 65.664C314.586 65.4507 315.13 65.184 315.62 64.864C316.132 64.544 316.612 64.1493 317.06 63.68C317.53 63.2107 318.031 62.6347 318.564 61.952H321.86L320.932 66.24H323.428L323.012 68.384H320.484L319.172 74.624C319.066 75.1147 318.98 75.552 318.916 75.936C318.852 76.32 318.82 76.6187 318.82 76.832C318.82 77.2587 318.97 77.5253 319.268 77.632C319.588 77.7387 320.175 77.792 321.028 77.792L320.548 80C320.399 80.0427 320.164 80.0747 319.844 80.096C319.546 80.1173 319.204 80.1387 318.82 80.16C318.458 80.2027 318.074 80.224 317.668 80.224C317.284 80.2453 316.943 80.256 316.644 80.256C316.111 80.256 315.588 80.2133 315.076 80.128C314.564 80.064 314.106 79.9253 313.7 79.712C313.295 79.4773 312.964 79.1467 312.708 78.72C312.474 78.2933 312.356 77.7173 312.356 76.992C312.356 76.736 312.367 76.416 312.388 76.032C312.431 75.648 312.506 75.2213 312.612 74.752L313.956 68.384H311.46L311.908 66.24ZM326.199 66.24H331.415L331.895 68.64H332.119C332.61 67.872 333.239 67.2213 334.007 66.688C334.775 66.1547 335.789 65.888 337.047 65.888C337.133 65.888 337.261 65.8987 337.431 65.92C337.623 65.92 337.826 65.952 338.039 66.016C338.274 66.0587 338.509 66.1333 338.743 66.24C338.999 66.3253 339.245 66.4533 339.479 66.624L338.071 73.216H334.583C334.541 71.8933 334.423 70.976 334.231 70.464C334.039 69.9307 333.73 69.664 333.303 69.664C333.09 69.664 332.855 69.7173 332.599 69.824C332.365 69.9093 332.119 70.112 331.863 70.432L329.815 80H323.287L326.199 66.24ZM345.892 80H339.396L342.308 66.24H348.868L345.892 80ZM349.7 62.048C349.7 62.5387 349.594 62.9653 349.38 63.328C349.188 63.6907 348.922 64 348.58 64.256C348.26 64.512 347.887 64.704 347.46 64.832C347.034 64.96 346.596 65.024 346.148 65.024C345.295 65.024 344.58 64.8213 344.004 64.416C343.428 64.0107 343.14 63.3707 343.14 62.496C343.14 62.0267 343.236 61.6107 343.428 61.248C343.62 60.864 343.876 60.5547 344.196 60.32C344.538 60.064 344.922 59.872 345.348 59.744C345.796 59.616 346.255 59.552 346.724 59.552C347.556 59.552 348.26 59.7547 348.836 60.16C349.412 60.5653 349.7 61.1947 349.7 62.048ZM359.459 69.856L362.819 66.24H366.499L360.707 72.192L364.835 80H358.051L355.811 75.776L351.587 80H347.907L354.595 73.472L350.787 66.24H357.539L359.459 69.856Z" fill="#008A79"/>
</g>
<g filter="url(#filter5_d_692_96)">
<path d="M206.608 65.568C206.672 65.248 206.704 64.8107 206.704 64.256C206.704 63.936 206.683 63.6267 206.64 63.328C206.597 63.008 206.523 62.7307 206.416 62.496C206.309 62.24 206.149 62.048 205.936 61.92C205.723 61.7707 205.445 61.696 205.104 61.696C204.72 61.696 204.368 61.7813 204.048 61.952C203.728 62.1227 203.44 62.3467 203.184 62.624C202.949 62.88 202.757 63.1893 202.608 63.552C202.48 63.8933 202.416 64.256 202.416 64.64C202.416 65.1947 202.555 65.6213 202.832 65.92C203.131 66.2187 203.515 66.464 203.984 66.656C204.453 66.848 204.987 67.008 205.584 67.136C206.181 67.264 206.8 67.4133 207.44 67.584C207.973 67.7333 208.507 67.9253 209.04 68.16C209.573 68.3947 210.043 68.7147 210.448 69.12C210.875 69.504 211.216 70.016 211.472 70.656C211.728 71.2747 211.856 72.0533 211.856 72.992C211.856 74.336 211.589 75.4667 211.056 76.384C210.523 77.3013 209.787 78.048 208.848 78.624C207.909 79.2 206.789 79.616 205.488 79.872C204.208 80.128 202.811 80.256 201.296 80.256C199.76 80.256 198.501 80.16 197.52 79.968C196.56 79.7547 195.803 79.5307 195.248 79.296C194.587 79.0187 194.096 78.6987 193.776 78.336L194.864 73.952H200.496C200.475 74.144 200.453 74.4107 200.432 74.752C200.411 75.072 200.4 75.328 200.4 75.52C200.4 75.776 200.432 76.0427 200.496 76.32C200.56 76.5973 200.656 76.8533 200.784 77.088C200.933 77.3227 201.136 77.5147 201.392 77.664C201.648 77.8133 201.968 77.888 202.352 77.888C202.779 77.888 203.152 77.792 203.472 77.6C203.813 77.408 204.091 77.1733 204.304 76.896C204.539 76.5973 204.709 76.2773 204.816 75.936C204.944 75.5733 205.008 75.2213 205.008 74.88C205.008 74.4107 204.891 74.016 204.656 73.696C204.443 73.376 204.144 73.1093 203.76 72.896C203.376 72.6613 202.928 72.4693 202.416 72.32C201.925 72.1493 201.413 71.9787 200.88 71.808C200.368 71.6587 199.824 71.4773 199.248 71.264C198.693 71.0507 198.181 70.752 197.712 70.368C197.243 69.984 196.848 69.504 196.528 68.928C196.229 68.3307 196.08 67.5733 196.08 66.656C196.08 65.2907 196.421 64.1493 197.104 63.232C197.808 62.2933 198.683 61.536 199.728 60.96C200.795 60.384 201.957 59.9787 203.216 59.744C204.475 59.488 205.669 59.36 206.8 59.36C208.293 59.36 209.573 59.5413 210.64 59.904C211.728 60.2453 212.549 60.6507 213.104 61.12L211.92 65.568H206.608ZM221.325 72.064L228.781 66.24H233.005L226.637 71.456L231.405 80H224.237L220.973 73.568L219.629 80H213.101L217.645 58.496H224.205L221.325 72.064ZM239.393 80H232.897L235.809 66.24H242.369L239.393 80ZM243.201 62.048C243.201 62.5387 243.095 62.9653 242.881 63.328C242.689 63.6907 242.423 64 242.081 64.256C241.761 64.512 241.388 64.704 240.961 64.832C240.535 64.96 240.097 65.024 239.649 65.024C238.796 65.024 238.081 64.8213 237.505 64.416C236.929 64.0107 236.641 63.3707 236.641 62.496C236.641 62.0267 236.737 61.6107 236.929 61.248C237.121 60.864 237.377 60.5547 237.697 60.32C238.039 60.064 238.423 59.872 238.849 59.744C239.297 59.616 239.756 59.552 240.225 59.552C241.057 59.552 241.761 59.7547 242.337 60.16C242.913 60.5653 243.201 61.1947 243.201 62.048ZM249.44 80H242.912L247.456 58.496H254.016L249.44 80ZM259.456 80H252.928L257.472 58.496H264.032L259.456 80Z" fill="#008A79"/>
</g>
</g>
<defs>
<filter id="filter0_ddi_692_96" x="100.498" y="28.2196" width="69.6509" height="70.0146" filterUnits="userSpaceOnUse" color-interpolation-filters="sRGB">
<feFlood flood-opacity="0" result="BackgroundImageFix"/>
<feColorMatrix in="SourceAlpha" type="matrix" values="0 0 0 0 0 0 0 0 0 0 0 0 0 0 0 0 0 0 127 0" result="hardAlpha"/>
<feOffset dy="4"/>
<feGaussianBlur stdDeviation="2"/>
<feComposite in2="hardAlpha" operator="out"/>
<feColorMatrix type="matrix" values="0 0 0 0 0 0 0 0 0 0 0 0 0 0 0 0 0 0 0.25 0"/>
<feBlend mode="normal" in2="BackgroundImageFix" result="effect1_dropShadow_692_96"/>
<feColorMatrix in="SourceAlpha" type="matrix" values="0 0 0 0 0 0 0 0 0 0 0 0 0 0 0 0 0 0 127 0" result="hardAlpha"/>
<feOffset dy="-2"/>
<feGaussianBlur stdDeviation="2"/>
<feComposite in2="hardAlpha" operator="out"/>
<feColorMatrix type="matrix" values="0 0 0 0 0 0 0 0 0 0 0 0 0 0 0 0 0 0 0.25 0"/>
<feBlend mode="normal" in2="effect1_dropShadow_692_96" result="effect2_dropShadow_692_96"/>
<feBlend mode="normal" in="SourceGraphic" in2="effect2_dropShadow_692_96" result="shape"/>
<feColorMatrix in="SourceAlpha" type="matrix" values="0 0 0 0 0 0 0 0 0 0 0 0 0 0 0 0 0 0 127 0" result="hardAlpha"/>
<feOffset dy="4"/>
<feGaussianBlur stdDeviation="2"/>
<feComposite in2="hardAlpha" operator="arithmetic" k2="-1" k3="1"/>
<feColorMatrix type="matrix" values="0 0 0 0 0 0 0 0 0 0 0 0 0 0 0 0 0 0 0.25 0"/>
<feBlend mode="normal" in2="shape" result="effect3_innerShadow_692_96"/>
</filter>
<filter id="filter1_ddi_692_96" x="43.6715" y="46.9458" width="73.2794" height="67.6146" filterUnits="userSpaceOnUse" color-interpolation-filters="sRGB">
<feFlood flood-opacity="0" result="BackgroundImageFix"/>
<feColorMatrix in="SourceAlpha" type="matrix" values="0 0 0 0 0 0 0 0 0 0 0 0 0 0 0 0 0 0 127 0" result="hardAlpha"/>
<feOffset dy="4"/>
<feGaussianBlur stdDeviation="2"/>
<feComposite in2="hardAlpha" operator="out"/>
<feColorMatrix type="matrix" values="0 0 0 0 0 0 0 0 0 0 0 0 0 0 0 0 0 0 0.25 0"/>
<feBlend mode="normal" in2="BackgroundImageFix" result="effect1_dropShadow_692_96"/>
<feColorMatrix in="SourceAlpha" type="matrix" values="0 0 0 0 0 0 0 0 0 0 0 0 0 0 0 0 0 0 127 0" result="hardAlpha"/>
<feOffset dx="-4" dy="8"/>
<feGaussianBlur stdDeviation="1.8"/>
<feComposite in2="hardAlpha" operator="out"/>
<feColorMatrix type="matrix" values="0 0 0 0 0 0 0 0 0 0 0 0 0 0 0 0 0 0 0.25 0"/>
<feBlend mode="normal" in2="effect1_dropShadow_692_96" result="effect2_dropShadow_692_96"/>
<feBlend mode="normal" in="SourceGraphic" in2="effect2_dropShadow_692_96" result="shape"/>
<feColorMatrix in="SourceAlpha" type="matrix" values="0 0 0 0 0 0 0 0 0 0 0 0 0 0 0 0 0 0 127 0" result="hardAlpha"/>
<feOffset dy="4"/>
<feGaussianBlur stdDeviation="2"/>
<feComposite in2="hardAlpha" operator="arithmetic" k2="-1" k3="1"/>
<feColorMatrix type="matrix" values="0 0 0 0 0 0 0 0 0 0 0 0 0 0 0 0 0 0 0.25 0"/>
<feBlend mode="normal" in2="shape" result="effect3_innerShadow_692_96"/>
</filter>
<filter id="filter2_ddi_692_96" x="70.6423" y="2.01843" width="64.0203" height="79.6189" filterUnits="userSpaceOnUse" color-interpolation-filters="sRGB">
<feFlood flood-opacity="0" result="BackgroundImageFix"/>
<feColorMatrix in="SourceAlpha" type="matrix" values="0 0 0 0 0 0 0 0 0 0 0 0 0 0 0 0 0 0 127 0" result="hardAlpha"/>
<feOffset dy="4"/>
<feGaussianBlur stdDeviation="2"/>
<feComposite in2="hardAlpha" operator="out"/>
<feColorMatrix type="matrix" values="0 0 0 0 0 0 0 0 0 0 0 0 0 0 0 0 0 0 0.25 0"/>
<feBlend mode="normal" in2="BackgroundImageFix" result="effect1_dropShadow_692_96"/>
<feColorMatrix in="SourceAlpha" type="matrix" values="0 0 0 0 0 0 0 0 0 0 0 0 0 0 0 0 0 0 127 0" result="hardAlpha"/>
<feOffset dy="-6"/>
<feGaussianBlur stdDeviation="2"/>
<feComposite in2="hardAlpha" operator="out"/>
<feColorMatrix type="matrix" values="0 0 0 0 0 0 0 0 0 0 0 0 0 0 0 0 0 0 0.25 0"/>
<feBlend mode="normal" in2="effect1_dropShadow_692_96" result="effect2_dropShadow_692_96"/>
<feBlend mode="normal" in="SourceGraphic" in2="effect2_dropShadow_692_96" result="shape"/>
<feColorMatrix in="SourceAlpha" type="matrix" values="0 0 0 0 0 0 0 0 0 0 0 0 0 0 0 0 0 0 127 0" result="hardAlpha"/>
<feOffset dy="4"/>
<feGaussianBlur stdDeviation="2"/>
<feComposite in2="hardAlpha" operator="arithmetic" k2="-1" k3="1"/>
<feColorMatrix type="matrix" values="0 0 0 0 0 0 0 0 0 0 0 0 0 0 0 0 0 0 0.25 0"/>
<feBlend mode="normal" in2="shape" result="effect3_innerShadow_692_96"/>
</filter>
<filter id="filter3_ddi_692_96" x="82.7339" y="63.6179" width="64.0032" height="73.5195" filterUnits="userSpaceOnUse" color-interpolation-filters="sRGB">
<feFlood flood-opacity="0" result="BackgroundImageFix"/>
<feColorMatrix in="SourceAlpha" type="matrix" values="0 0 0 0 0 0 0 0 0 0 0 0 0 0 0 0 0 0 127 0" result="hardAlpha"/>
<feOffset dy="4"/>
<feGaussianBlur stdDeviation="2"/>
<feComposite in2="hardAlpha" operator="out"/>
<feColorMatrix type="matrix" values="0 0 0 0 0 0 0 0 0 0 0 0 0 0 0 0 0 0 0.25 0"/>
<feBlend mode="normal" in2="BackgroundImageFix" result="effect1_dropShadow_692_96"/>
<feColorMatrix in="SourceAlpha" type="matrix" values="0 0 0 0 0 0 0 0 0 0 0 0 0 0 0 0 0 0 127 0" result="hardAlpha"/>
<feOffset dy="8"/>
<feGaussianBlur stdDeviation="2"/>
<feComposite in2="hardAlpha" operator="out"/>
<feColorMatrix type="matrix" values="0 0 0 0 0 0 0 0 0 0 0 0 0 0 0 0 0 0 0.25 0"/>
<feBlend mode="normal" in2="effect1_dropShadow_692_96" result="effect2_dropShadow_692_96"/>
<feBlend mode="normal" in="SourceGraphic" in2="effect2_dropShadow_692_96" result="shape"/>
<feColorMatrix in="SourceAlpha" type="matrix" values="0 0 0 0 0 0 0 0 0 0 0 0 0 0 0 0 0 0 127 0" result="hardAlpha"/>
<feOffset dy="4"/>
<feGaussianBlur stdDeviation="2"/>
<feComposite in2="hardAlpha" operator="arithmetic" k2="-1" k3="1"/>
<feColorMatrix type="matrix" values="0 0 0 0 0 0 0 0 0 0 0 0 0 0 0 0 0 0 0.25 0"/>
<feBlend mode="normal" in2="shape" result="effect3_innerShadow_692_96"/>
</filter>
<filter id="filter4_d_692_96" x="261.2" y="59.552" width="109.099" height="30.504" filterUnits="userSpaceOnUse" color-interpolation-filters="sRGB">
<feFlood flood-opacity="0" result="BackgroundImageFix"/>
<feColorMatrix in="SourceAlpha" type="matrix" values="0 0 0 0 0 0 0 0 0 0 0 0 0 0 0 0 0 0 127 0" result="hardAlpha"/>
<feOffset dy="6"/>
<feGaussianBlur stdDeviation="1.9"/>
<feComposite in2="hardAlpha" operator="out"/>
<feColorMatrix type="matrix" values="0 0 0 0 0 0 0 0 0 0 0 0 0 0 0 0 0 0 0.25 0"/>
<feBlend mode="normal" in2="BackgroundImageFix" result="effect1_dropShadow_692_96"/>
<feBlend mode="normal" in="SourceGraphic" in2="effect1_dropShadow_692_96" result="shape"/>
</filter>
<filter id="filter5_d_692_96" x="189.976" y="58.496" width="77.8556" height="31.56" filterUnits="userSpaceOnUse" color-interpolation-filters="sRGB">
<feFlood flood-opacity="0" result="BackgroundImageFix"/>
<feColorMatrix in="SourceAlpha" type="matrix" values="0 0 0 0 0 0 0 0 0 0 0 0 0 0 0 0 0 0 127 0" result="hardAlpha"/>
<feOffset dy="6"/>
<feGaussianBlur stdDeviation="1.9"/>
<feComposite in2="hardAlpha" operator="out"/>
<feColorMatrix type="matrix" values="0 0 0 0 0 0 0 0 0 0 0 0 0 0 0 0 0 0 0.25 0"/>
<feBlend mode="normal" in2="BackgroundImageFix" result="effect1_dropShadow_692_96"/>
<feBlend mode="normal" in="SourceGraphic" in2="effect1_dropShadow_692_96" result="shape"/>
</filter>
<clipPath id="clip0_692_96">
<rect width="423" height="157" fill="white"/>
</clipPath>
<clipPath id="clip1_692_96">
<rect width="19" height="19" fill="white" transform="translate(113.056 90)"/>
</clipPath>
<clipPath id="clip2_692_96">
<rect width="21" height="21" fill="white" transform="translate(66.0562 69)"/>
</clipPath>
<clipPath id="clip3_692_96">
<rect width="19" height="19" fill="white" transform="translate(89.0562 22)"/>
</clipPath>
<clipPath id="clip4_692_96">
<rect width="17" height="17" fill="white" transform="translate(45.0562 10)"/>
</clipPath>
</defs>
</svg>
