<svg width="217" height="217" viewBox="0 0 217 217" fill="none" xmlns="http://www.w3.org/2000/svg">
<g clip-path="url(#clip0_658_273)">
<g filter="url(#filter0_ddi_658_273)">
<path d="M165.228 65.0446C164.458 62.6665 164.281 61.1376 163.073 58.8492C162.1 57.0073 161.448 55.6262 160.038 53.4852C158.256 50.7787 156.887 48.7066 154.477 46.7011C151.54 44.2573 149.485 42.5245 145.988 40.2066C142.901 38.1604 138.173 36.4978 138.173 36.4978C138.173 36.4978 133.55 34.7556 130.442 34.4256C126.759 34.0347 124.548 34.1552 120.988 35.1784C118.307 35.9493 116.715 36.4694 114.496 38.1604C112.201 39.9084 110.862 41.1953 108.774 43.2209C107.101 44.8442 106.596 45.7283 105.358 48.1563C104.531 49.78 104.254 50.9901 104.734 52.6467C105.005 53.5817 106.026 54.429 106.934 54.7795C108.934 55.5514 109.553 55.2081 111.976 55.6379C111.976 55.6379 115.931 56.1816 118.376 56.8958C120.994 57.6605 122.369 58.3795 124.86 59.4908C127.701 60.7586 129.404 61.3189 131.984 63.0575C134.712 64.896 136.186 66.1213 138.266 68.6704C139.62 70.3297 140.852 71.5682 141.973 73.3929C143.404 75.7212 143.827 76.7664 144.704 79.3543C145.814 82.6262 146.034 84.7446 145.53 88.1626C145.41 88.9798 145.103 90.2343 145.103 90.2343C145.103 90.2343 154.136 83.815 160.459 80.6591C163.073 79.3543 165.228 79.3543 165.968 76.2869C166.373 74.6077 165.972 71.8636 165.972 71.8636C165.972 71.8636 166.065 67.6304 165.228 65.0446Z" fill="#FFB703"/>
</g>
<g filter="url(#filter1_ddi_658_273)">
<path d="M52.1857 72.1355C52.9558 74.5136 53.1322 76.0425 54.3406 78.3309C55.3131 80.1728 55.9653 81.5539 57.3751 83.6949C59.1573 86.4014 59.8079 87.4998 62.9366 90.479C66.0653 93.4582 67.9287 94.6556 71.4258 96.9735C73.9509 98.6471 79.2403 100.682 79.2403 100.682C79.2403 100.682 83.8635 102.424 86.972 102.754C90.6547 103.145 92.8659 103.025 96.4251 102.002C99.1068 101.231 100.399 101.066 102.918 99.0197C105.438 96.9735 106.782 96.1656 108.639 93.9592C110.141 92.1759 110.822 90.9671 112.055 89.0238C113.032 87.4852 113.16 86.19 112.68 84.5334C112.409 83.5984 111.388 82.7511 110.48 82.4006C108.479 81.6287 107.86 81.972 105.438 81.5422C105.438 81.5422 101.483 80.9984 99.0379 80.2843C96.4198 79.5196 94.9543 79.1041 92.4635 77.9928C89.6223 76.725 88.01 75.8612 85.4298 74.1226C82.7014 72.2841 81.2272 71.0588 79.1472 68.5097C77.7932 66.8503 76.5619 65.6119 75.4407 63.7872C74.0101 61.4589 73.5867 60.4137 72.7091 57.8258C71.5996 54.5539 71.38 52.4355 71.8836 49.0175C72.004 48.2003 72.3102 46.9458 72.3102 46.9458L56.9038 57.0904C56.9038 57.0904 55.2516 58.0851 54.2666 58.8269C52.1857 60.394 51.8461 62.5822 51.4418 65.3165C51.0501 67.9665 51.3485 69.5497 52.1857 72.1355Z" fill="#6A994E"/>
</g>
<g filter="url(#filter2_ddi_658_273)">
<path d="M105.469 12.7612C103.043 13.3633 101.604 13.8536 99.2729 14.9157C97.0827 15.9137 96.0497 16.5403 93.9085 17.95C91.2018 19.7319 90.5991 20.3986 87.1239 23.5109C84.2779 26.0597 82.9471 28.5026 80.629 31.9994C78.9553 34.5243 76.92 39.8134 76.92 39.8134C76.92 39.8134 75.1779 44.4362 74.8479 47.5445C74.457 51.2269 74.5775 53.438 75.6009 56.997C76.372 59.6785 77.2666 61.193 78.5834 63.4896C80.0181 65.9918 81.4379 67.353 83.6446 69.2106C85.4281 70.712 86.4298 71.2612 88.5806 72.6264C90.7313 73.9916 91.4146 73.7311 93.0714 73.2513C94.0065 72.9804 94.8538 71.9594 95.2043 71.0512C95.9762 69.0508 95.6329 68.4318 96.0626 66.0094C96.0626 66.0094 96.6064 62.0549 97.3205 59.6102C98.0852 56.9923 98.8042 55.6171 99.9157 53.1265C101.183 50.2855 101.744 48.5831 103.482 46.0031C105.321 43.2749 106.546 41.8009 109.096 39.721C110.755 38.3672 111.994 37.136 113.819 36.0149C116.147 34.5844 117.192 34.1612 119.781 33.2837C123.053 32.1743 125.171 31.9547 128.59 32.4584C129.407 32.5788 130.662 32.8851 130.662 32.8851C130.662 32.8851 124.478 23.4956 120.516 17.4793C119.837 16.4495 119.658 15.7071 118.779 14.8423C116.918 13.0118 115.053 12.0176 112.289 12.0175C109.799 12.0175 108.466 12.0174 105.469 12.7612Z" fill="#D8101F"/>
</g>
<g filter="url(#filter3_ddi_658_273)">
<path d="M111.921 124.389C114.299 123.619 115.828 123.442 118.116 122.234C119.957 121.261 121.338 120.609 123.479 119.199C126.185 117.416 128.257 116.047 130.262 113.636C132.705 110.699 134.438 108.644 136.755 105.146C138.429 102.621 140.464 97.3312 140.464 97.3312C140.464 97.3312 142.206 92.7076 142.536 89.5988C142.927 85.9159 142.806 83.7044 141.783 80.145C141.013 77.4632 140.464 76.6583 138.802 73.6517C137.407 71.1274 135.949 69.7879 133.743 67.9302C131.96 66.4287 130.751 65.7479 128.809 64.5142C127.27 63.5375 125.975 63.4095 124.319 63.8895C123.384 64.1605 122.537 65.1817 122.187 66.09C121.415 68.0908 121.758 68.7099 121.328 71.1326C121.328 71.1326 120.784 75.0877 120.07 77.5328C119.306 80.1511 119.113 80.9257 118.117 84.1258C117.192 87.0967 116.052 88.7455 114.314 91.326C112.476 94.0547 110.846 95.3451 108.297 97.4254C106.638 98.7795 105.4 100.011 103.576 101.132C101.248 102.563 100.203 102.987 97.6151 103.864C94.3438 104.974 92.2259 105.194 88.8086 104.69C87.9915 104.57 86.7373 104.264 86.7373 104.264L96.8794 119.671C96.8794 119.671 97.8796 121.319 98.6154 122.308C100.716 125.133 105.104 125.133 105.104 125.133C105.104 125.133 109.336 125.226 111.921 124.389Z" fill="#2A9D8F"/>
</g>
<g clip-path="url(#clip1_658_273)">
<path d="M120.374 90.2226C119.751 90.4898 119.335 91.1874 119.201 92.1671L119.112 92.939L117.153 92.9983C115.06 93.0577 114.659 93.1765 113.917 93.9632C113.086 94.839 113.056 95.0468 113.056 100.361C113.056 105.111 113.071 105.244 113.398 105.883C113.576 106.239 113.976 106.744 114.288 106.981L114.867 107.441L118.726 107.486C122.883 107.53 123.061 107.501 122.972 106.788C122.898 106.105 122.482 106.031 118.875 106.031C116.886 106.031 115.446 105.972 115.268 105.883C114.63 105.541 114.541 105.037 114.541 101.875V98.9062H118.177H121.814V99.5444C121.814 100.554 122.363 101.088 123.001 100.687C123.12 100.613 123.254 100.227 123.298 99.7671L123.373 98.9804L126.965 98.9358L130.572 98.9062V99.871C130.572 100.732 130.616 100.851 130.943 101.073C131.284 101.296 131.344 101.296 131.685 101.073L132.056 100.836V98.1491C132.056 95.2398 131.952 94.7648 131.195 93.9632C130.453 93.1765 130.067 93.0577 127.87 92.9983L125.822 92.939V92.1671C125.822 91.2171 125.421 90.5046 124.708 90.2077C124.026 89.9257 121.042 89.9257 120.374 90.2226ZM124.1 91.5733C124.263 91.6327 124.337 91.8554 124.337 92.3155V92.9687H122.556H120.775V92.3304C120.775 91.9741 120.819 91.6327 120.879 91.5882C120.998 91.4546 123.788 91.4546 124.1 91.5733ZM130.082 94.928C130.423 95.2843 130.498 95.4921 130.542 96.3827L130.601 97.4218H122.556H114.511L114.57 96.3827C114.63 95.2843 114.971 94.6905 115.639 94.5569C115.802 94.5124 119.038 94.4976 122.808 94.5124L129.681 94.5273L130.082 94.928Z" fill="black"/>
<path d="M125.896 101.266C123.358 102.439 123.432 106.209 126 107.278C126.668 107.56 127.959 107.575 128.568 107.308C128.998 107.115 129.028 107.13 130.023 108.065C131.076 109.044 131.403 109.178 131.804 108.733C132.219 108.273 132.101 107.976 131.106 106.952C130.186 105.972 130.171 105.942 130.364 105.512C130.854 104.413 130.483 102.677 129.592 101.845C128.672 100.984 127.054 100.732 125.896 101.266ZM128.568 102.988C129.028 103.448 129.087 103.612 129.087 104.25C129.087 104.888 129.028 105.052 128.568 105.512C128.108 105.972 127.944 106.031 127.306 106.031C126.668 106.031 126.505 105.972 126.044 105.512C125.584 105.052 125.525 104.888 125.525 104.25C125.525 103.612 125.584 103.448 126.044 102.988C126.505 102.528 126.668 102.469 127.306 102.469C127.944 102.469 128.108 102.528 128.568 102.988Z" fill="black"/>
</g>
<path fill-rule="evenodd" clip-rule="evenodd" d="M45 48.5948C44.4477 48.5948 44 48.1471 44 47.5948L44 -0.401794H46L46 47.5948C46 48.1471 45.5523 48.5948 45 48.5948Z" fill="#00477D" fill-opacity="0.82"/>
<path fill-rule="evenodd" clip-rule="evenodd" d="M46.0667 46.995C45.5144 46.995 45.0667 46.5473 45.0667 45.995L45.0667 -2.00165H47.0667L47.0667 45.995C47.0667 46.5473 46.6189 46.995 46.0667 46.995Z" fill="#00477D" fill-opacity="0.82"/>
<path fill-rule="evenodd" clip-rule="evenodd" d="M47.1333 45.395C46.581 45.395 46.1333 44.9473 46.1333 44.395L46.1333 -3.60162H48.1333L48.1333 44.395C48.1333 44.9473 47.6856 45.395 47.1333 45.395Z" fill="#00477D" fill-opacity="0.82"/>
<path fill-rule="evenodd" clip-rule="evenodd" d="M48.1997 44.3285C47.6474 44.3285 47.1997 43.8808 47.1997 43.3285L47.1997 -4.66815H49.1997L49.1997 43.3285C49.1997 43.8808 48.752 44.3285 48.1997 44.3285Z" fill="#00477D" fill-opacity="0.82"/>
<path fill-rule="evenodd" clip-rule="evenodd" d="M49.2664 42.7286C48.7141 42.7286 48.2664 42.2809 48.2664 41.7286L48.2664 -13.2009H50.2664L50.2664 41.7286C50.2664 42.2809 49.8186 42.7286 49.2664 42.7286Z" fill="#00477D" fill-opacity="0.82"/>
<path fill-rule="evenodd" clip-rule="evenodd" d="M50.333 41.662C49.7807 41.662 49.333 41.2143 49.333 40.662L49.333 -16.4007H51.333L51.333 40.662C51.333 41.2143 50.8853 41.662 50.333 41.662Z" fill="#00477D" fill-opacity="0.82"/>
<path fill-rule="evenodd" clip-rule="evenodd" d="M51.3997 40.5955C50.8474 40.5955 50.3997 40.1477 50.3997 39.5955L50.3997 -19.6004H52.3997L52.3997 39.5955C52.3997 40.1477 51.9519 40.5955 51.3997 40.5955Z" fill="#00477D" fill-opacity="0.82"/>
<path fill-rule="evenodd" clip-rule="evenodd" d="M52.4661 39.5288C51.9138 39.5288 51.4661 39.0811 51.4661 38.5288L51.4661 -22.8002H53.4661L53.4661 38.5288C53.4661 39.0811 53.0183 39.5288 52.4661 39.5288Z" fill="#00477D" fill-opacity="0.82"/>
<path fill-rule="evenodd" clip-rule="evenodd" d="M53.5327 38.4623C52.9804 38.4623 52.5327 38.0146 52.5327 37.4623L52.5327 -26H54.5327L54.5327 37.4623C54.5327 38.0146 54.085 38.4623 53.5327 38.4623Z" fill="#00477D" fill-opacity="0.82"/>
<path fill-rule="evenodd" clip-rule="evenodd" d="M63.1321 48.5948C63.6844 48.5948 64.1321 48.1471 64.1321 47.5948L64.1321 -0.401794H62.1321L62.1321 47.5948C62.1321 48.1471 62.5798 48.5948 63.1321 48.5948Z" fill="#00477D" fill-opacity="0.82"/>
<path fill-rule="evenodd" clip-rule="evenodd" d="M62.0654 46.995C62.6177 46.995 63.0654 46.5473 63.0654 45.995L63.0654 -2.00165H61.0654L61.0654 45.995C61.0654 46.5473 61.5131 46.995 62.0654 46.995Z" fill="#00477D" fill-opacity="0.82"/>
<path fill-rule="evenodd" clip-rule="evenodd" d="M60.9988 45.395C61.5511 45.395 61.9988 44.9473 61.9988 44.395L61.9988 -3.60162H59.9988L59.9988 44.395C59.9988 44.9473 60.4465 45.395 60.9988 45.395Z" fill="#00477D" fill-opacity="0.82"/>
<path fill-rule="evenodd" clip-rule="evenodd" d="M59.9324 44.3285C60.4847 44.3285 60.9324 43.8808 60.9324 43.3285L60.9324 -4.66815H58.9324L58.9324 43.3285C58.9324 43.8808 59.3801 44.3285 59.9324 44.3285Z" fill="#00477D" fill-opacity="0.82"/>
<path fill-rule="evenodd" clip-rule="evenodd" d="M58.8657 42.7286C59.418 42.7286 59.8657 42.2809 59.8657 41.7286L59.8657 -13.2009H57.8657L57.8657 41.7286C57.8657 42.2809 58.3134 42.7286 58.8657 42.7286Z" fill="#00477D" fill-opacity="0.82"/>
<path fill-rule="evenodd" clip-rule="evenodd" d="M57.7991 41.662C58.3514 41.662 58.7991 41.2143 58.7991 40.662L58.7991 -16.4007H56.7991L56.7991 40.662C56.7991 41.2143 57.2468 41.662 57.7991 41.662Z" fill="#00477D" fill-opacity="0.82"/>
<path fill-rule="evenodd" clip-rule="evenodd" d="M56.7324 40.5955C57.2847 40.5955 57.7324 40.1477 57.7324 39.5955L57.7324 -19.6004H55.7324L55.7324 39.5955C55.7324 40.1477 56.1801 40.5955 56.7324 40.5955Z" fill="#00477D" fill-opacity="0.82"/>
<path fill-rule="evenodd" clip-rule="evenodd" d="M55.666 39.5288C56.2183 39.5288 56.666 39.0811 56.666 38.5288L56.666 -22.8002H54.666L54.666 38.5288C54.666 39.0811 55.1137 39.5288 55.666 39.5288Z" fill="#00477D" fill-opacity="0.82"/>
<path fill-rule="evenodd" clip-rule="evenodd" d="M54.5994 38.4623C55.1517 38.4623 55.5994 38.0146 55.5994 37.4623L55.5994 -26H53.5994L53.5994 37.4623C53.5994 38.0146 54.0471 38.4623 54.5994 38.4623Z" fill="#00477D" fill-opacity="0.82"/>
<g clip-path="url(#clip2_658_273)">
<path d="M70.0429 69.3117C69.4194 69.7055 69.1733 70.1156 69.1733 70.8047C69.1733 72.15 70.4694 73.0523 71.6835 72.5437C72.4382 72.232 72.7827 71.707 72.7827 70.8539C72.7827 69.4265 71.2405 68.557 70.0429 69.3117ZM71.6507 69.8367C72.4382 70.2469 72.3726 71.5594 71.5358 71.9367C70.9616 72.1992 70.7483 72.1664 70.2562 71.7726C69.9444 71.5265 69.8296 71.2805 69.8296 70.8703C69.8296 69.8859 70.7647 69.3609 71.6507 69.8367Z" fill="black"/>
<path d="M76.228 70.8867C76.228 71.018 76.3429 71.1328 76.4741 71.1328C76.6054 71.1328 76.7202 71.018 76.7202 70.8867C76.7202 70.7555 76.6054 70.6406 76.4741 70.6406C76.3429 70.6406 76.228 70.7555 76.228 70.8867Z" fill="black"/>
<path d="M74.5546 71.9532C74.4397 72.1336 74.2592 72.2813 74.1444 72.2813C73.8163 72.2813 73.8983 72.6586 74.3249 73.0524C74.7514 73.4625 75.0796 73.5446 75.0796 73.2493C75.0796 73.1508 75.2436 72.9375 75.4569 72.7571L75.8178 72.4453L75.4569 72.3469C75.2436 72.2977 75.0796 72.15 75.0796 72.0188C75.0796 71.6414 74.7678 71.5922 74.5546 71.9532Z" fill="black"/>
<path d="M69.0092 73.2656C68.7631 73.3641 68.2217 74.0203 67.6475 74.8734C66.4006 76.793 66.3842 77.2195 67.549 78.7781C68.0248 79.4016 68.5662 80.0906 68.7631 80.3203L69.124 80.7305L68.9108 84.3398C68.7959 86.325 68.7467 88.2609 68.7959 88.6383L68.878 89.3273L68.0084 89.3766C67.3522 89.4094 67.1225 89.4914 67.1225 89.6719C67.1225 89.8852 68.3201 89.918 76.7694 89.9672L86.3998 90V86.7516C86.3998 84.4383 86.3506 83.4539 86.203 83.3062C86.0717 83.175 85.1694 83.1094 83.2006 83.1094C79.8045 83.1094 79.8373 83.093 79.8373 84.8812C79.8373 86.0461 79.6405 86.4398 79.4436 85.6523C79.3615 85.3242 79.0006 84.9797 78.41 84.668C78.3772 84.6516 78.2131 83.5359 78.0326 82.1906C77.6061 79.0242 77.6225 79.057 76.999 78.6797C76.5889 78.4172 76.1787 78.3516 75.1287 78.3516H73.767V76.3828V74.4141L73.2256 73.807L72.6678 73.2164L71.0436 73.1672C70.1576 73.1344 69.2389 73.1836 69.0092 73.2656ZM72.6842 74.1023C73.0944 74.4305 73.1108 74.4797 73.1108 76.3992V78.3516H71.4537H69.8131L69.8787 76.9898C69.9115 76.2516 69.9936 75.4805 70.0756 75.2672C70.3053 74.5945 69.7311 74.8734 68.9436 75.825C68.5334 76.3336 68.1889 76.793 68.1889 76.8586C68.1889 76.9242 68.435 77.3672 68.7467 77.8594C69.3045 78.7289 69.3045 78.7617 68.9764 78.975C68.6975 79.1883 68.6319 79.1719 68.3858 78.8273C67.6311 77.8102 67.2045 77.1375 67.2045 76.9734C67.2045 76.7602 68.5662 74.4797 68.96 74.0367C69.1733 73.807 69.5014 73.7578 70.7319 73.7578C72.0115 73.7578 72.3069 73.807 72.6842 74.1023ZM69.1733 76.8914C69.1733 77.0719 69.1076 77.1867 69.0092 77.1211C68.9272 77.0719 68.8944 76.9242 68.96 76.793C69.0748 76.4484 69.1733 76.4812 69.1733 76.8914ZM76.7694 79.2539C77.0647 79.5328 77.1303 79.8609 77.3764 81.9609C77.4748 82.8141 77.5897 83.7164 77.6389 83.9461C77.7209 84.3398 77.6553 84.3891 77.1303 84.4875C76.7858 84.5531 76.4905 84.5695 76.4412 84.5367C76.4084 84.4875 76.2444 83.7 76.0967 82.7648L75.8014 81.0586H75.3256C75.0467 81.075 74.2592 81.1242 73.5537 81.1898L72.2576 81.3211L72.3725 80.6648C72.4709 80.0578 72.4545 79.9922 72.1428 79.9922C71.9459 79.9922 71.7983 80.0742 71.7983 80.1562C71.7983 80.3859 70.8303 86.85 70.7155 87.4242C70.6334 87.818 70.5514 87.8672 69.9608 87.8672H69.2881L69.3865 86.5875C69.4522 85.8984 69.5342 84.3234 69.5998 83.093C69.6983 80.9437 69.7311 80.8453 70.092 80.6648C70.5514 80.468 70.7483 79.8281 70.4858 79.3523C70.3053 79.0078 70.3217 79.0078 73.4225 79.0078C75.9655 79.0078 76.5725 79.057 76.7694 79.2539ZM69.9608 79.7133C70.0428 80.0742 69.567 80.2547 69.2389 79.9758C69.0092 79.7789 69.0092 79.7461 69.2717 79.5492C69.6326 79.2867 69.8951 79.3523 69.9608 79.7133ZM75.3256 81.9937C75.3748 82.207 75.5389 83.2078 75.703 84.2086L76.0147 86.0625H75.2272C74.0787 86.0625 73.9311 86.2922 73.9311 87.9656V89.3437H73.1108C72.4053 89.3437 72.2905 89.2945 72.2905 89.032C72.2905 88.8516 72.0608 88.5398 71.7819 88.3102L71.2733 87.9164L71.7162 84.9797C71.9623 83.3719 72.1756 82.0266 72.192 81.9937C72.2412 81.9609 74.2756 81.6984 74.9483 81.6492C75.1287 81.6492 75.2764 81.7805 75.3256 81.9937ZM85.8748 86.5875L85.9076 89.3437H83.2006H80.4936V86.5547V83.7656L83.1678 83.7984L85.8256 83.8477L85.8748 86.5875ZM78.3772 85.357C79.0826 85.7836 78.8694 85.9805 77.6881 85.9805C76.6709 85.9805 76.6381 85.9641 76.5889 85.5211C76.5397 85.0945 76.5725 85.0781 77.2123 85.0781C77.5897 85.0781 78.1147 85.2094 78.3772 85.357ZM79.8373 88.0312V89.3437H77.1303H74.4233V88.1461C74.4233 87.4734 74.4725 86.8828 74.5381 86.8336C74.5873 86.768 75.8178 86.7187 77.2451 86.7187H79.8373V88.0312ZM71.3553 88.7531C71.8967 89.1633 71.667 89.3437 70.5678 89.3437C69.9772 89.3437 69.5014 89.2781 69.5014 89.1961C69.5014 89.1141 69.4522 88.9336 69.403 88.7859C69.3209 88.5727 69.4522 88.5234 70.174 88.5234C70.6662 88.5234 71.1912 88.6383 71.3553 88.7531Z" fill="black"/>
</g>
<g clip-path="url(#clip3_658_273)">
<path d="M89.9468 22.8906C89.6944 23.143 89.6499 23.3805 89.6499 24.3453C89.6499 25.3695 89.6944 25.5477 89.9913 25.8297C90.3327 26.1562 90.4218 26.1562 95.0085 26.1562H99.6991L100.011 25.8148C100.293 25.518 100.337 25.2953 100.337 24.3602C100.337 23.3805 100.293 23.2023 99.9812 22.9055C99.6843 22.6234 99.5062 22.5789 98.6155 22.6234C98.0515 22.6531 97.5913 22.7273 97.5913 22.8164C97.5913 22.8906 98.096 22.9945 98.7046 23.0391L99.8179 23.1133V24.375V25.6367H94.9937H90.1694V24.375V23.1133L93.6577 23.0391C98.289 22.9352 98.289 22.6828 93.6577 22.6234C90.4069 22.5938 90.2288 22.6086 89.9468 22.8906Z" fill="black"/>
<path d="M91.2827 23.5586C91.2827 23.7516 91.5202 23.7813 93.0343 23.7516C95.3054 23.6922 95.2757 23.425 92.9897 23.3657C91.5202 23.336 91.2827 23.3657 91.2827 23.5586Z" fill="black"/>
<path d="M101.674 24.0039C101.288 24.4789 101.866 25.2062 102.386 24.8797C102.891 24.5531 102.713 23.7812 102.119 23.7812C101.97 23.7812 101.777 23.8851 101.674 24.0039ZM102.267 24.375C102.267 24.4492 102.208 24.5234 102.119 24.5234C102.045 24.5234 101.97 24.4492 101.97 24.375C101.97 24.2859 102.045 24.2266 102.119 24.2266C102.208 24.2266 102.267 24.2859 102.267 24.375Z" fill="black"/>
<path d="M103.158 24.0039C103.158 24.1969 103.321 24.2266 104.078 24.1969C104.642 24.1672 105.013 24.0782 105.058 23.9594C105.102 23.8258 104.85 23.7813 104.137 23.7813C103.351 23.7813 103.158 23.8258 103.158 24.0039Z" fill="black"/>
<path d="M91.2827 24.375C91.2827 24.4641 91.6983 24.5234 92.2476 24.5234C92.7968 24.5234 93.2124 24.4641 93.2124 24.375C93.2124 24.2859 92.7968 24.2266 92.2476 24.2266C91.6983 24.2266 91.2827 24.2859 91.2827 24.375Z" fill="black"/>
<path d="M103.158 24.7461C103.158 24.9391 103.395 24.9688 104.909 24.9391C107.18 24.8797 107.151 24.6125 104.865 24.5532C103.395 24.5235 103.158 24.5532 103.158 24.7461Z" fill="black"/>
<path d="M103.158 25.9336C103.158 26.1266 103.276 26.1711 103.722 26.1266C104.019 26.0969 104.271 26.0078 104.271 25.9336C104.271 25.8446 104.019 25.7703 103.722 25.7406C103.276 25.6961 103.158 25.7406 103.158 25.9336Z" fill="black"/>
<path d="M101.674 26.3789C101.288 26.8539 101.866 27.5812 102.386 27.2547C102.891 26.9281 102.713 26.1562 102.119 26.1562C101.97 26.1562 101.777 26.2601 101.674 26.3789ZM102.267 26.75C102.267 26.8242 102.208 26.8984 102.119 26.8984C102.045 26.8984 101.97 26.8242 101.97 26.75C101.97 26.6609 102.045 26.6016 102.119 26.6016C102.208 26.6016 102.267 26.6609 102.267 26.75Z" fill="black"/>
<path d="M89.8875 26.9281C89.5461 27.418 89.5757 28.6055 89.9468 28.9766C90.214 29.2438 90.4367 29.2734 92.2179 29.2734C93.2867 29.2734 94.2515 29.2141 94.3406 29.1547C94.9937 28.7242 94.9937 27.1508 94.3406 26.7203C94.2515 26.6609 93.257 26.6016 92.1437 26.6016C90.214 26.6016 90.0953 26.6164 89.8875 26.9281ZM94.1625 27.1359C94.4742 27.4328 94.4742 28.4422 94.1625 28.7391C93.9843 28.932 93.5836 28.9766 92.307 28.9766C91.4015 28.9766 90.5406 28.9023 90.3773 28.8281C89.9914 28.6055 89.9617 27.2844 90.3625 27.0617C90.4961 26.9727 91.357 26.8984 92.2773 26.8984C93.5836 26.8984 93.9843 26.943 94.1625 27.1359Z" fill="black"/>
<path d="M90.496 27.4328C90.3031 27.6258 90.5702 27.7891 91.0749 27.7891C91.4312 27.7891 91.5796 27.7148 91.5796 27.5664C91.5796 27.418 91.4312 27.3438 91.0898 27.3438C90.8077 27.3438 90.5406 27.3883 90.496 27.4328Z" fill="black"/>
<path d="M90.4961 28.175C90.2437 28.4273 90.6593 28.5312 91.8914 28.5312C92.9008 28.5312 93.2273 28.4867 93.1828 28.3383C93.1086 28.1453 90.689 27.9969 90.4961 28.175Z" fill="black"/>
<path d="M95.6468 26.7203C95.3647 26.8984 95.1421 27.4477 95.1421 27.9375C95.1421 28.4273 95.3647 28.9766 95.6468 29.1547C95.7358 29.2141 96.7007 29.2734 97.7843 29.2734C100.13 29.2734 100.337 29.1695 100.337 27.9375C100.337 26.7055 100.13 26.6016 97.7843 26.6016C96.7007 26.6016 95.7358 26.6609 95.6468 26.7203ZM99.6101 27.0469C99.8327 27.1656 99.8921 27.3586 99.8921 27.9375C99.8921 28.9023 99.7288 28.9766 97.7397 28.9766C95.7952 28.9766 95.5874 28.8875 95.5874 28.0117C95.5874 27.0023 95.7804 26.8984 97.6804 26.8984C98.5858 26.8984 99.4468 26.9727 99.6101 27.0469Z" fill="black"/>
<path d="M96.0327 27.5664C96.0327 27.7594 96.1515 27.8039 96.5968 27.7594C96.8937 27.7297 97.146 27.6406 97.146 27.5664C97.146 27.4774 96.8937 27.4031 96.5968 27.3735C96.1515 27.3289 96.0327 27.3735 96.0327 27.5664Z" fill="black"/>
<path d="M96.0327 28.3086C96.0327 28.4867 96.2851 28.5312 97.3687 28.5312C98.4522 28.5312 98.7046 28.4867 98.7046 28.3086C98.7046 28.1305 98.4522 28.0859 97.3687 28.0859C96.2851 28.0859 96.0327 28.1305 96.0327 28.3086Z" fill="black"/>
<path d="M103.158 26.75C103.158 26.8391 103.707 26.8984 104.494 26.8984C105.28 26.8984 105.83 26.8391 105.83 26.75C105.83 26.6609 105.28 26.6016 104.494 26.6016C103.707 26.6016 103.158 26.6609 103.158 26.75Z" fill="black"/>
<path d="M103.158 27.5664C103.158 27.7594 103.321 27.7891 104.078 27.7594C104.642 27.7297 105.013 27.6407 105.058 27.5219C105.102 27.3883 104.85 27.3438 104.137 27.3438C103.351 27.3438 103.158 27.3883 103.158 27.5664Z" fill="black"/>
<path d="M89.9468 30.0156C89.6796 30.2828 89.6499 30.5054 89.6499 32.2421C89.6499 34.1273 89.6647 34.2015 90.021 34.5578C90.3921 34.9289 90.4366 34.9437 92.3218 34.8843C94.8452 34.825 94.7562 34.914 94.8155 32.3906C94.8749 30.5054 94.8601 30.4609 94.489 30.0898C94.1327 29.7335 94.0585 29.7187 92.1733 29.7187C90.4366 29.7187 90.214 29.7484 89.9468 30.0156ZM94.2218 30.3421C94.4741 30.5945 94.4741 34.0382 94.2218 34.2906C93.9694 34.5429 90.5257 34.5429 90.2733 34.2906C90.0804 34.0976 90.0062 30.446 90.1991 30.2679C90.3772 30.075 94.0288 30.1492 94.2218 30.3421Z" fill="black"/>
<path d="M93.1828 31.5743C92.3812 32.3313 92.0695 32.3907 91.5797 31.8711C91.2234 31.5 90.6297 31.3813 90.4664 31.6485C90.4219 31.7227 90.4664 31.7969 90.6 31.7969C90.7188 31.7969 91.0008 31.9602 91.2383 32.1532C92.0547 32.836 92.3664 32.8063 93.2867 31.9453C94.0437 31.218 94.2664 30.9063 93.9992 30.9063C93.925 30.9063 93.5687 31.218 93.1828 31.5743Z" fill="black"/>
<path d="M90.4962 33.3703C90.2438 33.6375 90.704 33.7266 92.2626 33.7266C93.6727 33.7266 93.9548 33.682 93.9548 33.5039C93.9548 33.3258 93.6727 33.2812 92.2774 33.2812C91.3423 33.2812 90.5407 33.3258 90.4962 33.3703Z" fill="black"/>
<path d="M95.4984 30.0898C95.1273 30.4609 95.1125 30.5054 95.1718 32.3906C95.2312 34.914 95.1421 34.825 97.6656 34.8843C99.5507 34.9437 99.5953 34.9289 99.9664 34.5578C100.308 34.2164 100.337 34.0828 100.337 32.7617C100.337 31.6039 100.293 31.3515 100.115 31.3515C99.9367 31.3515 99.8921 31.6039 99.8921 32.732C99.8921 33.6078 99.8328 34.1718 99.714 34.2906C99.4617 34.5429 96.0179 34.5429 95.7656 34.2906C95.5132 34.0382 95.5132 30.5945 95.7656 30.3421C95.8843 30.2234 96.5671 30.164 97.8437 30.164C99.7437 30.164 99.7585 30.164 99.8921 30.5351C99.9664 30.7429 100.1 30.9062 100.189 30.9062C100.456 30.9062 100.337 30.3718 99.996 30.0453C99.6843 29.7484 99.4914 29.7187 97.7546 29.7187C95.9289 29.7187 95.8546 29.7335 95.4984 30.0898Z" fill="black"/>
<path d="M101.109 29.9563C100.798 30.1641 100.783 30.2828 100.783 32.2125C100.783 33.3258 100.842 34.3203 100.901 34.4094C101.08 34.6914 101.629 34.9141 102.119 34.9141C102.608 34.9141 103.158 34.6914 103.336 34.4094C103.395 34.3203 103.455 33.3555 103.455 32.2719C103.455 30.5055 103.425 30.2828 103.158 30.0156C102.787 29.6445 101.599 29.6148 101.109 29.9563ZM103.009 30.4461C103.083 30.6094 103.158 31.4703 103.158 32.3758C103.158 34.2461 103.054 34.4688 102.119 34.4688C101.183 34.4688 101.08 34.2461 101.08 32.3758C101.08 30.3273 101.154 30.1641 102.119 30.1641C102.698 30.1641 102.891 30.2234 103.009 30.4461Z" fill="black"/>
<path d="M101.629 30.55C101.569 30.6094 101.525 31.2476 101.525 31.975C101.525 32.9695 101.569 33.2961 101.718 33.2515C101.837 33.207 101.911 32.7765 101.941 31.9453C101.985 30.8023 101.866 30.3125 101.629 30.55Z" fill="black"/>
<path d="M102.356 30.5648C102.312 30.6094 102.267 30.8766 102.267 31.1586C102.267 31.5 102.341 31.6484 102.49 31.6484C102.638 31.6484 102.712 31.5 102.712 31.1438C102.712 30.6391 102.549 30.3719 102.356 30.5648Z" fill="black"/>
<path d="M104.197 30.0156C103.915 30.2976 103.9 30.5055 103.9 35.0328V39.768L104.241 40.0797C104.598 40.4211 105.087 40.525 105.087 40.2578C105.087 40.1687 104.924 40.0351 104.716 39.9609L104.345 39.8125L104.375 35.0328L104.419 30.2383H105.681H106.943V35.0625V39.8867L106.245 39.9312C105.741 39.9609 105.533 40.0351 105.533 40.1984C105.533 40.5695 106.75 40.4656 107.136 40.0648C107.462 39.7234 107.462 39.6344 107.462 35.0476V30.357L107.121 30.0453C106.824 29.7633 106.601 29.7187 105.637 29.7187C104.687 29.7187 104.449 29.7633 104.197 30.0156Z" fill="black"/>
<path d="M96.478 31.1883C96.1069 31.886 97.0124 32.4204 97.428 31.7524C97.5467 31.5743 97.5467 31.4258 97.428 31.2329C97.1905 30.8618 96.671 30.8321 96.478 31.1883ZM97.146 31.5C97.1905 31.5743 97.1311 31.6485 97.0124 31.6485C96.8788 31.6485 96.7749 31.5743 96.7749 31.5C96.7749 31.411 96.8342 31.3516 96.9085 31.3516C96.9975 31.3516 97.1014 31.411 97.146 31.5Z" fill="black"/>
<path d="M105.533 32.3164C105.533 32.8656 105.592 33.2812 105.681 33.2812C105.77 33.2812 105.83 32.8656 105.83 32.3164C105.83 31.7672 105.77 31.3516 105.681 31.3516C105.592 31.3516 105.533 31.7672 105.533 32.3164Z" fill="black"/>
<path d="M106.305 33.0586C106.364 35.3445 106.631 35.3742 106.691 33.0883C106.72 31.5891 106.691 31.3516 106.498 31.3516C106.305 31.3516 106.275 31.5891 106.305 33.0586Z" fill="black"/>
<path d="M97.6656 32.168C97.3836 32.45 97.2203 32.732 97.2797 32.7914C97.3242 32.8508 97.6211 32.6578 97.9031 32.3609C98.2 32.0789 98.3781 31.7969 98.3039 31.7523C98.2149 31.693 97.9328 31.8859 97.6656 32.168Z" fill="black"/>
<path d="M98.1406 32.7171C97.6656 33.1921 98.2594 33.9046 98.8531 33.5781C99.3578 33.3109 99.1352 32.539 98.5563 32.539C98.4227 32.539 98.2445 32.6132 98.1406 32.7171ZM98.7047 33.1476C98.7047 33.2218 98.6453 33.2812 98.5563 33.2812C98.482 33.2812 98.4078 33.1773 98.4078 33.0437C98.4078 32.9249 98.482 32.8656 98.5563 32.9101C98.6453 32.9546 98.7047 33.0585 98.7047 33.1476Z" fill="black"/>
<path d="M90.021 35.5672C89.6648 35.9234 89.6499 35.9976 89.6499 37.8531C89.6499 40.4359 89.6202 40.4062 92.2327 40.4062C94.0585 40.4062 94.1327 40.3914 94.489 40.0351C94.8601 39.664 94.8749 39.6195 94.8155 37.7344C94.7562 35.2109 94.8452 35.3 92.3218 35.2406C90.4366 35.1812 90.3921 35.1961 90.021 35.5672ZM94.2218 35.8344C94.489 36.1015 94.4593 39.575 94.1921 39.7976C94.0585 39.9164 93.3609 39.9609 92.0843 39.9312L90.1694 39.8867L90.1249 37.9719C90.0952 36.6953 90.1398 35.9976 90.2585 35.864C90.4812 35.5969 93.9546 35.5672 94.2218 35.8344Z" fill="black"/>
<path d="M92.1733 37.0664C92.1733 37.2148 92.3366 37.2891 92.6929 37.2891C93.0491 37.2891 93.2124 37.2148 93.2124 37.0664C93.2124 36.918 93.0491 36.8438 92.6929 36.8438C92.3366 36.8438 92.1733 36.918 92.1733 37.0664Z" fill="black"/>
<path d="M90.6296 37.5266C90.4812 37.9274 90.5257 38.1649 90.8226 38.3281C90.9859 38.4024 91.2086 38.4321 91.3421 38.3875C91.6539 38.2688 91.7875 37.7641 91.5796 37.5117C91.3421 37.2149 90.7484 37.2297 90.6296 37.5266ZM91.2828 37.8977C91.2828 37.9719 91.2234 38.0313 91.1343 38.0313C91.0601 38.0313 90.9859 37.9274 90.9859 37.7938C90.9859 37.675 91.0601 37.6156 91.1343 37.6602C91.2234 37.7047 91.2828 37.8086 91.2828 37.8977Z" fill="black"/>
<path d="M92.1733 37.8086C92.1733 37.9867 92.3663 38.0312 93.064 38.0312C93.7616 38.0312 93.9546 37.9867 93.9546 37.8086C93.9546 37.6305 93.7616 37.5859 93.064 37.5859C92.3663 37.5859 92.1733 37.6305 92.1733 37.8086Z" fill="black"/>
<path d="M92.1733 38.625C92.1733 38.7141 92.589 38.7734 93.1382 38.7734C93.6874 38.7734 94.103 38.7141 94.103 38.625C94.103 38.5359 93.6874 38.4766 93.1382 38.4766C92.589 38.4766 92.1733 38.5359 92.1733 38.625Z" fill="black"/>
<path d="M95.7655 35.3594C95.2757 35.5672 95.1421 36.0867 95.1421 37.9719C95.1421 39.5898 95.1569 39.6937 95.5132 40.0351C95.8546 40.3914 95.9437 40.4062 97.7843 40.4062C100.367 40.4062 100.337 40.4359 100.337 37.8234C100.337 36.0273 100.323 35.9234 99.9663 35.582C99.6249 35.2258 99.521 35.2109 97.8585 35.2258C96.8937 35.2258 95.9585 35.2851 95.7655 35.3594ZM99.7288 35.864C99.8476 35.9976 99.8921 36.6953 99.8624 37.9719L99.8179 39.8867L97.903 39.9312C96.6265 39.9609 95.9288 39.9164 95.7952 39.7976C95.528 39.575 95.4983 36.1015 95.7655 35.8344C96.0327 35.5672 99.5062 35.5969 99.7288 35.864Z" fill="black"/>
<path d="M97.5765 36.5766C97.5023 36.6953 97.3241 36.8289 97.1757 36.8883C97.0421 36.9477 96.8788 37.0961 96.8195 37.2297C96.6562 37.6453 96.9827 37.9571 97.6804 38.0313C98.5859 38.1352 98.4968 38.3875 97.5616 38.4469C96.7898 38.4914 96.4187 38.7735 97.1312 38.7735C97.3241 38.7735 97.5171 38.8774 97.5765 38.9961C97.6804 39.2781 97.9624 39.293 97.9624 39.011C97.9624 38.8922 98.1109 38.7735 98.3038 38.7438C98.5265 38.7141 98.6452 38.5805 98.6749 38.343C98.7491 37.8828 98.3632 37.586 97.7101 37.586C97.4429 37.586 97.2202 37.5117 97.2202 37.4375C97.2202 37.3485 97.5616 37.2891 97.9624 37.2891C98.5265 37.2891 98.7046 37.2297 98.7046 37.0664C98.7046 36.9328 98.571 36.8438 98.3929 36.8438C98.2148 36.8438 97.9921 36.7399 97.8882 36.5914C97.7249 36.3836 97.6952 36.3836 97.5765 36.5766Z" fill="black"/>
<path d="M101.302 35.3891C101.139 35.4781 100.961 35.6266 100.901 35.7156C100.842 35.8047 100.783 36.7695 100.783 37.8383C100.783 40.1984 100.887 40.4062 102.119 40.4062C103.351 40.4062 103.455 40.1984 103.455 37.8383C103.455 36.7695 103.395 35.8047 103.336 35.7156C103.024 35.2406 101.881 35.0625 101.302 35.3891ZM103.009 35.9383C103.083 36.1016 103.158 36.9477 103.158 37.8086C103.158 39.7977 103.083 39.9609 102.119 39.9609C101.154 39.9609 101.08 39.7977 101.08 37.7492C101.08 35.8492 101.183 35.6562 102.193 35.6562C102.698 35.6562 102.891 35.7305 103.009 35.9383Z" fill="black"/>
<path d="M101.525 37.4375C101.525 38.5211 101.569 38.7734 101.748 38.7734C101.926 38.7734 101.97 38.5211 101.97 37.4375C101.97 36.3539 101.926 36.1016 101.748 36.1016C101.569 36.1016 101.525 36.3539 101.525 37.4375Z" fill="black"/>
<path d="M102.297 36.6508C102.327 36.9625 102.416 37.2148 102.49 37.2148C102.579 37.2148 102.653 36.9625 102.683 36.6508C102.727 36.2203 102.683 36.1016 102.49 36.1016C102.297 36.1016 102.252 36.2203 102.297 36.6508Z" fill="black"/>
</g>
<path d="M136.712 44.8187C136.075 46.4499 135.287 48.9249 135.344 49.2624C135.419 49.7312 136.262 50.1812 137.125 50.2187C137.462 50.2187 137.837 50.3312 137.969 50.4624C138.137 50.6312 137.669 50.6874 135.719 50.6874H133.244L133.281 56.9124L133.337 63.1562L136.206 63.2124C137.762 63.2312 139.056 63.3062 139.056 63.3624C139.056 63.4187 138.925 63.7187 138.756 64.0187C138.362 64.7874 138.512 65.0874 139.225 64.9749C139.637 64.9187 139.844 64.9749 139.919 65.1999C140.106 65.7062 140.631 65.5374 141.006 64.8437C141.325 64.2812 141.456 64.1874 142.056 64.1874C142.656 64.1874 142.787 64.2812 143.106 64.8437C143.481 65.5562 143.762 65.6499 144.137 65.1999C144.287 65.0124 144.569 64.9374 144.925 64.9937C145.6 65.0874 145.731 64.7687 145.356 64.0187C145.187 63.7187 145.056 63.4187 145.056 63.3624C145.056 63.3062 146.35 63.2312 147.925 63.2124L150.775 63.1562L150.831 56.9124L150.869 50.6874H148.319C146.369 50.6874 145.787 50.6312 145.862 50.4437C145.9 50.3124 146.275 50.2187 146.762 50.1999C147.812 50.1999 148.694 49.7687 148.769 49.2624C148.825 48.8124 147.606 45.1562 147.269 44.7249C146.969 44.3687 145.937 44.5562 145.075 45.1187C143.631 46.0937 140.181 46.1499 139.15 45.2312C138.325 44.4999 136.937 44.2749 136.712 44.8187ZM138.494 45.6437C138.494 45.8499 137.219 49.3937 137.106 49.5249C137.05 49.5624 136.75 49.5062 136.45 49.3749L135.906 49.1499L136.544 47.3499C136.9 46.3374 137.237 45.4374 137.275 45.3062C137.331 45.1374 137.5 45.1187 137.931 45.2687C138.231 45.3812 138.494 45.5499 138.494 45.6437ZM147.55 47.2562L148.206 49.1687L147.644 49.3562C147.325 49.4687 147.025 49.5437 147.006 49.5062C146.894 49.4124 145.619 45.8124 145.619 45.6249C145.619 45.4187 146.612 45.0624 146.762 45.2312C146.819 45.2874 147.175 46.2062 147.55 47.2562ZM140.612 46.5062C140.706 46.5624 140.519 46.7687 140.2 46.9562C138.625 47.9124 140.631 49.4499 142.244 48.5312C142.506 48.3812 142.787 48.2687 142.862 48.2499C143.125 48.2499 145.056 50.1624 145.056 50.4249C145.056 50.8187 144.887 50.7437 144.081 50.0312C143.369 49.3749 142.994 49.3187 142.994 49.8437C142.994 49.9749 143.256 50.3124 143.556 50.5562C144.062 50.9874 144.325 51.6249 143.987 51.6249C143.912 51.6249 143.537 51.3062 143.144 50.9312C142.581 50.3874 142.375 50.2937 142.206 50.4624C142.037 50.6312 142.15 50.8562 142.712 51.4374C143.331 52.0749 143.387 52.1874 143.106 52.2999C142.881 52.3937 142.562 52.2062 142.056 51.7187C141.55 51.2312 141.231 51.0437 141.006 51.1374C140.725 51.2499 140.762 51.3437 141.269 51.8687C141.944 52.5624 142 52.7499 141.587 52.7499C141.419 52.7499 140.537 51.9812 139.619 51.0437L137.95 49.3374L138.531 47.7624L139.094 46.1687L139.787 46.2999C140.162 46.3749 140.537 46.4687 140.612 46.5062ZM145.581 47.7249C145.881 48.5874 146.106 49.3374 146.05 49.4124C145.844 49.7687 145.244 49.4874 144.4 48.6249C143.387 47.5937 142.787 47.4437 141.756 47.9687C141.212 48.2312 140.369 48.1749 140.369 47.8562C140.369 47.5187 142 46.6749 143.087 46.4499C145.037 46.0562 144.944 45.9999 145.581 47.7249ZM139.056 51.5312C139.262 51.7749 139.094 51.8124 137.706 51.8124H136.131L135.85 52.4124C135.587 52.9937 135.362 53.1812 134.706 53.3874C134.406 53.4812 134.369 53.8187 134.369 56.8749V60.2687L135.025 60.5499C135.475 60.7187 135.775 61.0187 135.944 61.4687L136.225 62.1249H137.537C138.25 62.1249 138.906 62.1999 138.962 62.3124C139.037 62.4249 138.156 62.4999 136.45 62.4999H133.806V57.0062C133.806 53.9687 133.862 51.4374 133.937 51.3812C133.994 51.3062 135.137 51.2499 136.431 51.2499C138.325 51.2499 138.869 51.3062 139.056 51.5312ZM150.269 56.9124L150.306 62.4999H147.681C145.956 62.4999 145.075 62.4249 145.15 62.3124C145.206 62.1999 145.844 62.1249 146.537 62.1249C147.869 62.1249 148.15 61.9937 148.281 61.2812C148.319 61.0749 148.656 60.7562 149.05 60.5687L149.744 60.2499V56.8749C149.744 53.8187 149.706 53.4812 149.425 53.3874C148.75 53.1812 148.525 52.9937 148.262 52.4124L147.981 51.8124H146.425C144.981 51.8124 144.662 51.7187 145 51.3624C145.075 51.3062 146.275 51.2687 147.662 51.2874L150.212 51.3437L150.269 56.9124ZM140.594 53.0312C141.156 53.4999 141.944 53.6499 142.15 53.3124C142.206 53.1999 142.506 53.1249 142.806 53.1249C143.106 53.1249 143.462 52.9937 143.631 52.8437C143.837 52.6374 144.362 52.5624 145.712 52.5624C147.437 52.5624 147.512 52.5812 147.719 53.0312C147.831 53.2937 148.169 53.5937 148.469 53.7249L148.994 53.9687V56.8937V59.8187L148.525 60.0249C148.262 60.1562 147.887 60.4937 147.719 60.8124C147.437 61.3187 147.306 61.3749 146.425 61.3749H145.431V60.6062C145.431 58.1687 142.544 56.6124 140.331 57.8499C139.375 58.3937 138.681 59.5562 138.681 60.5874V61.3749H137.687C136.787 61.3749 136.656 61.3187 136.469 60.9062C136.337 60.6437 136 60.2687 135.681 60.0999L135.119 59.7812V56.8749V53.9687L135.644 53.7249C135.944 53.5937 136.281 53.2937 136.394 53.0312C136.6 52.5812 136.675 52.5624 138.325 52.5624C139.881 52.5624 140.087 52.5999 140.594 53.0312ZM143.05 58.2624C143.856 58.5999 144.606 59.4999 144.756 60.3249C144.925 61.2624 144.344 62.5562 143.519 63.0624C142.787 63.5124 141.512 63.5499 140.744 63.1562C139.169 62.3499 138.85 60.1187 140.125 58.8999C141.044 58.0187 141.981 57.8124 143.05 58.2624ZM140.556 64.1124C140.556 64.4687 140.369 64.5249 139.919 64.3187C139.562 64.1499 139.525 64.0374 139.675 63.7937C139.825 63.5312 139.937 63.5124 140.219 63.6812C140.406 63.8124 140.556 63.9999 140.556 64.1124ZM144.437 64.1687C144.306 64.2062 144.1 64.3187 143.987 64.4124C143.819 64.5437 143.706 64.5062 143.631 64.2999C143.556 64.0937 143.65 63.8874 143.856 63.7374C144.156 63.5124 144.231 63.5312 144.419 63.7937C144.606 64.0187 144.606 64.1124 144.437 64.1687Z" fill="black"/>
<path d="M136.675 53.8749C135.981 54.7374 136.094 55.2624 137.05 55.6374C137.631 55.8624 137.762 55.9937 137.575 56.1062C137.275 56.2937 136.806 56.1812 136.806 55.9187C136.806 55.8249 136.675 55.7499 136.525 55.7499C136.075 55.7499 136.206 56.3687 136.769 56.8937L137.294 57.3999L137.819 56.8749C138.531 56.1437 138.456 55.3562 137.631 55.0937C136.975 54.8874 136.769 54.5687 137.237 54.4749C137.406 54.4374 137.612 54.5499 137.669 54.6999C137.819 55.1124 138.306 55.0749 138.306 54.6624C138.287 54.3249 137.5 53.3124 137.237 53.3312C137.162 53.3312 136.9 53.5749 136.675 53.8749Z" fill="black"/>
<path d="M139.131 54.8312C138.869 55.2624 139.431 55.3937 141.231 55.3374C142.825 55.2812 143.087 55.2437 143.144 54.9437C143.2 54.6624 143.012 54.6249 141.231 54.6249C140.012 54.6249 139.225 54.6999 139.131 54.8312Z" fill="black"/>
<path d="M139.15 56.3312C138.85 56.8 139.525 56.875 143.575 56.8375C147.156 56.7812 147.775 56.7437 147.775 56.5C147.775 56.2562 147.156 56.2187 143.519 56.1625C140.575 56.125 139.225 56.1812 139.15 56.3312Z" fill="black"/>
<path d="M140.762 59.2375C139.694 60.1188 139.825 61.8062 141.006 62.5187C141.325 62.7062 141.794 62.875 142.056 62.875C142.75 62.875 143.65 62.2562 143.912 61.5812C144.475 60.25 143.5 58.75 142.056 58.75C141.55 58.75 141.156 58.9 140.762 59.2375ZM142.994 59.875C143.8 60.6813 143.2 62.125 142.056 62.125C141.344 62.125 140.744 61.525 140.744 60.8125C140.744 60.4938 140.912 60.0812 141.119 59.875C141.325 59.6688 141.737 59.5 142.056 59.5C142.375 59.5 142.787 59.6688 142.994 59.875Z" fill="black"/>
<g clip-path="url(#clip4_658_273)">
<path d="M50.4218 10.7703C50.2093 10.9828 49.9039 11.514 49.7312 11.9656L49.4257 12.7757L48.5359 12.8554C47.3273 12.9617 46.8093 13.214 46.5703 13.8117C46.3843 14.2499 46.3843 14.3828 46.5968 15.2859L46.8226 16.2687L46.0257 17.0257C45.1757 17.796 44.9632 18.2476 45.1226 18.8585C45.1624 19.071 45.5742 19.5624 46.0257 19.9742L46.8226 20.7312L46.5968 21.714C46.3843 22.6171 46.3843 22.7499 46.5703 23.1882C46.8093 23.7859 47.3273 24.0382 48.5359 24.1445L49.4257 24.2242L49.7312 25.0343C49.9039 25.4859 50.2093 26.0171 50.4218 26.2296C50.7671 26.5882 50.8867 26.6281 51.4312 26.5749C51.8429 26.5351 52.2546 26.3624 52.6664 26.0968C52.9984 25.8578 53.3968 25.6718 53.5562 25.6718C53.7156 25.6718 54.114 25.8578 54.446 26.0968C54.8578 26.3624 55.2695 26.5351 55.6812 26.5749C56.2257 26.6281 56.3453 26.5882 56.6906 26.2296C56.9031 26.0171 57.2085 25.4859 57.3812 25.0343L57.6867 24.2242L58.5765 24.1445C59.7851 24.0382 60.3031 23.7859 60.5421 23.1882C60.7281 22.7499 60.7281 22.6171 60.5156 21.714L60.2898 20.7312L61.0867 19.9742C62.3617 18.8054 62.3617 18.1945 61.0867 17.0257L60.2898 16.2687L60.5156 15.2859C60.7281 14.3828 60.7281 14.2499 60.5421 13.8117C60.3031 13.214 59.7851 12.9617 58.5765 12.8554L57.6867 12.7757L57.3812 11.9656C57.2085 11.514 56.9031 10.9828 56.6906 10.7703C56.3453 10.4117 56.2257 10.3718 55.6812 10.4249C55.2695 10.4648 54.8578 10.6374 54.446 10.9031C54.114 11.1421 53.7156 11.3281 53.5562 11.3281C53.3968 11.3281 52.9984 11.1421 52.6664 10.9031C52.2546 10.6374 51.8429 10.4648 51.4312 10.4249C50.8867 10.3718 50.7671 10.4117 50.4218 10.7703ZM52.2015 12.2843C52.7195 12.6562 52.9453 12.7226 53.5562 12.7226C54.1671 12.7226 54.3929 12.6562 54.9242 12.2843C55.2695 12.032 55.6414 11.8593 55.7343 11.8992C55.8273 11.939 55.9601 12.1914 56.0531 12.4703C56.4515 13.7718 57.0757 14.2499 58.3906 14.2499C58.789 14.2499 59.1476 14.3031 59.2007 14.3695C59.2406 14.4492 59.1742 14.8609 59.0546 15.2859C58.7226 16.4812 58.8554 16.8796 59.8382 17.7695L60.6617 18.5265L60.3296 18.7921C58.8953 19.9343 58.696 20.3992 59.0546 21.714C59.1742 22.139 59.2406 22.5507 59.2007 22.6304C59.1476 22.6968 58.789 22.7499 58.3906 22.7499C57.0757 22.7499 56.4515 23.2281 56.0531 24.5296C55.9601 24.8085 55.8273 25.0609 55.7343 25.1007C55.6414 25.1406 55.2695 24.9679 54.9242 24.7156C54.021 24.0914 53.0914 24.0914 52.1882 24.7156C51.8429 24.9679 51.471 25.1406 51.3781 25.1007C51.2851 25.0609 51.1523 24.8085 51.0593 24.5296C50.6609 23.2281 50.0367 22.7499 48.7218 22.7499C48.3234 22.7499 47.9648 22.6968 47.9117 22.6304C47.8718 22.5507 47.9382 22.139 48.0578 21.714C48.3898 20.5187 48.257 20.1203 47.2874 19.2437L46.4773 18.4999L47.2874 17.7562C48.257 16.8796 48.3898 16.4812 48.0578 15.2859C47.9382 14.8609 47.8718 14.4492 47.9117 14.3695C47.9648 14.3031 48.3367 14.2499 48.7484 14.2499C49.8109 14.2499 50.3554 13.9445 50.7804 13.1078C50.9664 12.7226 51.1656 12.2976 51.2054 12.1382C51.2984 11.7531 51.471 11.7796 52.2015 12.2843Z" fill="#DCAB31"/>
<path d="M54.353 17.6367L52.6795 19.2969L51.9624 18.5664C51.2319 17.8227 50.7405 17.65 50.3952 17.9953C49.9967 18.3937 50.2225 18.832 51.3514 19.9344C51.9624 20.532 52.5733 21.0234 52.7061 21.0234C52.8389 21.0234 53.8085 20.1602 54.9108 19.0578C56.4514 17.5172 56.8764 17.0258 56.8764 16.7469C56.8764 16.4148 56.4647 15.9766 56.1592 15.9766C56.0928 15.9766 55.2827 16.7203 54.353 17.6367Z" fill="#DCAB31"/>
</g>
<g filter="url(#filter4_d_658_273)">
<path d="M116.488 176H109.384L112.328 162.176L104.744 176H100.392L98.952 161.696L95.88 176H93L97.32 155.68H105.48L106.472 167.136L112.616 155.68H120.84L116.488 176ZM122.944 163.424C124.032 162.891 125.141 162.507 126.272 162.272C127.424 162.016 128.704 161.888 130.112 161.888C131.477 161.888 132.608 161.995 133.504 162.208C134.4 162.421 135.115 162.731 135.648 163.136C136.181 163.541 136.555 164.021 136.768 164.576C136.981 165.131 137.088 165.76 137.088 166.464C137.088 166.869 137.056 167.307 136.992 167.776C136.949 168.245 136.896 168.64 136.832 168.96L135.328 176H130.176L129.6 173.952H129.408C128.725 174.699 127.925 175.275 127.008 175.68C126.112 176.064 125.216 176.256 124.32 176.256C123.808 176.256 123.307 176.181 122.816 176.032C122.325 175.883 121.888 175.659 121.504 175.36C121.12 175.04 120.811 174.645 120.576 174.176C120.341 173.685 120.224 173.099 120.224 172.416C120.224 171.307 120.523 170.432 121.12 169.792C121.739 169.131 122.539 168.64 123.52 168.32C124.523 167.979 125.643 167.765 126.88 167.68C128.139 167.595 129.397 167.552 130.656 167.552C130.699 167.339 130.752 167.04 130.816 166.656C130.88 166.251 130.912 165.899 130.912 165.6C130.912 165.216 130.805 164.864 130.592 164.544C130.4 164.203 129.984 164.032 129.344 164.032C128.597 164.032 128.043 164.256 127.68 164.704C127.339 165.131 127.115 165.653 127.008 166.272H122.336L122.944 163.424ZM130.304 169.056H129.728C129.109 169.056 128.576 169.141 128.128 169.312C127.701 169.461 127.349 169.664 127.072 169.92C126.816 170.176 126.624 170.464 126.496 170.784C126.368 171.104 126.304 171.424 126.304 171.744C126.304 172.256 126.432 172.64 126.688 172.896C126.965 173.152 127.285 173.28 127.648 173.28C128.096 173.28 128.533 173.12 128.96 172.8C129.408 172.48 129.685 172.053 129.792 171.52L130.304 169.056ZM139.908 162.24C140.698 162.069 141.391 161.877 141.988 161.664C142.586 161.451 143.13 161.184 143.62 160.864C144.132 160.544 144.612 160.149 145.06 159.68C145.53 159.211 146.031 158.635 146.564 157.952H149.86L148.932 162.24H151.428L151.012 164.384H148.484L147.172 170.624C147.066 171.115 146.98 171.552 146.916 171.936C146.852 172.32 146.82 172.619 146.82 172.832C146.82 173.259 146.97 173.525 147.268 173.632C147.588 173.739 148.175 173.792 149.028 173.792L148.548 176C148.399 176.043 148.164 176.075 147.844 176.096C147.546 176.117 147.204 176.139 146.82 176.16C146.458 176.203 146.074 176.224 145.668 176.224C145.284 176.245 144.943 176.256 144.644 176.256C144.111 176.256 143.588 176.213 143.076 176.128C142.564 176.064 142.106 175.925 141.7 175.712C141.295 175.477 140.964 175.147 140.708 174.72C140.474 174.293 140.356 173.717 140.356 172.992C140.356 172.736 140.367 172.416 140.388 172.032C140.431 171.648 140.506 171.221 140.612 170.752L141.956 164.384H139.46L139.908 162.24ZM154.199 162.24H159.415L159.895 164.64H160.119C160.61 163.872 161.239 163.221 162.007 162.688C162.775 162.155 163.789 161.888 165.047 161.888C165.133 161.888 165.261 161.899 165.431 161.92C165.623 161.92 165.826 161.952 166.039 162.016C166.274 162.059 166.509 162.133 166.743 162.24C166.999 162.325 167.245 162.453 167.479 162.624L166.071 169.216H162.583C162.541 167.893 162.423 166.976 162.231 166.464C162.039 165.931 161.73 165.664 161.303 165.664C161.09 165.664 160.855 165.717 160.599 165.824C160.365 165.909 160.119 166.112 159.863 166.432L157.815 176H151.287L154.199 162.24ZM173.892 176H167.396L170.308 162.24H176.868L173.892 176ZM177.7 158.048C177.7 158.539 177.594 158.965 177.38 159.328C177.188 159.691 176.922 160 176.58 160.256C176.26 160.512 175.887 160.704 175.46 160.832C175.034 160.96 174.596 161.024 174.148 161.024C173.295 161.024 172.58 160.821 172.004 160.416C171.428 160.011 171.14 159.371 171.14 158.496C171.14 158.027 171.236 157.611 171.428 157.248C171.62 156.864 171.876 156.555 172.196 156.32C172.538 156.064 172.922 155.872 173.348 155.744C173.796 155.616 174.255 155.552 174.724 155.552C175.556 155.552 176.26 155.755 176.836 156.16C177.412 156.565 177.7 157.195 177.7 158.048ZM187.459 165.856L190.819 162.24H194.499L188.707 168.192L192.835 176H186.051L183.811 171.776L179.587 176H175.907L182.595 169.472L178.787 162.24H185.539L187.459 165.856Z" fill="#008A79"/>
</g>
<g filter="url(#filter5_d_658_273)">
<path d="M34.608 161.568C34.672 161.248 34.704 160.811 34.704 160.256C34.704 159.936 34.6827 159.627 34.64 159.328C34.5973 159.008 34.5227 158.731 34.416 158.496C34.3093 158.24 34.1493 158.048 33.936 157.92C33.7227 157.771 33.4453 157.696 33.104 157.696C32.72 157.696 32.368 157.781 32.048 157.952C31.728 158.123 31.44 158.347 31.184 158.624C30.9493 158.88 30.7573 159.189 30.608 159.552C30.48 159.893 30.416 160.256 30.416 160.64C30.416 161.195 30.5547 161.621 30.832 161.92C31.1307 162.219 31.5147 162.464 31.984 162.656C32.4533 162.848 32.9867 163.008 33.584 163.136C34.1813 163.264 34.8 163.413 35.44 163.584C35.9733 163.733 36.5067 163.925 37.04 164.16C37.5733 164.395 38.0427 164.715 38.448 165.12C38.8747 165.504 39.216 166.016 39.472 166.656C39.728 167.275 39.856 168.053 39.856 168.992C39.856 170.336 39.5893 171.467 39.056 172.384C38.5227 173.301 37.7867 174.048 36.848 174.624C35.9093 175.2 34.7893 175.616 33.488 175.872C32.208 176.128 30.8107 176.256 29.296 176.256C27.76 176.256 26.5013 176.16 25.52 175.968C24.56 175.755 23.8027 175.531 23.248 175.296C22.5867 175.019 22.096 174.699 21.776 174.336L22.864 169.952H28.496C28.4747 170.144 28.4533 170.411 28.432 170.752C28.4107 171.072 28.4 171.328 28.4 171.52C28.4 171.776 28.432 172.043 28.496 172.32C28.56 172.597 28.656 172.853 28.784 173.088C28.9333 173.323 29.136 173.515 29.392 173.664C29.648 173.813 29.968 173.888 30.352 173.888C30.7787 173.888 31.152 173.792 31.472 173.6C31.8133 173.408 32.0907 173.173 32.304 172.896C32.5387 172.597 32.7093 172.277 32.816 171.936C32.944 171.573 33.008 171.221 33.008 170.88C33.008 170.411 32.8907 170.016 32.656 169.696C32.4427 169.376 32.144 169.109 31.76 168.896C31.376 168.661 30.928 168.469 30.416 168.32C29.9253 168.149 29.4133 167.979 28.88 167.808C28.368 167.659 27.824 167.477 27.248 167.264C26.6933 167.051 26.1813 166.752 25.712 166.368C25.2427 165.984 24.848 165.504 24.528 164.928C24.2293 164.331 24.08 163.573 24.08 162.656C24.08 161.291 24.4213 160.149 25.104 159.232C25.808 158.293 26.6827 157.536 27.728 156.96C28.7947 156.384 29.9573 155.979 31.216 155.744C32.4747 155.488 33.6693 155.36 34.8 155.36C36.2933 155.36 37.5733 155.541 38.64 155.904C39.728 156.245 40.5493 156.651 41.104 157.12L39.92 161.568H34.608ZM49.3252 168.064L56.7812 162.24H61.0053L54.6372 167.456L59.4053 176H52.2373L48.9732 169.568L47.6292 176H41.1012L45.6452 154.496H52.2052L49.3252 168.064ZM67.3935 176H60.8975L63.8095 162.24H70.3695L67.3935 176ZM71.2015 158.048C71.2015 158.539 71.0948 158.965 70.8815 159.328C70.6895 159.691 70.4228 160 70.0815 160.256C69.7615 160.512 69.3882 160.704 68.9615 160.832C68.5348 160.96 68.0975 161.024 67.6495 161.024C66.7962 161.024 66.0815 160.821 65.5055 160.416C64.9295 160.011 64.6415 159.371 64.6415 158.496C64.6415 158.027 64.7375 157.611 64.9295 157.248C65.1215 156.864 65.3775 156.555 65.6975 156.32C66.0388 156.064 66.4228 155.872 66.8495 155.744C67.2975 155.616 67.7562 155.552 68.2255 155.552C69.0575 155.552 69.7615 155.755 70.3375 156.16C70.9135 156.565 71.2015 157.195 71.2015 158.048ZM77.4405 176H70.9125L75.4565 154.496H82.0165L77.4405 176ZM87.4555 176H80.9275L85.4715 154.496H92.0315L87.4555 176Z" fill="#008A79"/>
</g>
</g>
<defs>
<filter id="filter0_ddi_658_273" x="100.498" y="28.2196" width="69.6509" height="70.0146" filterUnits="userSpaceOnUse" color-interpolation-filters="sRGB">
<feFlood flood-opacity="0" result="BackgroundImageFix"/>
<feColorMatrix in="SourceAlpha" type="matrix" values="0 0 0 0 0 0 0 0 0 0 0 0 0 0 0 0 0 0 127 0" result="hardAlpha"/>
<feOffset dy="4"/>
<feGaussianBlur stdDeviation="2"/>
<feComposite in2="hardAlpha" operator="out"/>
<feColorMatrix type="matrix" values="0 0 0 0 0 0 0 0 0 0 0 0 0 0 0 0 0 0 0.25 0"/>
<feBlend mode="normal" in2="BackgroundImageFix" result="effect1_dropShadow_658_273"/>
<feColorMatrix in="SourceAlpha" type="matrix" values="0 0 0 0 0 0 0 0 0 0 0 0 0 0 0 0 0 0 127 0" result="hardAlpha"/>
<feOffset dy="-2"/>
<feGaussianBlur stdDeviation="2"/>
<feComposite in2="hardAlpha" operator="out"/>
<feColorMatrix type="matrix" values="0 0 0 0 0 0 0 0 0 0 0 0 0 0 0 0 0 0 0.25 0"/>
<feBlend mode="normal" in2="effect1_dropShadow_658_273" result="effect2_dropShadow_658_273"/>
<feBlend mode="normal" in="SourceGraphic" in2="effect2_dropShadow_658_273" result="shape"/>
<feColorMatrix in="SourceAlpha" type="matrix" values="0 0 0 0 0 0 0 0 0 0 0 0 0 0 0 0 0 0 127 0" result="hardAlpha"/>
<feOffset dy="4"/>
<feGaussianBlur stdDeviation="2"/>
<feComposite in2="hardAlpha" operator="arithmetic" k2="-1" k3="1"/>
<feColorMatrix type="matrix" values="0 0 0 0 0 0 0 0 0 0 0 0 0 0 0 0 0 0 0.25 0"/>
<feBlend mode="normal" in2="shape" result="effect3_innerShadow_658_273"/>
</filter>
<filter id="filter1_ddi_658_273" x="43.6715" y="46.9458" width="73.2794" height="67.6146" filterUnits="userSpaceOnUse" color-interpolation-filters="sRGB">
<feFlood flood-opacity="0" result="BackgroundImageFix"/>
<feColorMatrix in="SourceAlpha" type="matrix" values="0 0 0 0 0 0 0 0 0 0 0 0 0 0 0 0 0 0 127 0" result="hardAlpha"/>
<feOffset dy="4"/>
<feGaussianBlur stdDeviation="2"/>
<feComposite in2="hardAlpha" operator="out"/>
<feColorMatrix type="matrix" values="0 0 0 0 0 0 0 0 0 0 0 0 0 0 0 0 0 0 0.25 0"/>
<feBlend mode="normal" in2="BackgroundImageFix" result="effect1_dropShadow_658_273"/>
<feColorMatrix in="SourceAlpha" type="matrix" values="0 0 0 0 0 0 0 0 0 0 0 0 0 0 0 0 0 0 127 0" result="hardAlpha"/>
<feOffset dx="-4" dy="8"/>
<feGaussianBlur stdDeviation="1.8"/>
<feComposite in2="hardAlpha" operator="out"/>
<feColorMatrix type="matrix" values="0 0 0 0 0 0 0 0 0 0 0 0 0 0 0 0 0 0 0.25 0"/>
<feBlend mode="normal" in2="effect1_dropShadow_658_273" result="effect2_dropShadow_658_273"/>
<feBlend mode="normal" in="SourceGraphic" in2="effect2_dropShadow_658_273" result="shape"/>
<feColorMatrix in="SourceAlpha" type="matrix" values="0 0 0 0 0 0 0 0 0 0 0 0 0 0 0 0 0 0 127 0" result="hardAlpha"/>
<feOffset dy="4"/>
<feGaussianBlur stdDeviation="2"/>
<feComposite in2="hardAlpha" operator="arithmetic" k2="-1" k3="1"/>
<feColorMatrix type="matrix" values="0 0 0 0 0 0 0 0 0 0 0 0 0 0 0 0 0 0 0.25 0"/>
<feBlend mode="normal" in2="shape" result="effect3_innerShadow_658_273"/>
</filter>
<filter id="filter2_ddi_658_273" x="70.6418" y="2.01758" width="64.0198" height="79.6201" filterUnits="userSpaceOnUse" color-interpolation-filters="sRGB">
<feFlood flood-opacity="0" result="BackgroundImageFix"/>
<feColorMatrix in="SourceAlpha" type="matrix" values="0 0 0 0 0 0 0 0 0 0 0 0 0 0 0 0 0 0 127 0" result="hardAlpha"/>
<feOffset dy="4"/>
<feGaussianBlur stdDeviation="2"/>
<feComposite in2="hardAlpha" operator="out"/>
<feColorMatrix type="matrix" values="0 0 0 0 0 0 0 0 0 0 0 0 0 0 0 0 0 0 0.25 0"/>
<feBlend mode="normal" in2="BackgroundImageFix" result="effect1_dropShadow_658_273"/>
<feColorMatrix in="SourceAlpha" type="matrix" values="0 0 0 0 0 0 0 0 0 0 0 0 0 0 0 0 0 0 127 0" result="hardAlpha"/>
<feOffset dy="-6"/>
<feGaussianBlur stdDeviation="2"/>
<feComposite in2="hardAlpha" operator="out"/>
<feColorMatrix type="matrix" values="0 0 0 0 0 0 0 0 0 0 0 0 0 0 0 0 0 0 0.25 0"/>
<feBlend mode="normal" in2="effect1_dropShadow_658_273" result="effect2_dropShadow_658_273"/>
<feBlend mode="normal" in="SourceGraphic" in2="effect2_dropShadow_658_273" result="shape"/>
<feColorMatrix in="SourceAlpha" type="matrix" values="0 0 0 0 0 0 0 0 0 0 0 0 0 0 0 0 0 0 127 0" result="hardAlpha"/>
<feOffset dy="4"/>
<feGaussianBlur stdDeviation="2"/>
<feComposite in2="hardAlpha" operator="arithmetic" k2="-1" k3="1"/>
<feColorMatrix type="matrix" values="0 0 0 0 0 0 0 0 0 0 0 0 0 0 0 0 0 0 0.25 0"/>
<feBlend mode="normal" in2="shape" result="effect3_innerShadow_658_273"/>
</filter>
<filter id="filter3_ddi_658_273" x="82.7373" y="63.6187" width="64.0046" height="73.5175" filterUnits="userSpaceOnUse" color-interpolation-filters="sRGB">
<feFlood flood-opacity="0" result="BackgroundImageFix"/>
<feColorMatrix in="SourceAlpha" type="matrix" values="0 0 0 0 0 0 0 0 0 0 0 0 0 0 0 0 0 0 127 0" result="hardAlpha"/>
<feOffset dy="4"/>
<feGaussianBlur stdDeviation="2"/>
<feComposite in2="hardAlpha" operator="out"/>
<feColorMatrix type="matrix" values="0 0 0 0 0 0 0 0 0 0 0 0 0 0 0 0 0 0 0.25 0"/>
<feBlend mode="normal" in2="BackgroundImageFix" result="effect1_dropShadow_658_273"/>
<feColorMatrix in="SourceAlpha" type="matrix" values="0 0 0 0 0 0 0 0 0 0 0 0 0 0 0 0 0 0 127 0" result="hardAlpha"/>
<feOffset dy="8"/>
<feGaussianBlur stdDeviation="2"/>
<feComposite in2="hardAlpha" operator="out"/>
<feColorMatrix type="matrix" values="0 0 0 0 0 0 0 0 0 0 0 0 0 0 0 0 0 0 0.25 0"/>
<feBlend mode="normal" in2="effect1_dropShadow_658_273" result="effect2_dropShadow_658_273"/>
<feBlend mode="normal" in="SourceGraphic" in2="effect2_dropShadow_658_273" result="shape"/>
<feColorMatrix in="SourceAlpha" type="matrix" values="0 0 0 0 0 0 0 0 0 0 0 0 0 0 0 0 0 0 127 0" result="hardAlpha"/>
<feOffset dy="4"/>
<feGaussianBlur stdDeviation="2"/>
<feComposite in2="hardAlpha" operator="arithmetic" k2="-1" k3="1"/>
<feColorMatrix type="matrix" values="0 0 0 0 0 0 0 0 0 0 0 0 0 0 0 0 0 0 0.25 0"/>
<feBlend mode="normal" in2="shape" result="effect3_innerShadow_658_273"/>
</filter>
<filter id="filter4_d_658_273" x="89.2" y="155.552" width="109.099" height="30.504" filterUnits="userSpaceOnUse" color-interpolation-filters="sRGB">
<feFlood flood-opacity="0" result="BackgroundImageFix"/>
<feColorMatrix in="SourceAlpha" type="matrix" values="0 0 0 0 0 0 0 0 0 0 0 0 0 0 0 0 0 0 127 0" result="hardAlpha"/>
<feOffset dy="6"/>
<feGaussianBlur stdDeviation="1.9"/>
<feComposite in2="hardAlpha" operator="out"/>
<feColorMatrix type="matrix" values="0 0 0 0 0 0 0 0 0 0 0 0 0 0 0 0 0 0 0.25 0"/>
<feBlend mode="normal" in2="BackgroundImageFix" result="effect1_dropShadow_658_273"/>
<feBlend mode="normal" in="SourceGraphic" in2="effect1_dropShadow_658_273" result="shape"/>
</filter>
<filter id="filter5_d_658_273" x="17.9759" y="154.496" width="77.8556" height="31.56" filterUnits="userSpaceOnUse" color-interpolation-filters="sRGB">
<feFlood flood-opacity="0" result="BackgroundImageFix"/>
<feColorMatrix in="SourceAlpha" type="matrix" values="0 0 0 0 0 0 0 0 0 0 0 0 0 0 0 0 0 0 127 0" result="hardAlpha"/>
<feOffset dy="6"/>
<feGaussianBlur stdDeviation="1.9"/>
<feComposite in2="hardAlpha" operator="out"/>
<feColorMatrix type="matrix" values="0 0 0 0 0 0 0 0 0 0 0 0 0 0 0 0 0 0 0.25 0"/>
<feBlend mode="normal" in2="BackgroundImageFix" result="effect1_dropShadow_658_273"/>
<feBlend mode="normal" in="SourceGraphic" in2="effect1_dropShadow_658_273" result="shape"/>
</filter>
<clipPath id="clip0_658_273">
<rect width="217" height="217" fill="white"/>
</clipPath>
<clipPath id="clip1_658_273">
<rect width="19" height="19" fill="white" transform="translate(113.056 90)"/>
</clipPath>
<clipPath id="clip2_658_273">
<rect width="21" height="21" fill="white" transform="translate(66.0562 69)"/>
</clipPath>
<clipPath id="clip3_658_273">
<rect width="19" height="19" fill="white" transform="translate(89.0562 22)"/>
</clipPath>
<clipPath id="clip4_658_273">
<rect width="17" height="17" fill="white" transform="translate(45.0562 10)"/>
</clipPath>
</defs>
</svg>
